%TF.GenerationSoftware,KiCad,Pcbnew,(7.0.0-0)*%
%TF.CreationDate,2023-03-16T02:49:19-07:00*%
%TF.ProjectId,spc_evdr,7370635f-6576-4647-922e-6b696361645f,rev?*%
%TF.SameCoordinates,Original*%
%TF.FileFunction,Legend,Bot*%
%TF.FilePolarity,Positive*%
%FSLAX46Y46*%
G04 Gerber Fmt 4.6, Leading zero omitted, Abs format (unit mm)*
G04 Created by KiCad (PCBNEW (7.0.0-0)) date 2023-03-16 02:49:19*
%MOMM*%
%LPD*%
G01*
G04 APERTURE LIST*
G04 Aperture macros list*
%AMRoundRect*
0 Rectangle with rounded corners*
0 $1 Rounding radius*
0 $2 $3 $4 $5 $6 $7 $8 $9 X,Y pos of 4 corners*
0 Add a 4 corners polygon primitive as box body*
4,1,4,$2,$3,$4,$5,$6,$7,$8,$9,$2,$3,0*
0 Add four circle primitives for the rounded corners*
1,1,$1+$1,$2,$3*
1,1,$1+$1,$4,$5*
1,1,$1+$1,$6,$7*
1,1,$1+$1,$8,$9*
0 Add four rect primitives between the rounded corners*
20,1,$1+$1,$2,$3,$4,$5,0*
20,1,$1+$1,$4,$5,$6,$7,0*
20,1,$1+$1,$6,$7,$8,$9,0*
20,1,$1+$1,$8,$9,$2,$3,0*%
G04 Aperture macros list end*
%ADD10C,0.020000*%
%ADD11C,0.150000*%
%ADD12C,0.120000*%
%ADD13C,0.100000*%
%ADD14C,2.000000*%
%ADD15R,3.200000X2.000000*%
%ADD16O,1.700000X1.700000*%
%ADD17C,1.700000*%
%ADD18R,2.200000X2.200000*%
%ADD19C,1.900000*%
%ADD20C,3.000000*%
%ADD21C,4.100000*%
%ADD22R,2.550000X2.500000*%
%ADD23O,1.778000X1.397000*%
%ADD24C,3.987800*%
%ADD25C,3.048000*%
%ADD26R,1.700000X1.700000*%
%ADD27R,1.200000X0.900000*%
%ADD28RoundRect,0.200000X0.450000X-0.200000X0.450000X0.200000X-0.450000X0.200000X-0.450000X-0.200000X0*%
%ADD29O,1.300000X0.800000*%
%ADD30RoundRect,0.250000X0.450000X-0.262500X0.450000X0.262500X-0.450000X0.262500X-0.450000X-0.262500X0*%
%ADD31RoundRect,0.250000X-0.450000X0.262500X-0.450000X-0.262500X0.450000X-0.262500X0.450000X0.262500X0*%
%ADD32RoundRect,0.100000X-0.637500X-0.100000X0.637500X-0.100000X0.637500X0.100000X-0.637500X0.100000X0*%
%ADD33RoundRect,0.250000X-0.475000X0.250000X-0.475000X-0.250000X0.475000X-0.250000X0.475000X0.250000X0*%
%ADD34RoundRect,0.225000X0.225000X0.375000X-0.225000X0.375000X-0.225000X-0.375000X0.225000X-0.375000X0*%
%ADD35R,1.100000X0.600000*%
%ADD36R,1.000000X0.600000*%
%ADD37C,0.850000*%
%ADD38R,0.600000X1.000000*%
%ADD39O,2.750000X1.800000*%
%ADD40C,1.397000*%
G04 APERTURE END LIST*
D10*
G36*
X83867676Y-63857187D02*
G01*
X82617691Y-63857187D01*
X82617691Y-62607198D01*
X83867676Y-62607198D01*
X83867676Y-63857187D01*
G37*
X83867676Y-63857187D02*
X82617691Y-63857187D01*
X82617691Y-62607198D01*
X83867676Y-62607198D01*
X83867676Y-63857187D01*
G36*
X192543352Y-82907155D02*
G01*
X190045794Y-82907155D01*
X190045794Y-81657167D01*
X192543352Y-81657167D01*
X192543352Y-82907155D01*
G37*
X192543352Y-82907155D02*
X190045794Y-82907155D01*
X190045794Y-81657167D01*
X192543352Y-81657167D01*
X192543352Y-82907155D01*
G36*
X204717669Y-94457567D02*
G01*
X205967653Y-94457567D01*
X205967653Y-93207544D01*
X209717653Y-93207544D01*
X209717653Y-91957551D01*
X214717669Y-91957551D01*
X214717669Y-93207544D01*
X218467669Y-93207544D01*
X218467669Y-94457559D01*
X219717669Y-94457559D01*
X219717669Y-98207544D01*
X218467669Y-98207544D01*
X218467669Y-98207170D01*
X217217684Y-98207170D01*
X217217684Y-99456804D01*
X218467669Y-99456804D01*
X218467669Y-100706827D01*
X217217684Y-100706827D01*
X217217684Y-101956819D01*
X214717669Y-101956819D01*
X214717669Y-100706827D01*
X215967669Y-100706827D01*
X215967669Y-99457193D01*
X213467684Y-99457193D01*
X213467684Y-100706827D01*
X210967669Y-100706827D01*
X210967669Y-99457193D01*
X208467669Y-99457193D01*
X208467669Y-100706827D01*
X209717653Y-100706827D01*
X209717653Y-101956834D01*
X207217669Y-101956834D01*
X207217669Y-100706842D01*
X205967653Y-100706842D01*
X205967653Y-99456819D01*
X207217669Y-99456819D01*
X207217669Y-99456811D01*
X207217669Y-98207185D01*
X204717669Y-98207185D01*
X204717669Y-98207177D01*
X210967669Y-98207177D01*
X210967669Y-99456811D01*
X213467684Y-99456811D01*
X213467684Y-98207177D01*
X210967669Y-98207177D01*
X204717669Y-98207177D01*
X204717669Y-96957185D01*
X204717669Y-95707551D01*
X208467669Y-95707551D01*
X208467669Y-96957185D01*
X210967669Y-96957185D01*
X210967669Y-95707551D01*
X213467684Y-95707551D01*
X213467684Y-96957185D01*
X215967669Y-96957185D01*
X215967669Y-95707551D01*
X213467684Y-95707551D01*
X210967669Y-95707551D01*
X208467669Y-95707551D01*
X204717669Y-95707551D01*
X204717669Y-94457567D01*
G37*
X204717669Y-94457567D02*
X205967653Y-94457567D01*
X205967653Y-93207544D01*
X209717653Y-93207544D01*
X209717653Y-91957551D01*
X214717669Y-91957551D01*
X214717669Y-93207544D01*
X218467669Y-93207544D01*
X218467669Y-94457559D01*
X219717669Y-94457559D01*
X219717669Y-98207544D01*
X218467669Y-98207544D01*
X218467669Y-98207170D01*
X217217684Y-98207170D01*
X217217684Y-99456804D01*
X218467669Y-99456804D01*
X218467669Y-100706827D01*
X217217684Y-100706827D01*
X217217684Y-101956819D01*
X214717669Y-101956819D01*
X214717669Y-100706827D01*
X215967669Y-100706827D01*
X215967669Y-99457193D01*
X213467684Y-99457193D01*
X213467684Y-100706827D01*
X210967669Y-100706827D01*
X210967669Y-99457193D01*
X208467669Y-99457193D01*
X208467669Y-100706827D01*
X209717653Y-100706827D01*
X209717653Y-101956834D01*
X207217669Y-101956834D01*
X207217669Y-100706842D01*
X205967653Y-100706842D01*
X205967653Y-99456819D01*
X207217669Y-99456819D01*
X207217669Y-99456811D01*
X207217669Y-98207185D01*
X204717669Y-98207185D01*
X204717669Y-98207177D01*
X210967669Y-98207177D01*
X210967669Y-99456811D01*
X213467684Y-99456811D01*
X213467684Y-98207177D01*
X210967669Y-98207177D01*
X204717669Y-98207177D01*
X204717669Y-96957185D01*
X204717669Y-95707551D01*
X208467669Y-95707551D01*
X208467669Y-96957185D01*
X210967669Y-96957185D01*
X210967669Y-95707551D01*
X213467684Y-95707551D01*
X213467684Y-96957185D01*
X215967669Y-96957185D01*
X215967669Y-95707551D01*
X213467684Y-95707551D01*
X210967669Y-95707551D01*
X208467669Y-95707551D01*
X204717669Y-95707551D01*
X204717669Y-94457567D01*
G36*
X116343363Y-82907155D02*
G01*
X113845823Y-82907155D01*
X113845823Y-81657167D01*
X116343363Y-81657167D01*
X116343363Y-82907155D01*
G37*
X116343363Y-82907155D02*
X113845823Y-82907155D01*
X113845823Y-81657167D01*
X116343363Y-81657167D01*
X116343363Y-82907155D01*
G36*
X54817705Y-57607183D02*
G01*
X56067690Y-57607183D01*
X56067690Y-57607179D01*
X57317705Y-57607179D01*
X57317705Y-58857198D01*
X58567690Y-58857198D01*
X58567690Y-57607179D01*
X61067704Y-57607179D01*
X61067704Y-58857198D01*
X62317689Y-58857198D01*
X62317689Y-57607179D01*
X61067704Y-57607179D01*
X58567690Y-57607179D01*
X57317705Y-57607179D01*
X56067690Y-57607179D01*
X56067690Y-56357194D01*
X57317705Y-56357194D01*
X57317705Y-55107206D01*
X58567690Y-55107206D01*
X58567690Y-53857187D01*
X61067689Y-53857187D01*
X61067689Y-55107206D01*
X62317674Y-55107206D01*
X62317674Y-56357194D01*
X63567689Y-56357194D01*
X63567689Y-57607183D01*
X64817674Y-57607183D01*
X64817674Y-60107190D01*
X62317674Y-60107190D01*
X62317674Y-61357209D01*
X61067704Y-61357209D01*
X61067704Y-62607198D01*
X58567705Y-62607198D01*
X58567705Y-61357209D01*
X61067689Y-61357209D01*
X61067689Y-60107190D01*
X58567690Y-60107190D01*
X58567690Y-61357209D01*
X57317705Y-61357209D01*
X57317705Y-60107190D01*
X54817705Y-60107190D01*
X54817705Y-58857198D01*
X54817705Y-57607183D01*
G37*
X54817705Y-57607183D02*
X56067690Y-57607183D01*
X56067690Y-57607179D01*
X57317705Y-57607179D01*
X57317705Y-58857198D01*
X58567690Y-58857198D01*
X58567690Y-57607179D01*
X61067704Y-57607179D01*
X61067704Y-58857198D01*
X62317689Y-58857198D01*
X62317689Y-57607179D01*
X61067704Y-57607179D01*
X58567690Y-57607179D01*
X57317705Y-57607179D01*
X56067690Y-57607179D01*
X56067690Y-56357194D01*
X57317705Y-56357194D01*
X57317705Y-55107206D01*
X58567690Y-55107206D01*
X58567690Y-53857187D01*
X61067689Y-53857187D01*
X61067689Y-55107206D01*
X62317674Y-55107206D01*
X62317674Y-56357194D01*
X63567689Y-56357194D01*
X63567689Y-57607183D01*
X64817674Y-57607183D01*
X64817674Y-60107190D01*
X62317674Y-60107190D01*
X62317674Y-61357209D01*
X61067704Y-61357209D01*
X61067704Y-62607198D01*
X58567705Y-62607198D01*
X58567705Y-61357209D01*
X61067689Y-61357209D01*
X61067689Y-60107190D01*
X58567690Y-60107190D01*
X58567690Y-61357209D01*
X57317705Y-61357209D01*
X57317705Y-60107190D01*
X54817705Y-60107190D01*
X54817705Y-58857198D01*
X54817705Y-57607183D01*
G36*
X141017679Y-63857187D02*
G01*
X139767687Y-63857187D01*
X139767687Y-62607198D01*
X141017679Y-62607198D01*
X141017679Y-63857187D01*
G37*
X141017679Y-63857187D02*
X139767687Y-63857187D01*
X139767687Y-62607198D01*
X141017679Y-62607198D01*
X141017679Y-63857187D01*
G36*
X157567667Y-63857187D02*
G01*
X156317682Y-63857187D01*
X156317682Y-62607198D01*
X157567667Y-62607198D01*
X157567667Y-63857187D01*
G37*
X157567667Y-63857187D02*
X156317682Y-63857187D01*
X156317682Y-62607198D01*
X157567667Y-62607198D01*
X157567667Y-63857187D01*
G36*
X211593355Y-82907155D02*
G01*
X209095812Y-82907155D01*
X209095812Y-81657167D01*
X211593355Y-81657167D01*
X211593355Y-82907155D01*
G37*
X211593355Y-82907155D02*
X209095812Y-82907155D01*
X209095812Y-81657167D01*
X211593355Y-81657167D01*
X211593355Y-82907155D01*
G36*
X82617691Y-62607198D02*
G01*
X81367676Y-62607198D01*
X81367676Y-61357209D01*
X82617691Y-61357209D01*
X82617691Y-62607198D01*
G37*
X82617691Y-62607198D02*
X81367676Y-62607198D01*
X81367676Y-61357209D01*
X82617691Y-61357209D01*
X82617691Y-62607198D01*
G36*
X217217669Y-63857187D02*
G01*
X215967684Y-63857187D01*
X215967684Y-62607198D01*
X217217669Y-62607198D01*
X217217669Y-63857187D01*
G37*
X217217669Y-63857187D02*
X215967684Y-63857187D01*
X215967684Y-62607198D01*
X217217669Y-62607198D01*
X217217669Y-63857187D01*
G36*
X140390444Y-74157197D02*
G01*
X139140451Y-74157197D01*
X139140451Y-72907209D01*
X140390444Y-72907209D01*
X140390444Y-74157197D01*
G37*
X140390444Y-74157197D02*
X139140451Y-74157197D01*
X139140451Y-72907209D01*
X140390444Y-72907209D01*
X140390444Y-74157197D01*
G36*
X54195375Y-77907186D02*
G01*
X54195375Y-76657197D01*
X55445391Y-76657197D01*
X56695833Y-76657197D01*
X56695833Y-77907186D01*
X57943361Y-77907186D01*
X57943361Y-76657197D01*
X61693345Y-76657197D01*
X61693345Y-77907186D01*
X62940904Y-77907186D01*
X62940904Y-76657197D01*
X61693345Y-76657197D01*
X57943361Y-76657197D01*
X56695833Y-76657197D01*
X55445391Y-76657197D01*
X55445391Y-75407178D01*
X56695375Y-75407178D01*
X56695375Y-74157197D01*
X57944917Y-74157197D01*
X57944917Y-75407178D01*
X61690004Y-75407178D01*
X61690004Y-74157197D01*
X62940019Y-74157197D01*
X62940019Y-75407178D01*
X64190003Y-75407178D01*
X64190003Y-76657197D01*
X65440019Y-76657197D01*
X65440019Y-77907186D01*
X66690003Y-77907186D01*
X66690003Y-81657167D01*
X65440019Y-81657167D01*
X65440019Y-79157167D01*
X64190003Y-79157167D01*
X64190003Y-80407186D01*
X64188005Y-80407186D01*
X64188005Y-81657167D01*
X62938462Y-81657167D01*
X62938462Y-82907155D01*
X60440904Y-82907155D01*
X60440904Y-81657167D01*
X62938020Y-81657167D01*
X62938020Y-80407186D01*
X56695375Y-80407186D01*
X56695375Y-81657167D01*
X55445391Y-81657167D01*
X55445391Y-79157167D01*
X54195375Y-79157167D01*
X54195375Y-81657167D01*
X52945391Y-81657167D01*
X52945391Y-77907186D01*
X54195375Y-77907186D01*
G37*
X54195375Y-77907186D02*
X54195375Y-76657197D01*
X55445391Y-76657197D01*
X56695833Y-76657197D01*
X56695833Y-77907186D01*
X57943361Y-77907186D01*
X57943361Y-76657197D01*
X61693345Y-76657197D01*
X61693345Y-77907186D01*
X62940904Y-77907186D01*
X62940904Y-76657197D01*
X61693345Y-76657197D01*
X57943361Y-76657197D01*
X56695833Y-76657197D01*
X55445391Y-76657197D01*
X55445391Y-75407178D01*
X56695375Y-75407178D01*
X56695375Y-74157197D01*
X57944917Y-74157197D01*
X57944917Y-75407178D01*
X61690004Y-75407178D01*
X61690004Y-74157197D01*
X62940019Y-74157197D01*
X62940019Y-75407178D01*
X64190003Y-75407178D01*
X64190003Y-76657197D01*
X65440019Y-76657197D01*
X65440019Y-77907186D01*
X66690003Y-77907186D01*
X66690003Y-81657167D01*
X65440019Y-81657167D01*
X65440019Y-79157167D01*
X64190003Y-79157167D01*
X64190003Y-80407186D01*
X64188005Y-80407186D01*
X64188005Y-81657167D01*
X62938462Y-81657167D01*
X62938462Y-82907155D01*
X60440904Y-82907155D01*
X60440904Y-81657167D01*
X62938020Y-81657167D01*
X62938020Y-80407186D01*
X56695375Y-80407186D01*
X56695375Y-81657167D01*
X55445391Y-81657167D01*
X55445391Y-79157167D01*
X54195375Y-79157167D01*
X54195375Y-81657167D01*
X52945391Y-81657167D01*
X52945391Y-77907186D01*
X54195375Y-77907186D01*
G36*
X220049227Y-49792640D02*
G01*
X219022600Y-49792642D01*
X219022600Y-48767381D01*
X220049227Y-48767381D01*
X220049227Y-49792640D01*
G37*
X220049227Y-49792640D02*
X219022600Y-49792642D01*
X219022600Y-48767381D01*
X220049227Y-48767381D01*
X220049227Y-49792640D01*
G36*
X168495356Y-77907186D02*
G01*
X168495356Y-76657197D01*
X169745371Y-76657197D01*
X170995813Y-76657197D01*
X170995813Y-77907186D01*
X172243342Y-77907186D01*
X172243342Y-76657197D01*
X175993334Y-76657197D01*
X175993334Y-77907186D01*
X177240893Y-77907186D01*
X177240893Y-76657197D01*
X175993334Y-76657197D01*
X172243342Y-76657197D01*
X170995813Y-76657197D01*
X169745371Y-76657197D01*
X169745371Y-75407178D01*
X170995363Y-75407178D01*
X170995363Y-74157197D01*
X172244883Y-74157197D01*
X172244883Y-75407178D01*
X175989969Y-75407178D01*
X175989969Y-74157197D01*
X177239985Y-74157197D01*
X177239985Y-75407178D01*
X178489969Y-75407178D01*
X178489969Y-76657197D01*
X179739985Y-76657197D01*
X179739985Y-77907186D01*
X180989962Y-77907186D01*
X180989962Y-81657167D01*
X179739992Y-81657167D01*
X179739992Y-79157167D01*
X178489969Y-79157167D01*
X178489969Y-80407186D01*
X178487970Y-80407186D01*
X178487970Y-81657167D01*
X177238443Y-81657167D01*
X177238443Y-82907155D01*
X174740892Y-82907155D01*
X174740892Y-81657167D01*
X177237993Y-81657167D01*
X177237993Y-80407186D01*
X170995363Y-80407186D01*
X170995363Y-81657167D01*
X169745371Y-81657167D01*
X169745371Y-79157167D01*
X168495356Y-79157167D01*
X168495356Y-81657167D01*
X167245371Y-81657167D01*
X167245371Y-77907186D01*
X168495356Y-77907186D01*
G37*
X168495356Y-77907186D02*
X168495356Y-76657197D01*
X169745371Y-76657197D01*
X170995813Y-76657197D01*
X170995813Y-77907186D01*
X172243342Y-77907186D01*
X172243342Y-76657197D01*
X175993334Y-76657197D01*
X175993334Y-77907186D01*
X177240893Y-77907186D01*
X177240893Y-76657197D01*
X175993334Y-76657197D01*
X172243342Y-76657197D01*
X170995813Y-76657197D01*
X169745371Y-76657197D01*
X169745371Y-75407178D01*
X170995363Y-75407178D01*
X170995363Y-74157197D01*
X172244883Y-74157197D01*
X172244883Y-75407178D01*
X175989969Y-75407178D01*
X175989969Y-74157197D01*
X177239985Y-74157197D01*
X177239985Y-75407178D01*
X178489969Y-75407178D01*
X178489969Y-76657197D01*
X179739985Y-76657197D01*
X179739985Y-77907186D01*
X180989962Y-77907186D01*
X180989962Y-81657167D01*
X179739992Y-81657167D01*
X179739992Y-79157167D01*
X178489969Y-79157167D01*
X178489969Y-80407186D01*
X178487970Y-80407186D01*
X178487970Y-81657167D01*
X177238443Y-81657167D01*
X177238443Y-82907155D01*
X174740892Y-82907155D01*
X174740892Y-81657167D01*
X177237993Y-81657167D01*
X177237993Y-80407186D01*
X170995363Y-80407186D01*
X170995363Y-81657167D01*
X169745371Y-81657167D01*
X169745371Y-79157167D01*
X168495356Y-79157167D01*
X168495356Y-81657167D01*
X167245371Y-81657167D01*
X167245371Y-77907186D01*
X168495356Y-77907186D01*
G36*
X152186411Y-114919687D02*
G01*
X153123919Y-114919687D01*
X153123919Y-115857194D01*
X154061419Y-115857194D01*
X154061419Y-116794679D01*
X154998926Y-116794679D01*
X154998926Y-117732171D01*
X154998896Y-117732171D01*
X154998896Y-118669694D01*
X154998926Y-118669694D01*
X154998926Y-123357202D01*
X151248919Y-123357202D01*
X151248919Y-122419679D01*
X150311419Y-122419679D01*
X150311419Y-121482202D01*
X149373911Y-121482202D01*
X149373911Y-120544710D01*
X142811419Y-120544710D01*
X142811419Y-121482202D01*
X141873911Y-121482202D01*
X141873911Y-122419679D01*
X140936419Y-122419679D01*
X140936419Y-123357202D01*
X137186426Y-123357202D01*
X137186426Y-116794679D01*
X138123919Y-116794679D01*
X138123919Y-115857194D01*
X139061411Y-115857194D01*
X139061411Y-114919687D01*
X139998919Y-114919687D01*
X139998919Y-113982187D01*
X152186411Y-113982187D01*
X152186411Y-114919687D01*
G37*
X152186411Y-114919687D02*
X153123919Y-114919687D01*
X153123919Y-115857194D01*
X154061419Y-115857194D01*
X154061419Y-116794679D01*
X154998926Y-116794679D01*
X154998926Y-117732171D01*
X154998896Y-117732171D01*
X154998896Y-118669694D01*
X154998926Y-118669694D01*
X154998926Y-123357202D01*
X151248919Y-123357202D01*
X151248919Y-122419679D01*
X150311419Y-122419679D01*
X150311419Y-121482202D01*
X149373911Y-121482202D01*
X149373911Y-120544710D01*
X142811419Y-120544710D01*
X142811419Y-121482202D01*
X141873911Y-121482202D01*
X141873911Y-122419679D01*
X140936419Y-122419679D01*
X140936419Y-123357202D01*
X137186426Y-123357202D01*
X137186426Y-116794679D01*
X138123919Y-116794679D01*
X138123919Y-115857194D01*
X139061411Y-115857194D01*
X139061411Y-114919687D01*
X139998919Y-114919687D01*
X139998919Y-113982187D01*
X152186411Y-113982187D01*
X152186411Y-114919687D01*
G36*
X198167666Y-63857187D02*
G01*
X196917681Y-63857187D01*
X196917681Y-62607198D01*
X198167666Y-62607198D01*
X198167666Y-63857187D01*
G37*
X198167666Y-63857187D02*
X196917681Y-63857187D01*
X196917681Y-62607198D01*
X198167666Y-62607198D01*
X198167666Y-63857187D01*
G36*
X132895373Y-74157197D02*
G01*
X131645380Y-74157197D01*
X131645380Y-72907209D01*
X132895373Y-72907209D01*
X132895373Y-74157197D01*
G37*
X132895373Y-74157197D02*
X131645380Y-74157197D01*
X131645380Y-72907209D01*
X132895373Y-72907209D01*
X132895373Y-74157197D01*
G36*
X77617676Y-63857187D02*
G01*
X76367691Y-63857187D01*
X76367691Y-62607198D01*
X77617676Y-62607198D01*
X77617676Y-63857187D01*
G37*
X77617676Y-63857187D02*
X76367691Y-63857187D01*
X76367691Y-62607198D01*
X77617676Y-62607198D01*
X77617676Y-63857187D01*
G36*
X235640429Y-74157201D02*
G01*
X234390429Y-74157201D01*
X234390429Y-72907209D01*
X235640429Y-72907209D01*
X235640429Y-74157201D01*
G37*
X235640429Y-74157201D02*
X234390429Y-74157201D01*
X234390429Y-72907209D01*
X235640429Y-72907209D01*
X235640429Y-74157201D01*
G36*
X175345072Y-132319665D02*
G01*
X176595057Y-132319665D01*
X176595057Y-134819665D01*
X180345034Y-134819665D01*
X180345034Y-136069658D01*
X181595019Y-136069658D01*
X181595019Y-139819696D01*
X167845057Y-139819696D01*
X167845057Y-136069658D01*
X169095080Y-136069658D01*
X169095080Y-134819665D01*
X172845064Y-134819665D01*
X172845064Y-132319665D01*
X174095057Y-132319665D01*
X174095057Y-131069673D01*
X175345072Y-131069673D01*
X175345072Y-132319665D01*
G37*
X175345072Y-132319665D02*
X176595057Y-132319665D01*
X176595057Y-134819665D01*
X180345034Y-134819665D01*
X180345034Y-136069658D01*
X181595019Y-136069658D01*
X181595019Y-139819696D01*
X167845057Y-139819696D01*
X167845057Y-136069658D01*
X169095080Y-136069658D01*
X169095080Y-134819665D01*
X172845064Y-134819665D01*
X172845064Y-132319665D01*
X174095057Y-132319665D01*
X174095057Y-131069673D01*
X175345072Y-131069673D01*
X175345072Y-132319665D01*
G36*
X111345358Y-77907186D02*
G01*
X111345358Y-76657197D01*
X112595381Y-76657197D01*
X113845823Y-76657197D01*
X113845823Y-77907186D01*
X115093352Y-77907186D01*
X115093352Y-76657197D01*
X118843340Y-76657197D01*
X118843340Y-77907186D01*
X120090899Y-77907186D01*
X120090899Y-76657197D01*
X118843340Y-76657197D01*
X115093352Y-76657197D01*
X113845823Y-76657197D01*
X112595381Y-76657197D01*
X112595381Y-75407178D01*
X113845373Y-75407178D01*
X113845373Y-74157197D01*
X115094893Y-74157197D01*
X115094893Y-75407178D01*
X118839960Y-75407178D01*
X118839960Y-74157197D01*
X120089983Y-74157197D01*
X120089983Y-75407178D01*
X121339975Y-75407178D01*
X121339975Y-76657197D01*
X122589983Y-76657197D01*
X122589983Y-77907186D01*
X123839975Y-77907186D01*
X123839975Y-81657167D01*
X122589998Y-81657167D01*
X122589998Y-79157167D01*
X121339975Y-79157167D01*
X121339975Y-80407186D01*
X121337977Y-80407186D01*
X121337977Y-81657167D01*
X120088450Y-81657167D01*
X120088450Y-82907155D01*
X117590899Y-82907155D01*
X117590899Y-81657167D01*
X120088000Y-81657167D01*
X120088000Y-80407186D01*
X113845373Y-80407186D01*
X113845373Y-81657167D01*
X112595381Y-81657167D01*
X112595381Y-79157167D01*
X111345358Y-79157167D01*
X111345358Y-81657167D01*
X110095381Y-81657167D01*
X110095381Y-77907186D01*
X111345358Y-77907186D01*
G37*
X111345358Y-77907186D02*
X111345358Y-76657197D01*
X112595381Y-76657197D01*
X113845823Y-76657197D01*
X113845823Y-77907186D01*
X115093352Y-77907186D01*
X115093352Y-76657197D01*
X118843340Y-76657197D01*
X118843340Y-77907186D01*
X120090899Y-77907186D01*
X120090899Y-76657197D01*
X118843340Y-76657197D01*
X115093352Y-76657197D01*
X113845823Y-76657197D01*
X112595381Y-76657197D01*
X112595381Y-75407178D01*
X113845373Y-75407178D01*
X113845373Y-74157197D01*
X115094893Y-74157197D01*
X115094893Y-75407178D01*
X118839960Y-75407178D01*
X118839960Y-74157197D01*
X120089983Y-74157197D01*
X120089983Y-75407178D01*
X121339975Y-75407178D01*
X121339975Y-76657197D01*
X122589983Y-76657197D01*
X122589983Y-77907186D01*
X123839975Y-77907186D01*
X123839975Y-81657167D01*
X122589998Y-81657167D01*
X122589998Y-79157167D01*
X121339975Y-79157167D01*
X121339975Y-80407186D01*
X121337977Y-80407186D01*
X121337977Y-81657167D01*
X120088450Y-81657167D01*
X120088450Y-82907155D01*
X117590899Y-82907155D01*
X117590899Y-81657167D01*
X120088000Y-81657167D01*
X120088000Y-80407186D01*
X113845373Y-80407186D01*
X113845373Y-81657167D01*
X112595381Y-81657167D01*
X112595381Y-79157167D01*
X111345358Y-79157167D01*
X111345358Y-81657167D01*
X110095381Y-81657167D01*
X110095381Y-77907186D01*
X111345358Y-77907186D01*
G36*
X178490427Y-74157197D02*
G01*
X177240442Y-74157197D01*
X177240442Y-72907209D01*
X178490427Y-72907209D01*
X178490427Y-74157197D01*
G37*
X178490427Y-74157197D02*
X177240442Y-74157197D01*
X177240442Y-72907209D01*
X178490427Y-72907209D01*
X178490427Y-74157197D01*
G36*
X172867670Y-63857187D02*
G01*
X171617685Y-63857187D01*
X171617685Y-62607198D01*
X172867670Y-62607198D01*
X172867670Y-63857187D01*
G37*
X172867670Y-63857187D02*
X171617685Y-63857187D01*
X171617685Y-62607198D01*
X172867670Y-62607198D01*
X172867670Y-63857187D01*
G36*
X151945368Y-74157197D02*
G01*
X150695376Y-74157197D01*
X150695376Y-72907209D01*
X151945368Y-72907209D01*
X151945368Y-74157197D01*
G37*
X151945368Y-74157197D02*
X150695376Y-74157197D01*
X150695376Y-72907209D01*
X151945368Y-72907209D01*
X151945368Y-74157197D01*
G36*
X80117691Y-62607198D02*
G01*
X77617691Y-62607198D01*
X77617691Y-61357209D01*
X80117691Y-61357209D01*
X80117691Y-62607198D01*
G37*
X80117691Y-62607198D02*
X77617691Y-62607198D01*
X77617691Y-61357209D01*
X80117691Y-61357209D01*
X80117691Y-62607198D01*
G36*
X62317689Y-63857187D02*
G01*
X61067704Y-63857187D01*
X61067704Y-62607198D01*
X62317689Y-62607198D01*
X62317689Y-63857187D01*
G37*
X62317689Y-63857187D02*
X61067704Y-63857187D01*
X61067704Y-62607198D01*
X62317689Y-62607198D01*
X62317689Y-63857187D01*
G36*
X190045351Y-74157197D02*
G01*
X188795366Y-74157197D01*
X188795366Y-72907209D01*
X190045351Y-72907209D01*
X190045351Y-74157197D01*
G37*
X190045351Y-74157197D02*
X188795366Y-74157197D01*
X188795366Y-72907209D01*
X190045351Y-72907209D01*
X190045351Y-74157197D01*
G36*
X227517657Y-63857187D02*
G01*
X226267672Y-63857187D01*
X226267672Y-62607198D01*
X227517657Y-62607198D01*
X227517657Y-63857187D01*
G37*
X227517657Y-63857187D02*
X226267672Y-63857187D01*
X226267672Y-62607198D01*
X227517657Y-62607198D01*
X227517657Y-63857187D01*
G36*
X78243393Y-82907155D02*
G01*
X75745834Y-82907155D01*
X75745834Y-81657167D01*
X78243393Y-81657167D01*
X78243393Y-82907155D01*
G37*
X78243393Y-82907155D02*
X75745834Y-82907155D01*
X75745834Y-81657167D01*
X78243393Y-81657167D01*
X78243393Y-82907155D01*
G36*
X208467653Y-63857187D02*
G01*
X207217669Y-63857187D01*
X207217669Y-62607198D01*
X208467653Y-62607198D01*
X208467653Y-63857187D01*
G37*
X208467653Y-63857187D02*
X207217669Y-63857187D01*
X207217669Y-62607198D01*
X208467653Y-62607198D01*
X208467653Y-63857187D01*
G36*
X228258196Y-49792640D02*
G01*
X227231569Y-49792640D01*
X227231569Y-48253373D01*
X226718935Y-48253373D01*
X226718935Y-47740743D01*
X227231569Y-47740743D01*
X227231569Y-47228112D01*
X228258196Y-47228112D01*
X228258196Y-49792640D01*
G37*
X228258196Y-49792640D02*
X227231569Y-49792640D01*
X227231569Y-48253373D01*
X226718935Y-48253373D01*
X226718935Y-47740743D01*
X227231569Y-47740743D01*
X227231569Y-47228112D01*
X228258196Y-47228112D01*
X228258196Y-49792640D01*
G36*
X171617685Y-62607198D02*
G01*
X170367663Y-62607198D01*
X170367663Y-61357209D01*
X171617685Y-61357209D01*
X171617685Y-62607198D01*
G37*
X171617685Y-62607198D02*
X170367663Y-62607198D01*
X170367663Y-61357209D01*
X171617685Y-61357209D01*
X171617685Y-62607198D01*
G36*
X159440439Y-74157197D02*
G01*
X158190447Y-74157197D01*
X158190447Y-72907209D01*
X159440439Y-72907209D01*
X159440439Y-74157197D01*
G37*
X159440439Y-74157197D02*
X158190447Y-74157197D01*
X158190447Y-72907209D01*
X159440439Y-72907209D01*
X159440439Y-74157197D01*
G36*
X173493364Y-82907155D02*
G01*
X170995813Y-82907155D01*
X170995813Y-81657167D01*
X173493364Y-81657167D01*
X173493364Y-82907155D01*
G37*
X173493364Y-82907155D02*
X170995813Y-82907155D01*
X170995813Y-81657167D01*
X173493364Y-81657167D01*
X173493364Y-82907155D01*
G36*
X169117670Y-57607183D02*
G01*
X170367663Y-57607183D01*
X170367663Y-57607179D01*
X171617685Y-57607179D01*
X171617685Y-58857198D01*
X172867670Y-58857198D01*
X172867670Y-57607179D01*
X175367678Y-57607179D01*
X175367678Y-58857198D01*
X176617670Y-58857198D01*
X176617670Y-57607179D01*
X175367678Y-57607179D01*
X172867670Y-57607179D01*
X171617685Y-57607179D01*
X170367663Y-57607179D01*
X170367663Y-56357194D01*
X171617685Y-56357194D01*
X171617685Y-55107206D01*
X172867670Y-55107206D01*
X172867670Y-53857187D01*
X175367678Y-53857187D01*
X175367678Y-55107206D01*
X176617670Y-55107206D01*
X176617670Y-56357194D01*
X177867685Y-56357194D01*
X177867685Y-57607183D01*
X179117670Y-57607183D01*
X179117670Y-60107190D01*
X176617670Y-60107190D01*
X176617670Y-61357209D01*
X175367678Y-61357209D01*
X175367678Y-60107190D01*
X172867670Y-60107190D01*
X172867670Y-61357209D01*
X171617685Y-61357209D01*
X171617685Y-60107190D01*
X169117670Y-60107190D01*
X169117670Y-58857198D01*
X169117670Y-57607183D01*
G37*
X169117670Y-57607183D02*
X170367663Y-57607183D01*
X170367663Y-57607179D01*
X171617685Y-57607179D01*
X171617685Y-58857198D01*
X172867670Y-58857198D01*
X172867670Y-57607179D01*
X175367678Y-57607179D01*
X175367678Y-58857198D01*
X176617670Y-58857198D01*
X176617670Y-57607179D01*
X175367678Y-57607179D01*
X172867670Y-57607179D01*
X171617685Y-57607179D01*
X170367663Y-57607179D01*
X170367663Y-56357194D01*
X171617685Y-56357194D01*
X171617685Y-55107206D01*
X172867670Y-55107206D01*
X172867670Y-53857187D01*
X175367678Y-53857187D01*
X175367678Y-55107206D01*
X176617670Y-55107206D01*
X176617670Y-56357194D01*
X177867685Y-56357194D01*
X177867685Y-57607183D01*
X179117670Y-57607183D01*
X179117670Y-60107190D01*
X176617670Y-60107190D01*
X176617670Y-61357209D01*
X175367678Y-61357209D01*
X175367678Y-60107190D01*
X172867670Y-60107190D01*
X172867670Y-61357209D01*
X171617685Y-61357209D01*
X171617685Y-60107190D01*
X169117670Y-60107190D01*
X169117670Y-58857198D01*
X169117670Y-57607183D01*
G36*
X159346880Y-50063428D02*
G01*
X160284395Y-50063428D01*
X160284395Y-49125936D01*
X162159403Y-49125936D01*
X162159403Y-50063430D01*
X163096888Y-50063430D01*
X163096888Y-49125936D01*
X164971895Y-49125936D01*
X164971895Y-50063430D01*
X165909395Y-50063430D01*
X165909395Y-49125936D01*
X167784403Y-49125936D01*
X167784403Y-50063430D01*
X168721888Y-50063430D01*
X168721888Y-49125936D01*
X170596903Y-49125936D01*
X170596903Y-50063430D01*
X171534388Y-50063430D01*
X171534388Y-49125936D01*
X170596903Y-49125936D01*
X168721888Y-49125936D01*
X167784403Y-49125936D01*
X165909395Y-49125936D01*
X164971895Y-49125936D01*
X163096888Y-49125936D01*
X162159403Y-49125936D01*
X160284395Y-49125936D01*
X160284395Y-49125934D01*
X161221888Y-49125934D01*
X161221888Y-48188417D01*
X162159403Y-48188417D01*
X162159403Y-47250922D01*
X164034388Y-47250922D01*
X164034388Y-46313436D01*
X169659372Y-46313436D01*
X169659372Y-47250922D01*
X171534388Y-47250922D01*
X171534388Y-48188417D01*
X172471888Y-48188417D01*
X172471888Y-49125934D01*
X173409380Y-49125934D01*
X173409380Y-50063428D01*
X174346872Y-50063428D01*
X174346872Y-51000923D01*
X172471888Y-51000923D01*
X172471888Y-51938440D01*
X171534388Y-51938440D01*
X171534388Y-52875934D01*
X170596895Y-52875934D01*
X170596895Y-51938440D01*
X169659372Y-51938440D01*
X169659372Y-51000923D01*
X167784403Y-51000923D01*
X167784403Y-51938440D01*
X165909395Y-51938440D01*
X165909395Y-51000923D01*
X164034388Y-51000923D01*
X164034388Y-51938440D01*
X163096888Y-51938440D01*
X163096888Y-52875934D01*
X162159403Y-52875934D01*
X162159403Y-51938440D01*
X161221888Y-51938440D01*
X161221888Y-51000923D01*
X159346880Y-51000923D01*
X159346880Y-50063430D01*
X159346880Y-50063428D01*
G37*
X159346880Y-50063428D02*
X160284395Y-50063428D01*
X160284395Y-49125936D01*
X162159403Y-49125936D01*
X162159403Y-50063430D01*
X163096888Y-50063430D01*
X163096888Y-49125936D01*
X164971895Y-49125936D01*
X164971895Y-50063430D01*
X165909395Y-50063430D01*
X165909395Y-49125936D01*
X167784403Y-49125936D01*
X167784403Y-50063430D01*
X168721888Y-50063430D01*
X168721888Y-49125936D01*
X170596903Y-49125936D01*
X170596903Y-50063430D01*
X171534388Y-50063430D01*
X171534388Y-49125936D01*
X170596903Y-49125936D01*
X168721888Y-49125936D01*
X167784403Y-49125936D01*
X165909395Y-49125936D01*
X164971895Y-49125936D01*
X163096888Y-49125936D01*
X162159403Y-49125936D01*
X160284395Y-49125936D01*
X160284395Y-49125934D01*
X161221888Y-49125934D01*
X161221888Y-48188417D01*
X162159403Y-48188417D01*
X162159403Y-47250922D01*
X164034388Y-47250922D01*
X164034388Y-46313436D01*
X169659372Y-46313436D01*
X169659372Y-47250922D01*
X171534388Y-47250922D01*
X171534388Y-48188417D01*
X172471888Y-48188417D01*
X172471888Y-49125934D01*
X173409380Y-49125934D01*
X173409380Y-50063428D01*
X174346872Y-50063428D01*
X174346872Y-51000923D01*
X172471888Y-51000923D01*
X172471888Y-51938440D01*
X171534388Y-51938440D01*
X171534388Y-52875934D01*
X170596895Y-52875934D01*
X170596895Y-51938440D01*
X169659372Y-51938440D01*
X169659372Y-51000923D01*
X167784403Y-51000923D01*
X167784403Y-51938440D01*
X165909395Y-51938440D01*
X165909395Y-51000923D01*
X164034388Y-51000923D01*
X164034388Y-51938440D01*
X163096888Y-51938440D01*
X163096888Y-52875934D01*
X162159403Y-52875934D01*
X162159403Y-51938440D01*
X161221888Y-51938440D01*
X161221888Y-51000923D01*
X159346880Y-51000923D01*
X159346880Y-50063430D01*
X159346880Y-50063428D01*
G36*
X83240448Y-74157197D02*
G01*
X81990463Y-74157197D01*
X81990463Y-72907209D01*
X83240448Y-72907209D01*
X83240448Y-74157197D01*
G37*
X83240448Y-74157197D02*
X81990463Y-74157197D01*
X81990463Y-72907209D01*
X83240448Y-72907209D01*
X83240448Y-74157197D01*
G36*
X154443369Y-82907155D02*
G01*
X151945818Y-82907155D01*
X151945818Y-81657167D01*
X154443369Y-81657167D01*
X154443369Y-82907155D01*
G37*
X154443369Y-82907155D02*
X151945818Y-82907155D01*
X151945818Y-81657167D01*
X154443369Y-81657167D01*
X154443369Y-82907155D01*
G36*
X177867685Y-62607198D02*
G01*
X176617670Y-62607198D01*
X176617670Y-61357209D01*
X177867685Y-61357209D01*
X177867685Y-62607198D01*
G37*
X177867685Y-62607198D02*
X176617670Y-62607198D01*
X176617670Y-61357209D01*
X177867685Y-61357209D01*
X177867685Y-62607198D01*
G36*
X131017672Y-57607183D02*
G01*
X132267649Y-57607183D01*
X132267649Y-57607179D01*
X133517672Y-57607179D01*
X133517672Y-58857198D01*
X134767664Y-58857198D01*
X134767664Y-57607179D01*
X137267672Y-57607179D01*
X137267672Y-58857198D01*
X138517664Y-58857198D01*
X138517664Y-57607179D01*
X137267672Y-57607179D01*
X134767664Y-57607179D01*
X133517672Y-57607179D01*
X132267649Y-57607179D01*
X132267649Y-56357194D01*
X133517672Y-56357194D01*
X133517672Y-55107206D01*
X134767664Y-55107206D01*
X134767664Y-53857187D01*
X137267679Y-53857187D01*
X137267679Y-55107206D01*
X138517672Y-55107206D01*
X138517672Y-56357194D01*
X139767694Y-56357194D01*
X139767694Y-57607183D01*
X141017687Y-57607183D01*
X141017687Y-60107190D01*
X138517672Y-60107190D01*
X138517672Y-61357209D01*
X139767687Y-61357209D01*
X139767687Y-62607198D01*
X138517664Y-62607198D01*
X138517664Y-61357209D01*
X137267679Y-61357209D01*
X137267679Y-60107190D01*
X134767664Y-60107190D01*
X134767664Y-61357209D01*
X137267672Y-61357209D01*
X137267672Y-62607198D01*
X134767664Y-62607198D01*
X134767664Y-63857187D01*
X133517672Y-63857187D01*
X133517672Y-62607198D01*
X134767656Y-62607198D01*
X134767656Y-61357209D01*
X133517672Y-61357209D01*
X133517672Y-62607198D01*
X132267649Y-62607198D01*
X132267649Y-61357209D01*
X133517672Y-61357209D01*
X133517672Y-60107190D01*
X131017672Y-60107190D01*
X131017672Y-58857198D01*
X131017672Y-57607183D01*
G37*
X131017672Y-57607183D02*
X132267649Y-57607183D01*
X132267649Y-57607179D01*
X133517672Y-57607179D01*
X133517672Y-58857198D01*
X134767664Y-58857198D01*
X134767664Y-57607179D01*
X137267672Y-57607179D01*
X137267672Y-58857198D01*
X138517664Y-58857198D01*
X138517664Y-57607179D01*
X137267672Y-57607179D01*
X134767664Y-57607179D01*
X133517672Y-57607179D01*
X132267649Y-57607179D01*
X132267649Y-56357194D01*
X133517672Y-56357194D01*
X133517672Y-55107206D01*
X134767664Y-55107206D01*
X134767664Y-53857187D01*
X137267679Y-53857187D01*
X137267679Y-55107206D01*
X138517672Y-55107206D01*
X138517672Y-56357194D01*
X139767694Y-56357194D01*
X139767694Y-57607183D01*
X141017687Y-57607183D01*
X141017687Y-60107190D01*
X138517672Y-60107190D01*
X138517672Y-61357209D01*
X139767687Y-61357209D01*
X139767687Y-62607198D01*
X138517664Y-62607198D01*
X138517664Y-61357209D01*
X137267679Y-61357209D01*
X137267679Y-60107190D01*
X134767664Y-60107190D01*
X134767664Y-61357209D01*
X137267672Y-61357209D01*
X137267672Y-62607198D01*
X134767664Y-62607198D01*
X134767664Y-63857187D01*
X133517672Y-63857187D01*
X133517672Y-62607198D01*
X134767656Y-62607198D01*
X134767656Y-61357209D01*
X133517672Y-61357209D01*
X133517672Y-62607198D01*
X132267649Y-62607198D01*
X132267649Y-61357209D01*
X133517672Y-61357209D01*
X133517672Y-60107190D01*
X131017672Y-60107190D01*
X131017672Y-58857198D01*
X131017672Y-57607183D01*
G36*
X52317705Y-94457567D02*
G01*
X53567690Y-94457567D01*
X53567690Y-93207544D01*
X57317674Y-93207544D01*
X57317674Y-91957551D01*
X62317674Y-91957551D01*
X62317674Y-93207544D01*
X66067659Y-93207544D01*
X66067659Y-94457559D01*
X67317643Y-94457559D01*
X67317643Y-98207544D01*
X66067659Y-98207544D01*
X66067659Y-98207170D01*
X64817674Y-98207170D01*
X64817674Y-99456804D01*
X66067659Y-99456804D01*
X66067659Y-100706827D01*
X64817674Y-100706827D01*
X64817674Y-101956819D01*
X62317674Y-101956819D01*
X62317674Y-100706827D01*
X63567658Y-100706827D01*
X63567658Y-99457193D01*
X61067689Y-99457193D01*
X61067689Y-100706827D01*
X58567690Y-100706827D01*
X58567690Y-99457193D01*
X56067690Y-99457193D01*
X56067690Y-100706827D01*
X57317674Y-100706827D01*
X57317674Y-101956834D01*
X54817705Y-101956834D01*
X54817705Y-100706842D01*
X53567690Y-100706842D01*
X53567690Y-99456819D01*
X54817705Y-99456819D01*
X54817705Y-99456811D01*
X54817705Y-98207185D01*
X52317705Y-98207185D01*
X52317705Y-98207177D01*
X58567690Y-98207177D01*
X58567690Y-99456811D01*
X61067689Y-99456811D01*
X61067689Y-98207177D01*
X58567690Y-98207177D01*
X52317705Y-98207177D01*
X52317705Y-96957185D01*
X52317705Y-95707551D01*
X56067690Y-95707551D01*
X56067690Y-96957185D01*
X58567690Y-96957185D01*
X58567690Y-95707551D01*
X61067704Y-95707551D01*
X61067704Y-96957185D01*
X63567674Y-96957185D01*
X63567674Y-95707551D01*
X61067704Y-95707551D01*
X58567690Y-95707551D01*
X56067690Y-95707551D01*
X52317705Y-95707551D01*
X52317705Y-94457567D01*
G37*
X52317705Y-94457567D02*
X53567690Y-94457567D01*
X53567690Y-93207544D01*
X57317674Y-93207544D01*
X57317674Y-91957551D01*
X62317674Y-91957551D01*
X62317674Y-93207544D01*
X66067659Y-93207544D01*
X66067659Y-94457559D01*
X67317643Y-94457559D01*
X67317643Y-98207544D01*
X66067659Y-98207544D01*
X66067659Y-98207170D01*
X64817674Y-98207170D01*
X64817674Y-99456804D01*
X66067659Y-99456804D01*
X66067659Y-100706827D01*
X64817674Y-100706827D01*
X64817674Y-101956819D01*
X62317674Y-101956819D01*
X62317674Y-100706827D01*
X63567658Y-100706827D01*
X63567658Y-99457193D01*
X61067689Y-99457193D01*
X61067689Y-100706827D01*
X58567690Y-100706827D01*
X58567690Y-99457193D01*
X56067690Y-99457193D01*
X56067690Y-100706827D01*
X57317674Y-100706827D01*
X57317674Y-101956834D01*
X54817705Y-101956834D01*
X54817705Y-100706842D01*
X53567690Y-100706842D01*
X53567690Y-99456819D01*
X54817705Y-99456819D01*
X54817705Y-99456811D01*
X54817705Y-98207185D01*
X52317705Y-98207185D01*
X52317705Y-98207177D01*
X58567690Y-98207177D01*
X58567690Y-99456811D01*
X61067689Y-99456811D01*
X61067689Y-98207177D01*
X58567690Y-98207177D01*
X52317705Y-98207177D01*
X52317705Y-96957185D01*
X52317705Y-95707551D01*
X56067690Y-95707551D01*
X56067690Y-96957185D01*
X58567690Y-96957185D01*
X58567690Y-95707551D01*
X61067704Y-95707551D01*
X61067704Y-96957185D01*
X63567674Y-96957185D01*
X63567674Y-95707551D01*
X61067704Y-95707551D01*
X58567690Y-95707551D01*
X56067690Y-95707551D01*
X52317705Y-95707551D01*
X52317705Y-94457567D01*
G36*
X170367663Y-63857187D02*
G01*
X169117670Y-63857187D01*
X169117670Y-62607198D01*
X170367663Y-62607198D01*
X170367663Y-63857187D01*
G37*
X170367663Y-63857187D02*
X169117670Y-63857187D01*
X169117670Y-62607198D01*
X170367663Y-62607198D01*
X170367663Y-63857187D01*
G36*
X230643358Y-82907159D02*
G01*
X228145800Y-82907159D01*
X228145800Y-81657171D01*
X230643358Y-81657171D01*
X230643358Y-82907159D01*
G37*
X230643358Y-82907159D02*
X228145800Y-82907159D01*
X228145800Y-81657171D01*
X230643358Y-81657171D01*
X230643358Y-82907159D01*
G36*
X190667681Y-62607198D02*
G01*
X189417650Y-62607198D01*
X189417650Y-61357209D01*
X190667681Y-61357209D01*
X190667681Y-62607198D01*
G37*
X190667681Y-62607198D02*
X189417650Y-62607198D01*
X189417650Y-61357209D01*
X190667681Y-61357209D01*
X190667681Y-62607198D01*
G36*
X113217657Y-63857187D02*
G01*
X111967665Y-63857187D01*
X111967665Y-62607198D01*
X113217657Y-62607198D01*
X113217657Y-63857187D01*
G37*
X113217657Y-63857187D02*
X111967665Y-63857187D01*
X111967665Y-62607198D01*
X113217657Y-62607198D01*
X113217657Y-63857187D01*
G36*
X152567690Y-62607198D02*
G01*
X151317667Y-62607198D01*
X151317667Y-61357209D01*
X152567690Y-61357209D01*
X152567690Y-62607198D01*
G37*
X152567690Y-62607198D02*
X151317667Y-62607198D01*
X151317667Y-61357209D01*
X152567690Y-61357209D01*
X152567690Y-62607198D01*
G36*
X109467665Y-94457567D02*
G01*
X110717657Y-94457567D01*
X110717657Y-93207544D01*
X114467665Y-93207544D01*
X114467665Y-91957551D01*
X119467669Y-91957551D01*
X119467669Y-93207544D01*
X123217676Y-93207544D01*
X123217676Y-94457559D01*
X124467691Y-94457559D01*
X124467691Y-98207544D01*
X123217699Y-98207544D01*
X123217699Y-98207170D01*
X121967707Y-98207170D01*
X121967707Y-99456804D01*
X123217699Y-99456804D01*
X123217699Y-100706827D01*
X121967707Y-100706827D01*
X121967707Y-101956819D01*
X119467692Y-101956819D01*
X119467692Y-100706827D01*
X120717684Y-100706827D01*
X120717684Y-99457193D01*
X118217699Y-99457193D01*
X118217699Y-100706827D01*
X115717688Y-100706827D01*
X115717688Y-99457193D01*
X113217673Y-99457193D01*
X113217673Y-100706827D01*
X114467665Y-100706827D01*
X114467665Y-101956834D01*
X111967680Y-101956834D01*
X111967680Y-100706842D01*
X110717657Y-100706842D01*
X110717657Y-99456819D01*
X111967680Y-99456819D01*
X111967680Y-99456811D01*
X111967680Y-98207185D01*
X109467665Y-98207185D01*
X109467665Y-98207177D01*
X115717688Y-98207177D01*
X115717688Y-99456811D01*
X118217699Y-99456811D01*
X118217699Y-98207177D01*
X115717688Y-98207177D01*
X109467665Y-98207177D01*
X109467665Y-96957185D01*
X109467665Y-95707551D01*
X113217673Y-95707551D01*
X113217673Y-96957185D01*
X115717688Y-96957185D01*
X115717688Y-95707551D01*
X118217691Y-95707551D01*
X118217691Y-96957185D01*
X120717676Y-96957185D01*
X120717676Y-95707551D01*
X118217691Y-95707551D01*
X115717688Y-95707551D01*
X113217673Y-95707551D01*
X109467665Y-95707551D01*
X109467665Y-94457567D01*
G37*
X109467665Y-94457567D02*
X110717657Y-94457567D01*
X110717657Y-93207544D01*
X114467665Y-93207544D01*
X114467665Y-91957551D01*
X119467669Y-91957551D01*
X119467669Y-93207544D01*
X123217676Y-93207544D01*
X123217676Y-94457559D01*
X124467691Y-94457559D01*
X124467691Y-98207544D01*
X123217699Y-98207544D01*
X123217699Y-98207170D01*
X121967707Y-98207170D01*
X121967707Y-99456804D01*
X123217699Y-99456804D01*
X123217699Y-100706827D01*
X121967707Y-100706827D01*
X121967707Y-101956819D01*
X119467692Y-101956819D01*
X119467692Y-100706827D01*
X120717684Y-100706827D01*
X120717684Y-99457193D01*
X118217699Y-99457193D01*
X118217699Y-100706827D01*
X115717688Y-100706827D01*
X115717688Y-99457193D01*
X113217673Y-99457193D01*
X113217673Y-100706827D01*
X114467665Y-100706827D01*
X114467665Y-101956834D01*
X111967680Y-101956834D01*
X111967680Y-100706842D01*
X110717657Y-100706842D01*
X110717657Y-99456819D01*
X111967680Y-99456819D01*
X111967680Y-99456811D01*
X111967680Y-98207185D01*
X109467665Y-98207185D01*
X109467665Y-98207177D01*
X115717688Y-98207177D01*
X115717688Y-99456811D01*
X118217699Y-99456811D01*
X118217699Y-98207177D01*
X115717688Y-98207177D01*
X109467665Y-98207177D01*
X109467665Y-96957185D01*
X109467665Y-95707551D01*
X113217673Y-95707551D01*
X113217673Y-96957185D01*
X115717688Y-96957185D01*
X115717688Y-95707551D01*
X118217691Y-95707551D01*
X118217691Y-96957185D01*
X120717676Y-96957185D01*
X120717676Y-95707551D01*
X118217691Y-95707551D01*
X115717688Y-95707551D01*
X113217673Y-95707551D01*
X109467665Y-95707551D01*
X109467665Y-94457567D01*
G36*
X229541155Y-49280010D02*
G01*
X229028521Y-49280010D01*
X229028521Y-47740743D01*
X229541155Y-47740743D01*
X230053789Y-47740743D01*
X230053789Y-49280010D01*
X231593050Y-49280010D01*
X231593050Y-47740743D01*
X230053789Y-47740743D01*
X229541155Y-47740743D01*
X229541155Y-47228112D01*
X232107058Y-47228112D01*
X232107058Y-47740743D01*
X232619692Y-47740743D01*
X232619692Y-49280010D01*
X232107058Y-49280010D01*
X232107058Y-49792640D01*
X229541155Y-49792640D01*
X229541155Y-49280010D01*
G37*
X229541155Y-49280010D02*
X229028521Y-49280010D01*
X229028521Y-47740743D01*
X229541155Y-47740743D01*
X230053789Y-47740743D01*
X230053789Y-49280010D01*
X231593050Y-49280010D01*
X231593050Y-47740743D01*
X230053789Y-47740743D01*
X229541155Y-47740743D01*
X229541155Y-47228112D01*
X232107058Y-47228112D01*
X232107058Y-47740743D01*
X232619692Y-47740743D01*
X232619692Y-49280010D01*
X232107058Y-49280010D01*
X232107058Y-49792640D01*
X229541155Y-49792640D01*
X229541155Y-49280010D01*
G36*
X138517664Y-63857187D02*
G01*
X137267672Y-63857187D01*
X137267672Y-62607198D01*
X138517664Y-62607198D01*
X138517664Y-63857187D01*
G37*
X138517664Y-63857187D02*
X137267672Y-63857187D01*
X137267672Y-62607198D01*
X138517664Y-62607198D01*
X138517664Y-63857187D01*
G36*
X191917666Y-63857187D02*
G01*
X190667681Y-63857187D01*
X190667681Y-62607198D01*
X191917666Y-62607198D01*
X191917666Y-63857187D01*
G37*
X191917666Y-63857187D02*
X190667681Y-63857187D01*
X190667681Y-62607198D01*
X191917666Y-62607198D01*
X191917666Y-63857187D01*
G36*
X194417665Y-62607198D02*
G01*
X191917666Y-62607198D01*
X191917666Y-61357209D01*
X194417665Y-61357209D01*
X194417665Y-62607198D01*
G37*
X194417665Y-62607198D02*
X191917666Y-62607198D01*
X191917666Y-61357209D01*
X194417665Y-61357209D01*
X194417665Y-62607198D01*
G36*
X160067675Y-63857187D02*
G01*
X158817690Y-63857187D01*
X158817690Y-62607198D01*
X160067675Y-62607198D01*
X160067675Y-63857187D01*
G37*
X160067675Y-63857187D02*
X158817690Y-63857187D01*
X158817690Y-62607198D01*
X160067675Y-62607198D01*
X160067675Y-63857187D01*
G36*
X71367706Y-94457567D02*
G01*
X72617691Y-94457567D01*
X72617691Y-93207544D01*
X76367676Y-93207544D01*
X76367676Y-91957551D01*
X81367676Y-91957551D01*
X81367676Y-93207544D01*
X85117659Y-93207544D01*
X85117659Y-94457559D01*
X86367644Y-94457559D01*
X86367644Y-98207544D01*
X85117659Y-98207544D01*
X85117659Y-98207170D01*
X83867676Y-98207170D01*
X83867676Y-99456804D01*
X85117659Y-99456804D01*
X85117659Y-100706827D01*
X83867676Y-100706827D01*
X83867676Y-101956819D01*
X81367676Y-101956819D01*
X81367676Y-100706827D01*
X82617661Y-100706827D01*
X82617661Y-99457193D01*
X80117691Y-99457193D01*
X80117691Y-100706827D01*
X77617691Y-100706827D01*
X77617691Y-99457193D01*
X75117691Y-99457193D01*
X75117691Y-100706827D01*
X76367676Y-100706827D01*
X76367676Y-101956834D01*
X73867706Y-101956834D01*
X73867706Y-100706842D01*
X72617691Y-100706842D01*
X72617691Y-99456819D01*
X73867706Y-99456819D01*
X73867706Y-99456811D01*
X73867706Y-98207185D01*
X71367706Y-98207185D01*
X71367706Y-98207177D01*
X77617691Y-98207177D01*
X77617691Y-99456811D01*
X80117691Y-99456811D01*
X80117691Y-98207177D01*
X77617691Y-98207177D01*
X71367706Y-98207177D01*
X71367706Y-96957185D01*
X71367706Y-95707551D01*
X75117691Y-95707551D01*
X75117691Y-96957185D01*
X77617691Y-96957185D01*
X77617691Y-95707551D01*
X80117706Y-95707551D01*
X80117706Y-96957185D01*
X82617676Y-96957185D01*
X82617676Y-95707551D01*
X80117706Y-95707551D01*
X77617691Y-95707551D01*
X75117691Y-95707551D01*
X71367706Y-95707551D01*
X71367706Y-94457567D01*
G37*
X71367706Y-94457567D02*
X72617691Y-94457567D01*
X72617691Y-93207544D01*
X76367676Y-93207544D01*
X76367676Y-91957551D01*
X81367676Y-91957551D01*
X81367676Y-93207544D01*
X85117659Y-93207544D01*
X85117659Y-94457559D01*
X86367644Y-94457559D01*
X86367644Y-98207544D01*
X85117659Y-98207544D01*
X85117659Y-98207170D01*
X83867676Y-98207170D01*
X83867676Y-99456804D01*
X85117659Y-99456804D01*
X85117659Y-100706827D01*
X83867676Y-100706827D01*
X83867676Y-101956819D01*
X81367676Y-101956819D01*
X81367676Y-100706827D01*
X82617661Y-100706827D01*
X82617661Y-99457193D01*
X80117691Y-99457193D01*
X80117691Y-100706827D01*
X77617691Y-100706827D01*
X77617691Y-99457193D01*
X75117691Y-99457193D01*
X75117691Y-100706827D01*
X76367676Y-100706827D01*
X76367676Y-101956834D01*
X73867706Y-101956834D01*
X73867706Y-100706842D01*
X72617691Y-100706842D01*
X72617691Y-99456819D01*
X73867706Y-99456819D01*
X73867706Y-99456811D01*
X73867706Y-98207185D01*
X71367706Y-98207185D01*
X71367706Y-98207177D01*
X77617691Y-98207177D01*
X77617691Y-99456811D01*
X80117691Y-99456811D01*
X80117691Y-98207177D01*
X77617691Y-98207177D01*
X71367706Y-98207177D01*
X71367706Y-96957185D01*
X71367706Y-95707551D01*
X75117691Y-95707551D01*
X75117691Y-96957185D01*
X77617691Y-96957185D01*
X77617691Y-95707551D01*
X80117706Y-95707551D01*
X80117706Y-96957185D01*
X82617676Y-96957185D01*
X82617676Y-95707551D01*
X80117706Y-95707551D01*
X77617691Y-95707551D01*
X75117691Y-95707551D01*
X71367706Y-95707551D01*
X71367706Y-94457567D01*
G36*
X57317705Y-62607198D02*
G01*
X56067690Y-62607198D01*
X56067690Y-61357209D01*
X57317705Y-61357209D01*
X57317705Y-62607198D01*
G37*
X57317705Y-62607198D02*
X56067690Y-62607198D01*
X56067690Y-61357209D01*
X57317705Y-61357209D01*
X57317705Y-62607198D01*
G36*
X207217669Y-57607183D02*
G01*
X208467653Y-57607183D01*
X208467653Y-57607179D01*
X209717669Y-57607179D01*
X209717669Y-58857198D01*
X210967653Y-58857198D01*
X210967653Y-57607179D01*
X213467669Y-57607179D01*
X213467669Y-58857198D01*
X214717653Y-58857198D01*
X214717653Y-57607179D01*
X213467669Y-57607179D01*
X210967653Y-57607179D01*
X209717669Y-57607179D01*
X208467653Y-57607179D01*
X208467653Y-56357194D01*
X209717669Y-56357194D01*
X209717669Y-55107206D01*
X210967669Y-55107206D01*
X210967669Y-53857187D01*
X213467669Y-53857187D01*
X213467669Y-55107206D01*
X214717653Y-55107206D01*
X214717653Y-56357194D01*
X215967669Y-56357194D01*
X215967669Y-57607183D01*
X217217669Y-57607183D01*
X217217669Y-60107190D01*
X214717653Y-60107190D01*
X214717653Y-61357209D01*
X213467669Y-61357209D01*
X213467669Y-60107190D01*
X210967653Y-60107190D01*
X210967653Y-61357209D01*
X209717669Y-61357209D01*
X209717669Y-60107190D01*
X207217669Y-60107190D01*
X207217669Y-58857198D01*
X207217669Y-57607183D01*
G37*
X207217669Y-57607183D02*
X208467653Y-57607183D01*
X208467653Y-57607179D01*
X209717669Y-57607179D01*
X209717669Y-58857198D01*
X210967653Y-58857198D01*
X210967653Y-57607179D01*
X213467669Y-57607179D01*
X213467669Y-58857198D01*
X214717653Y-58857198D01*
X214717653Y-57607179D01*
X213467669Y-57607179D01*
X210967653Y-57607179D01*
X209717669Y-57607179D01*
X208467653Y-57607179D01*
X208467653Y-56357194D01*
X209717669Y-56357194D01*
X209717669Y-55107206D01*
X210967669Y-55107206D01*
X210967669Y-53857187D01*
X213467669Y-53857187D01*
X213467669Y-55107206D01*
X214717653Y-55107206D01*
X214717653Y-56357194D01*
X215967669Y-56357194D01*
X215967669Y-57607183D01*
X217217669Y-57607183D01*
X217217669Y-60107190D01*
X214717653Y-60107190D01*
X214717653Y-61357209D01*
X213467669Y-61357209D01*
X213467669Y-60107190D01*
X210967653Y-60107190D01*
X210967653Y-61357209D01*
X209717669Y-61357209D01*
X209717669Y-60107190D01*
X207217669Y-60107190D01*
X207217669Y-58857198D01*
X207217669Y-57607183D01*
G36*
X188167666Y-57607183D02*
G01*
X189417650Y-57607183D01*
X189417650Y-57607179D01*
X190667681Y-57607179D01*
X190667681Y-58857198D01*
X191917666Y-58857198D01*
X191917666Y-57607179D01*
X194417665Y-57607179D01*
X194417665Y-58857198D01*
X195667650Y-58857198D01*
X195667650Y-57607179D01*
X194417665Y-57607179D01*
X191917666Y-57607179D01*
X190667681Y-57607179D01*
X189417650Y-57607179D01*
X189417650Y-56357194D01*
X190667681Y-56357194D01*
X190667681Y-55107206D01*
X191917666Y-55107206D01*
X191917666Y-53857187D01*
X194417665Y-53857187D01*
X194417665Y-55107206D01*
X195667650Y-55107206D01*
X195667650Y-56357194D01*
X196917681Y-56357194D01*
X196917681Y-57607183D01*
X198167666Y-57607183D01*
X198167666Y-60107190D01*
X195667650Y-60107190D01*
X195667650Y-61357209D01*
X194417665Y-61357209D01*
X194417665Y-60107190D01*
X191917666Y-60107190D01*
X191917666Y-61357209D01*
X190667681Y-61357209D01*
X190667681Y-60107190D01*
X188167666Y-60107190D01*
X188167666Y-58857198D01*
X188167666Y-57607183D01*
G37*
X188167666Y-57607183D02*
X189417650Y-57607183D01*
X189417650Y-57607179D01*
X190667681Y-57607179D01*
X190667681Y-58857198D01*
X191917666Y-58857198D01*
X191917666Y-57607179D01*
X194417665Y-57607179D01*
X194417665Y-58857198D01*
X195667650Y-58857198D01*
X195667650Y-57607179D01*
X194417665Y-57607179D01*
X191917666Y-57607179D01*
X190667681Y-57607179D01*
X189417650Y-57607179D01*
X189417650Y-56357194D01*
X190667681Y-56357194D01*
X190667681Y-55107206D01*
X191917666Y-55107206D01*
X191917666Y-53857187D01*
X194417665Y-53857187D01*
X194417665Y-55107206D01*
X195667650Y-55107206D01*
X195667650Y-56357194D01*
X196917681Y-56357194D01*
X196917681Y-57607183D01*
X198167666Y-57607183D01*
X198167666Y-60107190D01*
X195667650Y-60107190D01*
X195667650Y-61357209D01*
X194417665Y-61357209D01*
X194417665Y-60107190D01*
X191917666Y-60107190D01*
X191917666Y-61357209D01*
X190667681Y-61357209D01*
X190667681Y-60107190D01*
X188167666Y-60107190D01*
X188167666Y-58857198D01*
X188167666Y-57607183D01*
G36*
X151317667Y-63857187D02*
G01*
X150067682Y-63857187D01*
X150067682Y-62607198D01*
X151317667Y-62607198D01*
X151317667Y-63857187D01*
G37*
X151317667Y-63857187D02*
X150067682Y-63857187D01*
X150067682Y-62607198D01*
X151317667Y-62607198D01*
X151317667Y-63857187D01*
G36*
X100417669Y-63857187D02*
G01*
X99167692Y-63857187D01*
X99167692Y-62607198D01*
X100417669Y-62607198D01*
X100417669Y-63857187D01*
G37*
X100417669Y-63857187D02*
X99167692Y-63857187D01*
X99167692Y-62607198D01*
X100417669Y-62607198D01*
X100417669Y-63857187D01*
G36*
X220049227Y-47740743D02*
G01*
X219022600Y-47740743D01*
X219022600Y-46714105D01*
X220049227Y-46714105D01*
X220049227Y-47740743D01*
G37*
X220049227Y-47740743D02*
X219022600Y-47740743D01*
X219022600Y-46714105D01*
X220049227Y-46714105D01*
X220049227Y-47740743D01*
G36*
X56067690Y-63857187D02*
G01*
X54817705Y-63857187D01*
X54817705Y-62607198D01*
X56067690Y-62607198D01*
X56067690Y-63857187D01*
G37*
X56067690Y-63857187D02*
X54817705Y-63857187D01*
X54817705Y-62607198D01*
X56067690Y-62607198D01*
X56067690Y-63857187D01*
G36*
X225645342Y-77907190D02*
G01*
X225645342Y-76657201D01*
X226895357Y-76657201D01*
X228145800Y-76657201D01*
X228145800Y-77907190D01*
X229393328Y-77907190D01*
X229393328Y-76657201D01*
X233143328Y-76657201D01*
X233143328Y-77907190D01*
X234390886Y-77907190D01*
X234390886Y-76657201D01*
X233143328Y-76657201D01*
X229393328Y-76657201D01*
X228145800Y-76657201D01*
X226895357Y-76657201D01*
X226895357Y-75407182D01*
X228145357Y-75407182D01*
X228145357Y-74157201D01*
X229394869Y-74157201D01*
X229394869Y-75407182D01*
X233139956Y-75407182D01*
X233139956Y-74157201D01*
X234389971Y-74157201D01*
X234389971Y-75407182D01*
X235639971Y-75407182D01*
X235639971Y-76657201D01*
X236889971Y-76657201D01*
X236889971Y-77907190D01*
X238139971Y-77907190D01*
X238139971Y-81657171D01*
X236889986Y-81657171D01*
X236889986Y-79157171D01*
X235639971Y-79157171D01*
X235639971Y-80407190D01*
X235637972Y-80407190D01*
X235637972Y-81657171D01*
X234388430Y-81657171D01*
X234388430Y-82907159D01*
X231890886Y-82907159D01*
X231890886Y-81657171D01*
X234387987Y-81657171D01*
X234387987Y-80407190D01*
X228145357Y-80407190D01*
X228145357Y-81657171D01*
X226895373Y-81657171D01*
X226895373Y-79157171D01*
X225645342Y-79157171D01*
X225645342Y-81657171D01*
X224395372Y-81657171D01*
X224395372Y-77907190D01*
X225645342Y-77907190D01*
G37*
X225645342Y-77907190D02*
X225645342Y-76657201D01*
X226895357Y-76657201D01*
X228145800Y-76657201D01*
X228145800Y-77907190D01*
X229393328Y-77907190D01*
X229393328Y-76657201D01*
X233143328Y-76657201D01*
X233143328Y-77907190D01*
X234390886Y-77907190D01*
X234390886Y-76657201D01*
X233143328Y-76657201D01*
X229393328Y-76657201D01*
X228145800Y-76657201D01*
X226895357Y-76657201D01*
X226895357Y-75407182D01*
X228145357Y-75407182D01*
X228145357Y-74157201D01*
X229394869Y-74157201D01*
X229394869Y-75407182D01*
X233139956Y-75407182D01*
X233139956Y-74157201D01*
X234389971Y-74157201D01*
X234389971Y-75407182D01*
X235639971Y-75407182D01*
X235639971Y-76657201D01*
X236889971Y-76657201D01*
X236889971Y-77907190D01*
X238139971Y-77907190D01*
X238139971Y-81657171D01*
X236889986Y-81657171D01*
X236889986Y-79157171D01*
X235639971Y-79157171D01*
X235639971Y-80407190D01*
X235637972Y-80407190D01*
X235637972Y-81657171D01*
X234388430Y-81657171D01*
X234388430Y-82907159D01*
X231890886Y-82907159D01*
X231890886Y-81657171D01*
X234387987Y-81657171D01*
X234387987Y-80407190D01*
X228145357Y-80407190D01*
X228145357Y-81657171D01*
X226895373Y-81657171D01*
X226895373Y-79157171D01*
X225645342Y-79157171D01*
X225645342Y-81657171D01*
X224395372Y-81657171D01*
X224395372Y-77907190D01*
X225645342Y-77907190D01*
G36*
X195667650Y-63857187D02*
G01*
X194417665Y-63857187D01*
X194417665Y-62607198D01*
X195667650Y-62607198D01*
X195667650Y-63857187D01*
G37*
X195667650Y-63857187D02*
X194417665Y-63857187D01*
X194417665Y-62607198D01*
X195667650Y-62607198D01*
X195667650Y-63857187D01*
G36*
X226267672Y-57607183D02*
G01*
X227517657Y-57607183D01*
X227517657Y-57607179D01*
X228767672Y-57607179D01*
X228767672Y-58857198D01*
X230017656Y-58857198D01*
X230017656Y-57607179D01*
X232517672Y-57607179D01*
X232517672Y-58857198D01*
X233767656Y-58857198D01*
X233767656Y-57607179D01*
X232517672Y-57607179D01*
X230017656Y-57607179D01*
X228767672Y-57607179D01*
X227517657Y-57607179D01*
X227517657Y-56357194D01*
X228767672Y-56357194D01*
X228767672Y-55107206D01*
X230017656Y-55107206D01*
X230017656Y-53857187D01*
X232517672Y-53857187D01*
X232517672Y-55107206D01*
X233767656Y-55107206D01*
X233767656Y-56357194D01*
X235017672Y-56357194D01*
X235017672Y-57607183D01*
X236267672Y-57607183D01*
X236267672Y-60107190D01*
X233767656Y-60107190D01*
X233767656Y-61357209D01*
X232517672Y-61357209D01*
X232517672Y-60107190D01*
X230017656Y-60107190D01*
X230017656Y-61357209D01*
X228767672Y-61357209D01*
X228767672Y-60107190D01*
X226267672Y-60107190D01*
X226267672Y-58857198D01*
X226267672Y-57607183D01*
G37*
X226267672Y-57607183D02*
X227517657Y-57607183D01*
X227517657Y-57607179D01*
X228767672Y-57607179D01*
X228767672Y-58857198D01*
X230017656Y-58857198D01*
X230017656Y-57607179D01*
X232517672Y-57607179D01*
X232517672Y-58857198D01*
X233767656Y-58857198D01*
X233767656Y-57607179D01*
X232517672Y-57607179D01*
X230017656Y-57607179D01*
X228767672Y-57607179D01*
X227517657Y-57607179D01*
X227517657Y-56357194D01*
X228767672Y-56357194D01*
X228767672Y-55107206D01*
X230017656Y-55107206D01*
X230017656Y-53857187D01*
X232517672Y-53857187D01*
X232517672Y-55107206D01*
X233767656Y-55107206D01*
X233767656Y-56357194D01*
X235017672Y-56357194D01*
X235017672Y-57607183D01*
X236267672Y-57607183D01*
X236267672Y-60107190D01*
X233767656Y-60107190D01*
X233767656Y-61357209D01*
X232517672Y-61357209D01*
X232517672Y-60107190D01*
X230017656Y-60107190D01*
X230017656Y-61357209D01*
X228767672Y-61357209D01*
X228767672Y-60107190D01*
X226267672Y-60107190D01*
X226267672Y-58857198D01*
X226267672Y-57607183D01*
G36*
X218617647Y-114235971D02*
G01*
X219555163Y-114235971D01*
X219555163Y-115173494D01*
X220492647Y-115173494D01*
X220492647Y-116110986D01*
X221430163Y-116110986D01*
X221430163Y-117048478D01*
X221430147Y-117048478D01*
X221430147Y-117986001D01*
X221430163Y-117986001D01*
X221430163Y-122673509D01*
X217680162Y-122673509D01*
X217680162Y-121735986D01*
X216742663Y-121735986D01*
X216742663Y-120798509D01*
X215805147Y-120798509D01*
X215805147Y-119861017D01*
X209242663Y-119861017D01*
X209242663Y-120798509D01*
X208305147Y-120798509D01*
X208305147Y-121735986D01*
X207367663Y-121735986D01*
X207367663Y-122673509D01*
X203617662Y-122673509D01*
X203617662Y-116110986D01*
X204555163Y-116110986D01*
X204555163Y-115173494D01*
X205492647Y-115173494D01*
X205492647Y-114235978D01*
X206430163Y-114235978D01*
X206430163Y-113298486D01*
X207367647Y-113298478D01*
X218617647Y-113298478D01*
X218617647Y-114235971D01*
G37*
X218617647Y-114235971D02*
X219555163Y-114235971D01*
X219555163Y-115173494D01*
X220492647Y-115173494D01*
X220492647Y-116110986D01*
X221430163Y-116110986D01*
X221430163Y-117048478D01*
X221430147Y-117048478D01*
X221430147Y-117986001D01*
X221430163Y-117986001D01*
X221430163Y-122673509D01*
X217680162Y-122673509D01*
X217680162Y-121735986D01*
X216742663Y-121735986D01*
X216742663Y-120798509D01*
X215805147Y-120798509D01*
X215805147Y-119861017D01*
X209242663Y-119861017D01*
X209242663Y-120798509D01*
X208305147Y-120798509D01*
X208305147Y-121735986D01*
X207367663Y-121735986D01*
X207367663Y-122673509D01*
X203617662Y-122673509D01*
X203617662Y-116110986D01*
X204555163Y-116110986D01*
X204555163Y-115173494D01*
X205492647Y-115173494D01*
X205492647Y-114235978D01*
X206430163Y-114235978D01*
X206430163Y-113298486D01*
X207367647Y-113298478D01*
X218617647Y-113298478D01*
X218617647Y-114235971D01*
G36*
X240830034Y-46201474D02*
G01*
X241342669Y-46201474D01*
X241342669Y-47228112D01*
X240830034Y-47228112D01*
X240830034Y-47740743D01*
X238776751Y-47740743D01*
X238776751Y-49280010D01*
X240316027Y-49280010D01*
X240316027Y-48767379D01*
X241342669Y-48767379D01*
X241342669Y-49280010D01*
X240830034Y-49280010D01*
X240830034Y-49792640D01*
X238264132Y-49792640D01*
X238264132Y-49280010D01*
X237751497Y-49280010D01*
X237751497Y-47740743D01*
X238264132Y-47740743D01*
X238264132Y-47228112D01*
X240316027Y-47228112D01*
X240316027Y-46201474D01*
X238776751Y-46201474D01*
X238776751Y-46714105D01*
X237751497Y-46714105D01*
X237751497Y-46201474D01*
X238264132Y-46201474D01*
X238264132Y-45688844D01*
X240830034Y-45688844D01*
X240830034Y-46201474D01*
G37*
X240830034Y-46201474D02*
X241342669Y-46201474D01*
X241342669Y-47228112D01*
X240830034Y-47228112D01*
X240830034Y-47740743D01*
X238776751Y-47740743D01*
X238776751Y-49280010D01*
X240316027Y-49280010D01*
X240316027Y-48767379D01*
X241342669Y-48767379D01*
X241342669Y-49280010D01*
X240830034Y-49280010D01*
X240830034Y-49792640D01*
X238264132Y-49792640D01*
X238264132Y-49280010D01*
X237751497Y-49280010D01*
X237751497Y-47740743D01*
X238264132Y-47740743D01*
X238264132Y-47228112D01*
X240316027Y-47228112D01*
X240316027Y-46201474D01*
X238776751Y-46201474D01*
X238776751Y-46714105D01*
X237751497Y-46714105D01*
X237751497Y-46201474D01*
X238264132Y-46201474D01*
X238264132Y-45688844D01*
X240830034Y-45688844D01*
X240830034Y-46201474D01*
G36*
X236267656Y-63857187D02*
G01*
X235017672Y-63857187D01*
X235017672Y-62607198D01*
X236267656Y-62607198D01*
X236267656Y-63857187D01*
G37*
X236267656Y-63857187D02*
X235017672Y-63857187D01*
X235017672Y-62607198D01*
X236267656Y-62607198D01*
X236267656Y-63857187D01*
G36*
X102917677Y-63857187D02*
G01*
X101667700Y-63857187D01*
X101667700Y-62607198D01*
X102917677Y-62607198D01*
X102917677Y-63857187D01*
G37*
X102917677Y-63857187D02*
X101667700Y-63857187D01*
X101667700Y-62607198D01*
X102917677Y-62607198D01*
X102917677Y-63857187D01*
G36*
X121967669Y-63857187D02*
G01*
X120717692Y-63857187D01*
X120717692Y-62607198D01*
X121967669Y-62607198D01*
X121967669Y-63857187D01*
G37*
X121967669Y-63857187D02*
X120717692Y-63857187D01*
X120717692Y-62607198D01*
X121967669Y-62607198D01*
X121967669Y-63857187D01*
G36*
X96667677Y-63857187D02*
G01*
X95417692Y-63857187D01*
X95417692Y-62607198D01*
X96667677Y-62607198D01*
X96667677Y-63857187D01*
G37*
X96667677Y-63857187D02*
X95417692Y-63857187D01*
X95417692Y-62607198D01*
X96667677Y-62607198D01*
X96667677Y-63857187D01*
G36*
X94167677Y-63857187D02*
G01*
X92917692Y-63857187D01*
X92917692Y-62607198D01*
X94167677Y-62607198D01*
X94167677Y-63857187D01*
G37*
X94167677Y-63857187D02*
X92917692Y-63857187D01*
X92917692Y-62607198D01*
X94167677Y-62607198D01*
X94167677Y-63857187D01*
G36*
X228767672Y-62607198D02*
G01*
X227517657Y-62607198D01*
X227517657Y-61357209D01*
X228767672Y-61357209D01*
X228767672Y-62607198D01*
G37*
X228767672Y-62607198D02*
X227517657Y-62607198D01*
X227517657Y-61357209D01*
X228767672Y-61357209D01*
X228767672Y-62607198D01*
G36*
X232517672Y-62607198D02*
G01*
X230017656Y-62607198D01*
X230017656Y-61357209D01*
X232517672Y-61357209D01*
X232517672Y-62607198D01*
G37*
X232517672Y-62607198D02*
X230017656Y-62607198D01*
X230017656Y-61357209D01*
X232517672Y-61357209D01*
X232517672Y-62607198D01*
G36*
X92295363Y-77907186D02*
G01*
X92295363Y-76657197D01*
X93545378Y-76657197D01*
X94795805Y-76657197D01*
X94795805Y-77907186D01*
X96043333Y-77907186D01*
X96043333Y-76657197D01*
X99793325Y-76657197D01*
X99793325Y-77907186D01*
X101040884Y-77907186D01*
X101040884Y-76657197D01*
X99793325Y-76657197D01*
X96043333Y-76657197D01*
X94795805Y-76657197D01*
X93545378Y-76657197D01*
X93545378Y-75407178D01*
X94795363Y-75407178D01*
X94795363Y-74157197D01*
X96044874Y-74157197D01*
X96044874Y-75407178D01*
X99789961Y-75407178D01*
X99789961Y-74157197D01*
X101039984Y-74157197D01*
X101039984Y-75407178D01*
X102289976Y-75407178D01*
X102289976Y-76657197D01*
X103539984Y-76657197D01*
X103539984Y-77907186D01*
X104789976Y-77907186D01*
X104789976Y-81657167D01*
X103539999Y-81657167D01*
X103539999Y-79157167D01*
X102289976Y-79157167D01*
X102289976Y-80407186D01*
X102287977Y-80407186D01*
X102287977Y-81657167D01*
X101038443Y-81657167D01*
X101038450Y-82907155D01*
X98540899Y-82907155D01*
X98540899Y-81657167D01*
X101038000Y-81657167D01*
X101038000Y-80407186D01*
X94795363Y-80407186D01*
X94795363Y-81657167D01*
X93545378Y-81657167D01*
X93545378Y-79157167D01*
X92295363Y-79157167D01*
X92295363Y-81657167D01*
X91045378Y-81657167D01*
X91045378Y-77907186D01*
X92295363Y-77907186D01*
G37*
X92295363Y-77907186D02*
X92295363Y-76657197D01*
X93545378Y-76657197D01*
X94795805Y-76657197D01*
X94795805Y-77907186D01*
X96043333Y-77907186D01*
X96043333Y-76657197D01*
X99793325Y-76657197D01*
X99793325Y-77907186D01*
X101040884Y-77907186D01*
X101040884Y-76657197D01*
X99793325Y-76657197D01*
X96043333Y-76657197D01*
X94795805Y-76657197D01*
X93545378Y-76657197D01*
X93545378Y-75407178D01*
X94795363Y-75407178D01*
X94795363Y-74157197D01*
X96044874Y-74157197D01*
X96044874Y-75407178D01*
X99789961Y-75407178D01*
X99789961Y-74157197D01*
X101039984Y-74157197D01*
X101039984Y-75407178D01*
X102289976Y-75407178D01*
X102289976Y-76657197D01*
X103539984Y-76657197D01*
X103539984Y-77907186D01*
X104789976Y-77907186D01*
X104789976Y-81657167D01*
X103539999Y-81657167D01*
X103539999Y-79157167D01*
X102289976Y-79157167D01*
X102289976Y-80407186D01*
X102287977Y-80407186D01*
X102287977Y-81657167D01*
X101038443Y-81657167D01*
X101038450Y-82907155D01*
X98540899Y-82907155D01*
X98540899Y-81657167D01*
X101038000Y-81657167D01*
X101038000Y-80407186D01*
X94795363Y-80407186D01*
X94795363Y-81657167D01*
X93545378Y-81657167D01*
X93545378Y-79157167D01*
X92295363Y-79157167D01*
X92295363Y-81657167D01*
X91045378Y-81657167D01*
X91045378Y-77907186D01*
X92295363Y-77907186D01*
G36*
X233767656Y-63857187D02*
G01*
X232517672Y-63857187D01*
X232517672Y-62607198D01*
X233767656Y-62607198D01*
X233767656Y-63857187D01*
G37*
X233767656Y-63857187D02*
X232517672Y-63857187D01*
X232517672Y-62607198D01*
X233767656Y-62607198D01*
X233767656Y-63857187D01*
G36*
X220819552Y-47740743D02*
G01*
X221332186Y-47740743D01*
X221844820Y-47740743D01*
X221844820Y-48253373D01*
X223384081Y-48253373D01*
X223384081Y-47740743D01*
X221844820Y-47740743D01*
X221332186Y-47740743D01*
X221332186Y-47228112D01*
X223898089Y-47228112D01*
X223898089Y-47740743D01*
X224410723Y-47740743D01*
X224410723Y-49280010D01*
X223898089Y-49280010D01*
X223898089Y-49792640D01*
X221332186Y-49792640D01*
X221332186Y-49280010D01*
X223384081Y-49280010D01*
X223384081Y-48767379D01*
X220819552Y-48767379D01*
X220819552Y-48253373D01*
X220819552Y-47740743D01*
G37*
X220819552Y-47740743D02*
X221332186Y-47740743D01*
X221844820Y-47740743D01*
X221844820Y-48253373D01*
X223384081Y-48253373D01*
X223384081Y-47740743D01*
X221844820Y-47740743D01*
X221332186Y-47740743D01*
X221332186Y-47228112D01*
X223898089Y-47228112D01*
X223898089Y-47740743D01*
X224410723Y-47740743D01*
X224410723Y-49280010D01*
X223898089Y-49280010D01*
X223898089Y-49792640D01*
X221332186Y-49792640D01*
X221332186Y-49280010D01*
X223384081Y-49280010D01*
X223384081Y-48767379D01*
X220819552Y-48767379D01*
X220819552Y-48253373D01*
X220819552Y-47740743D01*
G36*
X135393381Y-82907155D02*
G01*
X132895823Y-82907155D01*
X132895823Y-81657167D01*
X135393381Y-81657167D01*
X135393381Y-82907155D01*
G37*
X135393381Y-82907155D02*
X132895823Y-82907155D01*
X132895823Y-81657167D01*
X135393381Y-81657167D01*
X135393381Y-82907155D01*
G36*
X230017656Y-63857187D02*
G01*
X228767672Y-63857187D01*
X228767672Y-62607198D01*
X230017656Y-62607198D01*
X230017656Y-63857187D01*
G37*
X230017656Y-63857187D02*
X228767672Y-63857187D01*
X228767672Y-62607198D01*
X230017656Y-62607198D01*
X230017656Y-63857187D01*
G36*
X81367676Y-63857187D02*
G01*
X80117691Y-63857187D01*
X80117691Y-62607198D01*
X81367676Y-62607198D01*
X81367676Y-63857187D01*
G37*
X81367676Y-63857187D02*
X80117691Y-63857187D01*
X80117691Y-62607198D01*
X81367676Y-62607198D01*
X81367676Y-63857187D01*
G36*
X76367691Y-62607198D02*
G01*
X75117676Y-62607198D01*
X75117676Y-61357209D01*
X76367691Y-61357209D01*
X76367691Y-62607198D01*
G37*
X76367691Y-62607198D02*
X75117676Y-62607198D01*
X75117676Y-61357209D01*
X76367691Y-61357209D01*
X76367691Y-62607198D01*
G36*
X75117676Y-63857187D02*
G01*
X73867691Y-63857187D01*
X73867691Y-62607198D01*
X75117676Y-62607198D01*
X75117676Y-63857187D01*
G37*
X75117676Y-63857187D02*
X73867691Y-63857187D01*
X73867691Y-62607198D01*
X75117676Y-62607198D01*
X75117676Y-63857187D01*
G36*
X223767672Y-94457567D02*
G01*
X225017656Y-94457567D01*
X225017656Y-93207544D01*
X228767656Y-93207544D01*
X228767656Y-91957551D01*
X233767672Y-91957551D01*
X233767672Y-93207544D01*
X237517672Y-93207544D01*
X237517672Y-94457559D01*
X238767672Y-94457559D01*
X238767672Y-98207544D01*
X237517672Y-98207544D01*
X237517672Y-98207170D01*
X236267687Y-98207170D01*
X236267687Y-99456804D01*
X237517672Y-99456804D01*
X237517672Y-100706827D01*
X236267687Y-100706827D01*
X236267687Y-101956819D01*
X233767672Y-101956819D01*
X233767672Y-100706827D01*
X235017672Y-100706827D01*
X235017672Y-99457193D01*
X232517687Y-99457193D01*
X232517687Y-100706827D01*
X230017672Y-100706827D01*
X230017672Y-99457193D01*
X227517672Y-99457193D01*
X227517672Y-100706827D01*
X228767656Y-100706827D01*
X228767656Y-101956834D01*
X226267672Y-101956834D01*
X226267672Y-100706842D01*
X225017656Y-100706842D01*
X225017656Y-99456819D01*
X226267672Y-99456819D01*
X226267672Y-99456811D01*
X226267672Y-98207185D01*
X223767672Y-98207185D01*
X223767672Y-98207177D01*
X230017672Y-98207177D01*
X230017672Y-99456811D01*
X232517687Y-99456811D01*
X232517687Y-98207177D01*
X230017672Y-98207177D01*
X223767672Y-98207177D01*
X223767672Y-96957185D01*
X223767672Y-95707551D01*
X227517672Y-95707551D01*
X227517672Y-96957185D01*
X230017672Y-96957185D01*
X230017672Y-95707551D01*
X232517687Y-95707551D01*
X232517687Y-96957185D01*
X235017672Y-96957185D01*
X235017672Y-95707551D01*
X232517687Y-95707551D01*
X230017672Y-95707551D01*
X227517672Y-95707551D01*
X223767672Y-95707551D01*
X223767672Y-94457567D01*
G37*
X223767672Y-94457567D02*
X225017656Y-94457567D01*
X225017656Y-93207544D01*
X228767656Y-93207544D01*
X228767656Y-91957551D01*
X233767672Y-91957551D01*
X233767672Y-93207544D01*
X237517672Y-93207544D01*
X237517672Y-94457559D01*
X238767672Y-94457559D01*
X238767672Y-98207544D01*
X237517672Y-98207544D01*
X237517672Y-98207170D01*
X236267687Y-98207170D01*
X236267687Y-99456804D01*
X237517672Y-99456804D01*
X237517672Y-100706827D01*
X236267687Y-100706827D01*
X236267687Y-101956819D01*
X233767672Y-101956819D01*
X233767672Y-100706827D01*
X235017672Y-100706827D01*
X235017672Y-99457193D01*
X232517687Y-99457193D01*
X232517687Y-100706827D01*
X230017672Y-100706827D01*
X230017672Y-99457193D01*
X227517672Y-99457193D01*
X227517672Y-100706827D01*
X228767656Y-100706827D01*
X228767656Y-101956834D01*
X226267672Y-101956834D01*
X226267672Y-100706842D01*
X225017656Y-100706842D01*
X225017656Y-99456819D01*
X226267672Y-99456819D01*
X226267672Y-99456811D01*
X226267672Y-98207185D01*
X223767672Y-98207185D01*
X223767672Y-98207177D01*
X230017672Y-98207177D01*
X230017672Y-99456811D01*
X232517687Y-99456811D01*
X232517687Y-98207177D01*
X230017672Y-98207177D01*
X223767672Y-98207177D01*
X223767672Y-96957185D01*
X223767672Y-95707551D01*
X227517672Y-95707551D01*
X227517672Y-96957185D01*
X230017672Y-96957185D01*
X230017672Y-95707551D01*
X232517687Y-95707551D01*
X232517687Y-96957185D01*
X235017672Y-96957185D01*
X235017672Y-95707551D01*
X232517687Y-95707551D01*
X230017672Y-95707551D01*
X227517672Y-95707551D01*
X223767672Y-95707551D01*
X223767672Y-94457567D01*
G36*
X215967684Y-62607198D02*
G01*
X214717653Y-62607198D01*
X214717653Y-61357209D01*
X215967684Y-61357209D01*
X215967684Y-62607198D01*
G37*
X215967684Y-62607198D02*
X214717653Y-62607198D01*
X214717653Y-61357209D01*
X215967684Y-61357209D01*
X215967684Y-62607198D01*
G36*
X95417692Y-62607198D02*
G01*
X94167677Y-62607198D01*
X94167677Y-61357209D01*
X95417692Y-61357209D01*
X95417692Y-62607198D01*
G37*
X95417692Y-62607198D02*
X94167677Y-62607198D01*
X94167677Y-61357209D01*
X95417692Y-61357209D01*
X95417692Y-62607198D01*
G36*
X111967665Y-57607183D02*
G01*
X113217657Y-57607183D01*
X113217657Y-57607179D01*
X114467680Y-57607179D01*
X114467680Y-58857198D01*
X115717672Y-58857198D01*
X115717672Y-57607179D01*
X118217676Y-57607179D01*
X118217676Y-58857198D01*
X119467669Y-58857198D01*
X119467669Y-57607179D01*
X118217676Y-57607179D01*
X115717672Y-57607179D01*
X114467680Y-57607179D01*
X113217657Y-57607179D01*
X113217657Y-56357194D01*
X114467680Y-56357194D01*
X114467680Y-55107206D01*
X115717672Y-55107206D01*
X115717672Y-53857187D01*
X118217684Y-53857187D01*
X118217684Y-55107206D01*
X119467676Y-55107206D01*
X119467676Y-56357194D01*
X120717699Y-56357194D01*
X120717699Y-57607183D01*
X121967676Y-57607183D01*
X121967676Y-60107190D01*
X119467676Y-60107190D01*
X119467676Y-61357209D01*
X120717692Y-61357209D01*
X120717692Y-62607198D01*
X119467669Y-62607198D01*
X119467669Y-61357209D01*
X118217684Y-61357209D01*
X118217684Y-60107190D01*
X115717672Y-60107190D01*
X115717672Y-61357209D01*
X118217676Y-61357209D01*
X118217676Y-62607198D01*
X115717672Y-62607198D01*
X115717672Y-63857187D01*
X114467680Y-63857187D01*
X114467680Y-62607198D01*
X115717665Y-62607198D01*
X115717665Y-61357209D01*
X114467680Y-61357209D01*
X114467680Y-62607198D01*
X113217657Y-62607198D01*
X113217657Y-61357209D01*
X114467680Y-61357209D01*
X114467680Y-60107190D01*
X111967665Y-60107190D01*
X111967665Y-58857198D01*
X111967665Y-57607183D01*
G37*
X111967665Y-57607183D02*
X113217657Y-57607183D01*
X113217657Y-57607179D01*
X114467680Y-57607179D01*
X114467680Y-58857198D01*
X115717672Y-58857198D01*
X115717672Y-57607179D01*
X118217676Y-57607179D01*
X118217676Y-58857198D01*
X119467669Y-58857198D01*
X119467669Y-57607179D01*
X118217676Y-57607179D01*
X115717672Y-57607179D01*
X114467680Y-57607179D01*
X113217657Y-57607179D01*
X113217657Y-56357194D01*
X114467680Y-56357194D01*
X114467680Y-55107206D01*
X115717672Y-55107206D01*
X115717672Y-53857187D01*
X118217684Y-53857187D01*
X118217684Y-55107206D01*
X119467676Y-55107206D01*
X119467676Y-56357194D01*
X120717699Y-56357194D01*
X120717699Y-57607183D01*
X121967676Y-57607183D01*
X121967676Y-60107190D01*
X119467676Y-60107190D01*
X119467676Y-61357209D01*
X120717692Y-61357209D01*
X120717692Y-62607198D01*
X119467669Y-62607198D01*
X119467669Y-61357209D01*
X118217684Y-61357209D01*
X118217684Y-60107190D01*
X115717672Y-60107190D01*
X115717672Y-61357209D01*
X118217676Y-61357209D01*
X118217676Y-62607198D01*
X115717672Y-62607198D01*
X115717672Y-63857187D01*
X114467680Y-63857187D01*
X114467680Y-62607198D01*
X115717665Y-62607198D01*
X115717665Y-61357209D01*
X114467680Y-61357209D01*
X114467680Y-62607198D01*
X113217657Y-62607198D01*
X113217657Y-61357209D01*
X114467680Y-61357209D01*
X114467680Y-60107190D01*
X111967665Y-60107190D01*
X111967665Y-58857198D01*
X111967665Y-57607183D01*
G36*
X64190446Y-74157197D02*
G01*
X62940461Y-74157197D01*
X62940461Y-72907209D01*
X64190446Y-72907209D01*
X64190446Y-74157197D01*
G37*
X64190446Y-74157197D02*
X62940461Y-74157197D01*
X62940461Y-72907209D01*
X64190446Y-72907209D01*
X64190446Y-74157197D01*
G36*
X102290434Y-74157197D02*
G01*
X101040442Y-74157197D01*
X101040442Y-72907209D01*
X102290434Y-72907209D01*
X102290434Y-74157197D01*
G37*
X102290434Y-74157197D02*
X101040442Y-74157197D01*
X101040442Y-72907209D01*
X102290434Y-72907209D01*
X102290434Y-74157197D01*
G36*
X209095354Y-74157197D02*
G01*
X207845369Y-74157197D01*
X207845369Y-72907209D01*
X209095354Y-72907209D01*
X209095354Y-74157197D01*
G37*
X209095354Y-74157197D02*
X207845369Y-74157197D01*
X207845369Y-72907209D01*
X209095354Y-72907209D01*
X209095354Y-74157197D01*
G36*
X73245377Y-77907186D02*
G01*
X73245377Y-76657197D01*
X74495392Y-76657197D01*
X75745834Y-76657197D01*
X75745834Y-77907186D01*
X76993363Y-77907186D01*
X76993363Y-76657197D01*
X80743347Y-76657197D01*
X80743347Y-77907186D01*
X81990906Y-77907186D01*
X81990906Y-76657197D01*
X80743347Y-76657197D01*
X76993363Y-76657197D01*
X75745834Y-76657197D01*
X74495392Y-76657197D01*
X74495392Y-75407178D01*
X75745377Y-75407178D01*
X75745377Y-74157197D01*
X76994919Y-74157197D01*
X76994919Y-75407178D01*
X80740006Y-75407178D01*
X80740006Y-74157197D01*
X81990021Y-74157197D01*
X81990021Y-75407178D01*
X83240006Y-75407178D01*
X83240006Y-76657197D01*
X84490019Y-76657197D01*
X84490019Y-77907186D01*
X85740004Y-77907186D01*
X85740004Y-81657167D01*
X84490019Y-81657167D01*
X84490019Y-79157167D01*
X83240006Y-79157167D01*
X83240006Y-80407186D01*
X83238007Y-80407186D01*
X83238007Y-81657167D01*
X81988464Y-81657167D01*
X81988464Y-82907155D01*
X79490906Y-82907155D01*
X79490906Y-81657167D01*
X81988022Y-81657167D01*
X81988022Y-80407186D01*
X75745377Y-80407186D01*
X75745377Y-81657167D01*
X74495392Y-81657167D01*
X74495392Y-79157167D01*
X73245377Y-79157167D01*
X73245377Y-81657167D01*
X71995392Y-81657167D01*
X71995392Y-77907186D01*
X73245377Y-77907186D01*
G37*
X73245377Y-77907186D02*
X73245377Y-76657197D01*
X74495392Y-76657197D01*
X75745834Y-76657197D01*
X75745834Y-77907186D01*
X76993363Y-77907186D01*
X76993363Y-76657197D01*
X80743347Y-76657197D01*
X80743347Y-77907186D01*
X81990906Y-77907186D01*
X81990906Y-76657197D01*
X80743347Y-76657197D01*
X76993363Y-76657197D01*
X75745834Y-76657197D01*
X74495392Y-76657197D01*
X74495392Y-75407178D01*
X75745377Y-75407178D01*
X75745377Y-74157197D01*
X76994919Y-74157197D01*
X76994919Y-75407178D01*
X80740006Y-75407178D01*
X80740006Y-74157197D01*
X81990021Y-74157197D01*
X81990021Y-75407178D01*
X83240006Y-75407178D01*
X83240006Y-76657197D01*
X84490019Y-76657197D01*
X84490019Y-77907186D01*
X85740004Y-77907186D01*
X85740004Y-81657167D01*
X84490019Y-81657167D01*
X84490019Y-79157167D01*
X83240006Y-79157167D01*
X83240006Y-80407186D01*
X83238007Y-80407186D01*
X83238007Y-81657167D01*
X81988464Y-81657167D01*
X81988464Y-82907155D01*
X79490906Y-82907155D01*
X79490906Y-81657167D01*
X81988022Y-81657167D01*
X81988022Y-80407186D01*
X75745377Y-80407186D01*
X75745377Y-81657167D01*
X74495392Y-81657167D01*
X74495392Y-79157167D01*
X73245377Y-79157167D01*
X73245377Y-81657167D01*
X71995392Y-81657167D01*
X71995392Y-77907186D01*
X73245377Y-77907186D01*
G36*
X147567667Y-94457567D02*
G01*
X148817659Y-94457567D01*
X148817659Y-93207544D01*
X152567667Y-93207544D01*
X152567667Y-91957551D01*
X157567698Y-91957551D01*
X157567698Y-93207544D01*
X161317705Y-93207544D01*
X161317705Y-94457559D01*
X162567698Y-94457559D01*
X162567698Y-98207544D01*
X161317705Y-98207544D01*
X161317705Y-98207170D01*
X160067713Y-98207170D01*
X160067713Y-99456804D01*
X161317705Y-99456804D01*
X161317705Y-100706827D01*
X160067713Y-100706827D01*
X160067713Y-101956819D01*
X157567698Y-101956819D01*
X157567698Y-100706827D01*
X158817690Y-100706827D01*
X158817690Y-99457193D01*
X156317705Y-99457193D01*
X156317705Y-100706827D01*
X153817690Y-100706827D01*
X153817690Y-99457193D01*
X151317675Y-99457193D01*
X151317675Y-100706827D01*
X152567667Y-100706827D01*
X152567667Y-101956834D01*
X150067682Y-101956834D01*
X150067682Y-100706842D01*
X148817659Y-100706842D01*
X148817659Y-99456819D01*
X150067682Y-99456819D01*
X150067682Y-99456811D01*
X150067682Y-98207185D01*
X147567667Y-98207185D01*
X147567667Y-98207177D01*
X153817690Y-98207177D01*
X153817690Y-99456811D01*
X156317705Y-99456811D01*
X156317705Y-98207177D01*
X153817690Y-98207177D01*
X147567667Y-98207177D01*
X147567667Y-96957185D01*
X147567667Y-95707551D01*
X151317675Y-95707551D01*
X151317675Y-96957185D01*
X153817690Y-96957185D01*
X153817690Y-95707551D01*
X156317698Y-95707551D01*
X156317698Y-96957185D01*
X158817682Y-96957185D01*
X158817682Y-95707551D01*
X156317698Y-95707551D01*
X153817690Y-95707551D01*
X151317675Y-95707551D01*
X147567667Y-95707551D01*
X147567667Y-94457567D01*
G37*
X147567667Y-94457567D02*
X148817659Y-94457567D01*
X148817659Y-93207544D01*
X152567667Y-93207544D01*
X152567667Y-91957551D01*
X157567698Y-91957551D01*
X157567698Y-93207544D01*
X161317705Y-93207544D01*
X161317705Y-94457559D01*
X162567698Y-94457559D01*
X162567698Y-98207544D01*
X161317705Y-98207544D01*
X161317705Y-98207170D01*
X160067713Y-98207170D01*
X160067713Y-99456804D01*
X161317705Y-99456804D01*
X161317705Y-100706827D01*
X160067713Y-100706827D01*
X160067713Y-101956819D01*
X157567698Y-101956819D01*
X157567698Y-100706827D01*
X158817690Y-100706827D01*
X158817690Y-99457193D01*
X156317705Y-99457193D01*
X156317705Y-100706827D01*
X153817690Y-100706827D01*
X153817690Y-99457193D01*
X151317675Y-99457193D01*
X151317675Y-100706827D01*
X152567667Y-100706827D01*
X152567667Y-101956834D01*
X150067682Y-101956834D01*
X150067682Y-100706842D01*
X148817659Y-100706842D01*
X148817659Y-99456819D01*
X150067682Y-99456819D01*
X150067682Y-99456811D01*
X150067682Y-98207185D01*
X147567667Y-98207185D01*
X147567667Y-98207177D01*
X153817690Y-98207177D01*
X153817690Y-99456811D01*
X156317705Y-99456811D01*
X156317705Y-98207177D01*
X153817690Y-98207177D01*
X147567667Y-98207177D01*
X147567667Y-96957185D01*
X147567667Y-95707551D01*
X151317675Y-95707551D01*
X151317675Y-96957185D01*
X153817690Y-96957185D01*
X153817690Y-95707551D01*
X156317698Y-95707551D01*
X156317698Y-96957185D01*
X158817682Y-96957185D01*
X158817682Y-95707551D01*
X156317698Y-95707551D01*
X153817690Y-95707551D01*
X151317675Y-95707551D01*
X147567667Y-95707551D01*
X147567667Y-94457567D01*
G36*
X130395365Y-77907186D02*
G01*
X130395365Y-76657197D01*
X131645380Y-76657197D01*
X132895823Y-76657197D01*
X132895823Y-77907186D01*
X134143351Y-77907186D01*
X134143351Y-76657197D01*
X137893343Y-76657197D01*
X137893343Y-77907186D01*
X139140902Y-77907186D01*
X139140902Y-76657197D01*
X137893343Y-76657197D01*
X134143351Y-76657197D01*
X132895823Y-76657197D01*
X131645380Y-76657197D01*
X131645380Y-75407178D01*
X132895373Y-75407178D01*
X132895373Y-74157197D01*
X134144892Y-74157197D01*
X134144892Y-75407178D01*
X137889963Y-75407178D01*
X137889963Y-74157197D01*
X139139986Y-74157197D01*
X139139986Y-75407178D01*
X140389978Y-75407178D01*
X140389978Y-76657197D01*
X141639986Y-76657197D01*
X141639986Y-77907186D01*
X142889979Y-77907186D01*
X142889979Y-81657167D01*
X141640001Y-81657167D01*
X141640001Y-79157167D01*
X140389978Y-79157167D01*
X140389978Y-80407186D01*
X140387980Y-80407186D01*
X140387980Y-81657167D01*
X139138453Y-81657167D01*
X139138453Y-82907155D01*
X136640902Y-82907155D01*
X136640902Y-81657167D01*
X139138002Y-81657167D01*
X139138002Y-80407186D01*
X132895373Y-80407186D01*
X132895373Y-81657167D01*
X131645380Y-81657167D01*
X131645380Y-79157167D01*
X130395365Y-79157167D01*
X130395365Y-81657167D01*
X129145388Y-81657167D01*
X129145388Y-77907186D01*
X130395365Y-77907186D01*
G37*
X130395365Y-77907186D02*
X130395365Y-76657197D01*
X131645380Y-76657197D01*
X132895823Y-76657197D01*
X132895823Y-77907186D01*
X134143351Y-77907186D01*
X134143351Y-76657197D01*
X137893343Y-76657197D01*
X137893343Y-77907186D01*
X139140902Y-77907186D01*
X139140902Y-76657197D01*
X137893343Y-76657197D01*
X134143351Y-76657197D01*
X132895823Y-76657197D01*
X131645380Y-76657197D01*
X131645380Y-75407178D01*
X132895373Y-75407178D01*
X132895373Y-74157197D01*
X134144892Y-74157197D01*
X134144892Y-75407178D01*
X137889963Y-75407178D01*
X137889963Y-74157197D01*
X139139986Y-74157197D01*
X139139986Y-75407178D01*
X140389978Y-75407178D01*
X140389978Y-76657197D01*
X141639986Y-76657197D01*
X141639986Y-77907186D01*
X142889979Y-77907186D01*
X142889979Y-81657167D01*
X141640001Y-81657167D01*
X141640001Y-79157167D01*
X140389978Y-79157167D01*
X140389978Y-80407186D01*
X140387980Y-80407186D01*
X140387980Y-81657167D01*
X139138453Y-81657167D01*
X139138453Y-82907155D01*
X136640902Y-82907155D01*
X136640902Y-81657167D01*
X139138002Y-81657167D01*
X139138002Y-80407186D01*
X132895373Y-80407186D01*
X132895373Y-81657167D01*
X131645380Y-81657167D01*
X131645380Y-79157167D01*
X130395365Y-79157167D01*
X130395365Y-81657167D01*
X129145388Y-81657167D01*
X129145388Y-77907186D01*
X130395365Y-77907186D01*
G36*
X185667681Y-94457567D02*
G01*
X186917666Y-94457567D01*
X186917666Y-93207544D01*
X190667650Y-93207544D01*
X190667650Y-91957551D01*
X195667681Y-91957551D01*
X195667681Y-93207544D01*
X199417681Y-93207544D01*
X199417681Y-94457559D01*
X200667666Y-94457559D01*
X200667666Y-98207544D01*
X199417681Y-98207544D01*
X199417681Y-98207170D01*
X198167681Y-98207170D01*
X198167681Y-99456804D01*
X199417681Y-99456804D01*
X199417681Y-100706827D01*
X198167681Y-100706827D01*
X198167681Y-101956819D01*
X195667681Y-101956819D01*
X195667681Y-100706827D01*
X196917666Y-100706827D01*
X196917666Y-99457193D01*
X194417681Y-99457193D01*
X194417681Y-100706827D01*
X191917681Y-100706827D01*
X191917681Y-99457193D01*
X189417666Y-99457193D01*
X189417666Y-100706827D01*
X190667650Y-100706827D01*
X190667650Y-101956834D01*
X188167681Y-101956834D01*
X188167681Y-100706842D01*
X186917666Y-100706842D01*
X186917666Y-99456819D01*
X188167681Y-99456819D01*
X188167681Y-99456811D01*
X188167681Y-98207185D01*
X185667681Y-98207185D01*
X185667681Y-98207177D01*
X191917681Y-98207177D01*
X191917681Y-99456811D01*
X194417681Y-99456811D01*
X194417681Y-98207177D01*
X191917681Y-98207177D01*
X185667681Y-98207177D01*
X185667681Y-96957185D01*
X185667681Y-95707551D01*
X189417666Y-95707551D01*
X189417666Y-96957185D01*
X191917681Y-96957185D01*
X191917681Y-95707551D01*
X194417681Y-95707551D01*
X194417681Y-96957185D01*
X196917666Y-96957185D01*
X196917666Y-95707551D01*
X194417681Y-95707551D01*
X191917681Y-95707551D01*
X189417666Y-95707551D01*
X185667681Y-95707551D01*
X185667681Y-94457567D01*
G37*
X185667681Y-94457567D02*
X186917666Y-94457567D01*
X186917666Y-93207544D01*
X190667650Y-93207544D01*
X190667650Y-91957551D01*
X195667681Y-91957551D01*
X195667681Y-93207544D01*
X199417681Y-93207544D01*
X199417681Y-94457559D01*
X200667666Y-94457559D01*
X200667666Y-98207544D01*
X199417681Y-98207544D01*
X199417681Y-98207170D01*
X198167681Y-98207170D01*
X198167681Y-99456804D01*
X199417681Y-99456804D01*
X199417681Y-100706827D01*
X198167681Y-100706827D01*
X198167681Y-101956819D01*
X195667681Y-101956819D01*
X195667681Y-100706827D01*
X196917666Y-100706827D01*
X196917666Y-99457193D01*
X194417681Y-99457193D01*
X194417681Y-100706827D01*
X191917681Y-100706827D01*
X191917681Y-99457193D01*
X189417666Y-99457193D01*
X189417666Y-100706827D01*
X190667650Y-100706827D01*
X190667650Y-101956834D01*
X188167681Y-101956834D01*
X188167681Y-100706842D01*
X186917666Y-100706842D01*
X186917666Y-99456819D01*
X188167681Y-99456819D01*
X188167681Y-99456811D01*
X188167681Y-98207185D01*
X185667681Y-98207185D01*
X185667681Y-98207177D01*
X191917681Y-98207177D01*
X191917681Y-99456811D01*
X194417681Y-99456811D01*
X194417681Y-98207177D01*
X191917681Y-98207177D01*
X185667681Y-98207177D01*
X185667681Y-96957185D01*
X185667681Y-95707551D01*
X189417666Y-95707551D01*
X189417666Y-96957185D01*
X191917681Y-96957185D01*
X191917681Y-95707551D01*
X194417681Y-95707551D01*
X194417681Y-96957185D01*
X196917666Y-96957185D01*
X196917666Y-95707551D01*
X194417681Y-95707551D01*
X191917681Y-95707551D01*
X189417666Y-95707551D01*
X185667681Y-95707551D01*
X185667681Y-94457567D01*
G36*
X149445353Y-77907186D02*
G01*
X149445353Y-76657197D01*
X150695376Y-76657197D01*
X151945818Y-76657197D01*
X151945818Y-77907186D01*
X153193346Y-77907186D01*
X153193346Y-76657197D01*
X156943339Y-76657197D01*
X156943339Y-77907186D01*
X158190897Y-77907186D01*
X158190897Y-76657197D01*
X156943339Y-76657197D01*
X153193346Y-76657197D01*
X151945818Y-76657197D01*
X150695376Y-76657197D01*
X150695376Y-75407178D01*
X151945368Y-75407178D01*
X151945368Y-74157197D01*
X153194880Y-74157197D01*
X153194880Y-75407178D01*
X156939951Y-75407178D01*
X156939951Y-74157197D01*
X158189974Y-74157197D01*
X158189974Y-75407178D01*
X159439966Y-75407178D01*
X159439966Y-76657197D01*
X160689974Y-76657197D01*
X160689974Y-77907186D01*
X161939966Y-77907186D01*
X161939966Y-81657167D01*
X160689989Y-81657167D01*
X160689989Y-79157167D01*
X159439966Y-79157167D01*
X159439966Y-80407186D01*
X159437967Y-80407186D01*
X159437967Y-81657167D01*
X158188448Y-81657167D01*
X158188456Y-82907155D01*
X155690905Y-82907155D01*
X155690905Y-81657167D01*
X158187990Y-81657167D01*
X158187990Y-80407186D01*
X151945368Y-80407186D01*
X151945368Y-81657167D01*
X150695376Y-81657167D01*
X150695376Y-79157167D01*
X149445353Y-79157167D01*
X149445353Y-81657167D01*
X148195376Y-81657167D01*
X148195376Y-77907186D01*
X149445353Y-77907186D01*
G37*
X149445353Y-77907186D02*
X149445353Y-76657197D01*
X150695376Y-76657197D01*
X151945818Y-76657197D01*
X151945818Y-77907186D01*
X153193346Y-77907186D01*
X153193346Y-76657197D01*
X156943339Y-76657197D01*
X156943339Y-77907186D01*
X158190897Y-77907186D01*
X158190897Y-76657197D01*
X156943339Y-76657197D01*
X153193346Y-76657197D01*
X151945818Y-76657197D01*
X150695376Y-76657197D01*
X150695376Y-75407178D01*
X151945368Y-75407178D01*
X151945368Y-74157197D01*
X153194880Y-74157197D01*
X153194880Y-75407178D01*
X156939951Y-75407178D01*
X156939951Y-74157197D01*
X158189974Y-74157197D01*
X158189974Y-75407178D01*
X159439966Y-75407178D01*
X159439966Y-76657197D01*
X160689974Y-76657197D01*
X160689974Y-77907186D01*
X161939966Y-77907186D01*
X161939966Y-81657167D01*
X160689989Y-81657167D01*
X160689989Y-79157167D01*
X159439966Y-79157167D01*
X159439966Y-80407186D01*
X159437967Y-80407186D01*
X159437967Y-81657167D01*
X158188448Y-81657167D01*
X158188456Y-82907155D01*
X155690905Y-82907155D01*
X155690905Y-81657167D01*
X158187990Y-81657167D01*
X158187990Y-80407186D01*
X151945368Y-80407186D01*
X151945368Y-81657167D01*
X150695376Y-81657167D01*
X150695376Y-79157167D01*
X149445353Y-79157167D01*
X149445353Y-81657167D01*
X148195376Y-81657167D01*
X148195376Y-77907186D01*
X149445353Y-77907186D01*
G36*
X75745377Y-74157197D02*
G01*
X74495392Y-74157197D01*
X74495392Y-72907209D01*
X75745377Y-72907209D01*
X75745377Y-74157197D01*
G37*
X75745377Y-74157197D02*
X74495392Y-74157197D01*
X74495392Y-72907209D01*
X75745377Y-72907209D01*
X75745377Y-74157197D01*
G36*
X158817690Y-62607198D02*
G01*
X157567667Y-62607198D01*
X157567667Y-61357209D01*
X158817690Y-61357209D01*
X158817690Y-62607198D01*
G37*
X158817690Y-62607198D02*
X157567667Y-62607198D01*
X157567667Y-61357209D01*
X158817690Y-61357209D01*
X158817690Y-62607198D01*
G36*
X165638880Y-116007173D02*
G01*
X163913813Y-116007173D01*
X163913813Y-111244676D01*
X165638880Y-111244676D01*
X165638880Y-116007173D01*
G37*
X165638880Y-116007173D02*
X163913813Y-116007173D01*
X163913813Y-111244676D01*
X165638880Y-111244676D01*
X165638880Y-116007173D01*
G36*
X208506792Y-46201474D02*
G01*
X209019426Y-46201474D01*
X209532061Y-46201474D01*
X209532061Y-46714105D01*
X210046068Y-46714105D01*
X210046068Y-47228112D01*
X210558687Y-47228112D01*
X210558687Y-47740743D01*
X211071322Y-47740743D01*
X211071322Y-46201474D01*
X209532061Y-46201474D01*
X209019426Y-46201474D01*
X209019426Y-45688844D01*
X211585329Y-45688844D01*
X211585329Y-46201474D01*
X212097963Y-46201474D01*
X212097963Y-49280010D01*
X211585329Y-49280010D01*
X211585329Y-49792640D01*
X209019426Y-49792640D01*
X209019426Y-49280010D01*
X208506792Y-49280010D01*
X208506792Y-47740743D01*
X209532061Y-47740743D01*
X209532061Y-49280010D01*
X211071322Y-49280012D01*
X211071322Y-48767381D01*
X210558687Y-48767381D01*
X210558687Y-48253373D01*
X210046068Y-48253373D01*
X210046068Y-47740743D01*
X209532061Y-47740743D01*
X208506792Y-47740743D01*
X208506792Y-46714105D01*
X208506792Y-46201474D01*
G37*
X208506792Y-46201474D02*
X209019426Y-46201474D01*
X209532061Y-46201474D01*
X209532061Y-46714105D01*
X210046068Y-46714105D01*
X210046068Y-47228112D01*
X210558687Y-47228112D01*
X210558687Y-47740743D01*
X211071322Y-47740743D01*
X211071322Y-46201474D01*
X209532061Y-46201474D01*
X209019426Y-46201474D01*
X209019426Y-45688844D01*
X211585329Y-45688844D01*
X211585329Y-46201474D01*
X212097963Y-46201474D01*
X212097963Y-49280010D01*
X211585329Y-49280010D01*
X211585329Y-49792640D01*
X209019426Y-49792640D01*
X209019426Y-49280010D01*
X208506792Y-49280010D01*
X208506792Y-47740743D01*
X209532061Y-47740743D01*
X209532061Y-49280010D01*
X211071322Y-49280012D01*
X211071322Y-48767381D01*
X210558687Y-48767381D01*
X210558687Y-48253373D01*
X210046068Y-48253373D01*
X210046068Y-47740743D01*
X209532061Y-47740743D01*
X208506792Y-47740743D01*
X208506792Y-46714105D01*
X208506792Y-46201474D01*
G36*
X90417692Y-94457567D02*
G01*
X91667677Y-94457567D01*
X91667677Y-93207544D01*
X95417662Y-93207544D01*
X95417662Y-91957551D01*
X100417677Y-91957551D01*
X100417677Y-93207544D01*
X104167685Y-93207544D01*
X104167685Y-94457559D01*
X105417677Y-94457559D01*
X105417677Y-98207544D01*
X104167685Y-98207544D01*
X104167685Y-98207170D01*
X102917692Y-98207170D01*
X102917692Y-99456804D01*
X104167685Y-99456804D01*
X104167685Y-100706827D01*
X102917692Y-100706827D01*
X102917692Y-101956819D01*
X100417677Y-101956819D01*
X100417677Y-100706827D01*
X101667669Y-100706827D01*
X101667669Y-99457193D01*
X99167685Y-99457193D01*
X99167685Y-100706827D01*
X96667677Y-100706827D01*
X96667677Y-99457193D01*
X94167677Y-99457193D01*
X94167677Y-100706827D01*
X95417662Y-100706827D01*
X95417662Y-101956834D01*
X92917692Y-101956834D01*
X92917692Y-100706842D01*
X91667677Y-100706842D01*
X91667677Y-99456819D01*
X92917692Y-99456819D01*
X92917692Y-99456811D01*
X92917692Y-98207185D01*
X90417692Y-98207185D01*
X90417692Y-98207177D01*
X96667692Y-98207177D01*
X96667692Y-99456811D01*
X99167700Y-99456811D01*
X99167700Y-98207177D01*
X96667692Y-98207177D01*
X90417692Y-98207177D01*
X90417692Y-96957185D01*
X90417692Y-95707551D01*
X94167677Y-95707551D01*
X94167677Y-96957185D01*
X96667677Y-96957185D01*
X96667677Y-95707551D01*
X99167700Y-95707551D01*
X99167700Y-96957185D01*
X101667685Y-96957185D01*
X101667685Y-95707551D01*
X99167700Y-95707551D01*
X96667677Y-95707551D01*
X94167677Y-95707551D01*
X90417692Y-95707551D01*
X90417692Y-94457567D01*
G37*
X90417692Y-94457567D02*
X91667677Y-94457567D01*
X91667677Y-93207544D01*
X95417662Y-93207544D01*
X95417662Y-91957551D01*
X100417677Y-91957551D01*
X100417677Y-93207544D01*
X104167685Y-93207544D01*
X104167685Y-94457559D01*
X105417677Y-94457559D01*
X105417677Y-98207544D01*
X104167685Y-98207544D01*
X104167685Y-98207170D01*
X102917692Y-98207170D01*
X102917692Y-99456804D01*
X104167685Y-99456804D01*
X104167685Y-100706827D01*
X102917692Y-100706827D01*
X102917692Y-101956819D01*
X100417677Y-101956819D01*
X100417677Y-100706827D01*
X101667669Y-100706827D01*
X101667669Y-99457193D01*
X99167685Y-99457193D01*
X99167685Y-100706827D01*
X96667677Y-100706827D01*
X96667677Y-99457193D01*
X94167677Y-99457193D01*
X94167677Y-100706827D01*
X95417662Y-100706827D01*
X95417662Y-101956834D01*
X92917692Y-101956834D01*
X92917692Y-100706842D01*
X91667677Y-100706842D01*
X91667677Y-99456819D01*
X92917692Y-99456819D01*
X92917692Y-99456811D01*
X92917692Y-98207185D01*
X90417692Y-98207185D01*
X90417692Y-98207177D01*
X96667692Y-98207177D01*
X96667692Y-99456811D01*
X99167700Y-99456811D01*
X99167700Y-98207177D01*
X96667692Y-98207177D01*
X90417692Y-98207177D01*
X90417692Y-96957185D01*
X90417692Y-95707551D01*
X94167677Y-95707551D01*
X94167677Y-96957185D01*
X96667677Y-96957185D01*
X96667677Y-95707551D01*
X99167700Y-95707551D01*
X99167700Y-96957185D01*
X101667685Y-96957185D01*
X101667685Y-95707551D01*
X99167700Y-95707551D01*
X96667677Y-95707551D01*
X94167677Y-95707551D01*
X90417692Y-95707551D01*
X90417692Y-94457567D01*
G36*
X101667700Y-62607198D02*
G01*
X100417669Y-62607198D01*
X100417669Y-61357209D01*
X101667700Y-61357209D01*
X101667700Y-62607198D01*
G37*
X101667700Y-62607198D02*
X100417669Y-62607198D01*
X100417669Y-61357209D01*
X101667700Y-61357209D01*
X101667700Y-62607198D01*
G36*
X150067682Y-57607183D02*
G01*
X151317667Y-57607183D01*
X151317667Y-57607179D01*
X152567690Y-57607179D01*
X152567690Y-58857198D01*
X153817675Y-58857198D01*
X153817675Y-57607179D01*
X156317682Y-57607179D01*
X156317682Y-58857198D01*
X157567667Y-58857198D01*
X157567667Y-57607179D01*
X156317682Y-57607179D01*
X153817675Y-57607179D01*
X152567690Y-57607179D01*
X151317667Y-57607179D01*
X151317667Y-56357194D01*
X152567690Y-56357194D01*
X152567690Y-55107206D01*
X153817675Y-55107206D01*
X153817675Y-53857187D01*
X156317682Y-53857187D01*
X156317682Y-55107206D01*
X157567667Y-55107206D01*
X157567667Y-56357194D01*
X158817690Y-56357194D01*
X158817690Y-57607183D01*
X160067675Y-57607183D01*
X160067675Y-60107190D01*
X157567667Y-60107190D01*
X157567667Y-61357209D01*
X156317682Y-61357209D01*
X156317682Y-60107190D01*
X153817675Y-60107190D01*
X153817675Y-61357209D01*
X152567690Y-61357209D01*
X152567690Y-60107190D01*
X150067682Y-60107190D01*
X150067682Y-58857198D01*
X150067682Y-57607183D01*
G37*
X150067682Y-57607183D02*
X151317667Y-57607183D01*
X151317667Y-57607179D01*
X152567690Y-57607179D01*
X152567690Y-58857198D01*
X153817675Y-58857198D01*
X153817675Y-57607179D01*
X156317682Y-57607179D01*
X156317682Y-58857198D01*
X157567667Y-58857198D01*
X157567667Y-57607179D01*
X156317682Y-57607179D01*
X153817675Y-57607179D01*
X152567690Y-57607179D01*
X151317667Y-57607179D01*
X151317667Y-56357194D01*
X152567690Y-56357194D01*
X152567690Y-55107206D01*
X153817675Y-55107206D01*
X153817675Y-53857187D01*
X156317682Y-53857187D01*
X156317682Y-55107206D01*
X157567667Y-55107206D01*
X157567667Y-56357194D01*
X158817690Y-56357194D01*
X158817690Y-57607183D01*
X160067675Y-57607183D01*
X160067675Y-60107190D01*
X157567667Y-60107190D01*
X157567667Y-61357209D01*
X156317682Y-61357209D01*
X156317682Y-60107190D01*
X153817675Y-60107190D01*
X153817675Y-61357209D01*
X152567690Y-61357209D01*
X152567690Y-60107190D01*
X150067682Y-60107190D01*
X150067682Y-58857198D01*
X150067682Y-57607183D01*
G36*
X94795363Y-74157197D02*
G01*
X93545378Y-74157197D01*
X93545378Y-72907209D01*
X94795363Y-72907209D01*
X94795363Y-74157197D01*
G37*
X94795363Y-74157197D02*
X93545378Y-74157197D01*
X93545378Y-72907209D01*
X94795363Y-72907209D01*
X94795363Y-74157197D01*
G36*
X128517664Y-94457567D02*
G01*
X129767656Y-94457567D01*
X129767656Y-93207544D01*
X133517664Y-93207544D01*
X133517664Y-91957551D01*
X138517695Y-91957551D01*
X138517695Y-93207544D01*
X142267702Y-93207544D01*
X142267702Y-94457559D01*
X143517695Y-94457559D01*
X143517695Y-98207544D01*
X142267702Y-98207544D01*
X142267702Y-98207170D01*
X141017710Y-98207170D01*
X141017710Y-99456804D01*
X142267702Y-99456804D01*
X142267702Y-100706827D01*
X141017710Y-100706827D01*
X141017710Y-101956819D01*
X138517695Y-101956819D01*
X138517695Y-100706827D01*
X139767687Y-100706827D01*
X139767687Y-99457193D01*
X137267702Y-99457193D01*
X137267702Y-100706827D01*
X134767687Y-100706827D01*
X134767687Y-99457193D01*
X132267672Y-99457193D01*
X132267672Y-100706827D01*
X133517664Y-100706827D01*
X133517664Y-101956834D01*
X131017679Y-101956834D01*
X131017679Y-100706842D01*
X129767656Y-100706842D01*
X129767656Y-99456819D01*
X131017679Y-99456819D01*
X131017679Y-99456811D01*
X131017679Y-98207185D01*
X128517664Y-98207185D01*
X128517664Y-98207177D01*
X134767687Y-98207177D01*
X134767687Y-99456811D01*
X137267702Y-99456811D01*
X137267702Y-98207177D01*
X134767687Y-98207177D01*
X128517664Y-98207177D01*
X128517664Y-96957185D01*
X128517664Y-95707551D01*
X132267672Y-95707551D01*
X132267672Y-96957185D01*
X134767687Y-96957185D01*
X134767687Y-95707551D01*
X137267695Y-95707551D01*
X137267695Y-96957185D01*
X139767679Y-96957185D01*
X139767679Y-95707551D01*
X137267695Y-95707551D01*
X134767687Y-95707551D01*
X132267672Y-95707551D01*
X128517664Y-95707551D01*
X128517664Y-94457567D01*
G37*
X128517664Y-94457567D02*
X129767656Y-94457567D01*
X129767656Y-93207544D01*
X133517664Y-93207544D01*
X133517664Y-91957551D01*
X138517695Y-91957551D01*
X138517695Y-93207544D01*
X142267702Y-93207544D01*
X142267702Y-94457559D01*
X143517695Y-94457559D01*
X143517695Y-98207544D01*
X142267702Y-98207544D01*
X142267702Y-98207170D01*
X141017710Y-98207170D01*
X141017710Y-99456804D01*
X142267702Y-99456804D01*
X142267702Y-100706827D01*
X141017710Y-100706827D01*
X141017710Y-101956819D01*
X138517695Y-101956819D01*
X138517695Y-100706827D01*
X139767687Y-100706827D01*
X139767687Y-99457193D01*
X137267702Y-99457193D01*
X137267702Y-100706827D01*
X134767687Y-100706827D01*
X134767687Y-99457193D01*
X132267672Y-99457193D01*
X132267672Y-100706827D01*
X133517664Y-100706827D01*
X133517664Y-101956834D01*
X131017679Y-101956834D01*
X131017679Y-100706842D01*
X129767656Y-100706842D01*
X129767656Y-99456819D01*
X131017679Y-99456819D01*
X131017679Y-99456811D01*
X131017679Y-98207185D01*
X128517664Y-98207185D01*
X128517664Y-98207177D01*
X134767687Y-98207177D01*
X134767687Y-99456811D01*
X137267702Y-99456811D01*
X137267702Y-98207177D01*
X134767687Y-98207177D01*
X128517664Y-98207177D01*
X128517664Y-96957185D01*
X128517664Y-95707551D01*
X132267672Y-95707551D01*
X132267672Y-96957185D01*
X134767687Y-96957185D01*
X134767687Y-95707551D01*
X137267695Y-95707551D01*
X137267695Y-96957185D01*
X139767679Y-96957185D01*
X139767679Y-95707551D01*
X137267695Y-95707551D01*
X134767687Y-95707551D01*
X132267672Y-95707551D01*
X128517664Y-95707551D01*
X128517664Y-94457567D01*
G36*
X228145357Y-74157197D02*
G01*
X226895357Y-74157197D01*
X226895357Y-72907209D01*
X228145357Y-72907209D01*
X228145357Y-74157197D01*
G37*
X228145357Y-74157197D02*
X226895357Y-74157197D01*
X226895357Y-72907209D01*
X228145357Y-72907209D01*
X228145357Y-74157197D01*
G36*
X226718935Y-47740743D02*
G01*
X225179659Y-47740743D01*
X225179659Y-47228112D01*
X226718935Y-47228112D01*
X226718935Y-47740743D01*
G37*
X226718935Y-47740743D02*
X225179659Y-47740743D01*
X225179659Y-47228112D01*
X226718935Y-47228112D01*
X226718935Y-47740743D01*
G36*
X179117670Y-63857187D02*
G01*
X177867685Y-63857187D01*
X177867685Y-62607198D01*
X179117670Y-62607198D01*
X179117670Y-63857187D01*
G37*
X179117670Y-63857187D02*
X177867685Y-63857187D01*
X177867685Y-62607198D01*
X179117670Y-62607198D01*
X179117670Y-63857187D01*
G36*
X63567704Y-62607198D02*
G01*
X62317689Y-62607198D01*
X62317689Y-61357209D01*
X63567704Y-61357209D01*
X63567704Y-62607198D01*
G37*
X63567704Y-62607198D02*
X62317689Y-62607198D01*
X62317689Y-61357209D01*
X63567704Y-61357209D01*
X63567704Y-62607198D01*
G36*
X213467669Y-62607198D02*
G01*
X210967669Y-62607198D01*
X210967669Y-61357209D01*
X213467669Y-61357209D01*
X213467669Y-62607198D01*
G37*
X213467669Y-62607198D02*
X210967669Y-62607198D01*
X210967669Y-61357209D01*
X213467669Y-61357209D01*
X213467669Y-62607198D01*
G36*
X197540423Y-74157197D02*
G01*
X196290438Y-74157197D01*
X196290438Y-72907209D01*
X197540423Y-72907209D01*
X197540423Y-74157197D01*
G37*
X197540423Y-74157197D02*
X196290438Y-74157197D01*
X196290438Y-72907209D01*
X197540423Y-72907209D01*
X197540423Y-74157197D01*
G36*
X121340441Y-74157197D02*
G01*
X120090449Y-74157197D01*
X120090449Y-72907209D01*
X121340441Y-72907209D01*
X121340441Y-74157197D01*
G37*
X121340441Y-74157197D02*
X120090449Y-74157197D01*
X120090449Y-72907209D01*
X121340441Y-72907209D01*
X121340441Y-74157197D01*
G36*
X206595354Y-77907186D02*
G01*
X206595354Y-76657197D01*
X207845369Y-76657197D01*
X209095812Y-76657197D01*
X209095812Y-77907186D01*
X210343340Y-77907186D01*
X210343340Y-76657197D01*
X214093325Y-76657197D01*
X214093325Y-77907186D01*
X215340883Y-77907186D01*
X215340883Y-76657197D01*
X214093325Y-76657197D01*
X210343340Y-76657197D01*
X209095812Y-76657197D01*
X207845369Y-76657197D01*
X207845369Y-75407178D01*
X209095354Y-75407178D01*
X209095354Y-74157197D01*
X210344881Y-74157197D01*
X210344881Y-75407178D01*
X214089953Y-75407178D01*
X214089953Y-74157197D01*
X215339983Y-74157197D01*
X215339983Y-75407178D01*
X216589968Y-75407178D01*
X216589968Y-76657197D01*
X217839983Y-76657197D01*
X217839983Y-77907186D01*
X219089968Y-77907186D01*
X219089968Y-81657167D01*
X217839983Y-81657167D01*
X217839983Y-79157167D01*
X216589968Y-79157167D01*
X216589968Y-80407186D01*
X216587969Y-80407186D01*
X216587969Y-81657167D01*
X215338442Y-81657167D01*
X215338442Y-82907155D01*
X212840883Y-82907155D01*
X212840883Y-81657167D01*
X215337984Y-81657167D01*
X215337984Y-80407186D01*
X209095354Y-80407186D01*
X209095354Y-81657167D01*
X207845369Y-81657167D01*
X207845369Y-79157167D01*
X206595354Y-79157167D01*
X206595354Y-81657167D01*
X205345370Y-81657167D01*
X205345370Y-77907186D01*
X206595354Y-77907186D01*
G37*
X206595354Y-77907186D02*
X206595354Y-76657197D01*
X207845369Y-76657197D01*
X209095812Y-76657197D01*
X209095812Y-77907186D01*
X210343340Y-77907186D01*
X210343340Y-76657197D01*
X214093325Y-76657197D01*
X214093325Y-77907186D01*
X215340883Y-77907186D01*
X215340883Y-76657197D01*
X214093325Y-76657197D01*
X210343340Y-76657197D01*
X209095812Y-76657197D01*
X207845369Y-76657197D01*
X207845369Y-75407178D01*
X209095354Y-75407178D01*
X209095354Y-74157197D01*
X210344881Y-74157197D01*
X210344881Y-75407178D01*
X214089953Y-75407178D01*
X214089953Y-74157197D01*
X215339983Y-74157197D01*
X215339983Y-75407178D01*
X216589968Y-75407178D01*
X216589968Y-76657197D01*
X217839983Y-76657197D01*
X217839983Y-77907186D01*
X219089968Y-77907186D01*
X219089968Y-81657167D01*
X217839983Y-81657167D01*
X217839983Y-79157167D01*
X216589968Y-79157167D01*
X216589968Y-80407186D01*
X216587969Y-80407186D01*
X216587969Y-81657167D01*
X215338442Y-81657167D01*
X215338442Y-82907155D01*
X212840883Y-82907155D01*
X212840883Y-81657167D01*
X215337984Y-81657167D01*
X215337984Y-80407186D01*
X209095354Y-80407186D01*
X209095354Y-81657167D01*
X207845369Y-81657167D01*
X207845369Y-79157167D01*
X206595354Y-79157167D01*
X206595354Y-81657167D01*
X205345370Y-81657167D01*
X205345370Y-77907186D01*
X206595354Y-77907186D01*
G36*
X92917692Y-57607183D02*
G01*
X94167677Y-57607183D01*
X94167677Y-57607179D01*
X95417692Y-57607179D01*
X95417692Y-58857198D01*
X96667677Y-58857198D01*
X96667677Y-57607179D01*
X99167692Y-57607179D01*
X99167692Y-58857198D01*
X100417669Y-58857198D01*
X100417669Y-57607179D01*
X99167692Y-57607179D01*
X96667677Y-57607179D01*
X95417692Y-57607179D01*
X94167677Y-57607179D01*
X94167677Y-56357194D01*
X95417692Y-56357194D01*
X95417692Y-55107206D01*
X96667677Y-55107206D01*
X96667677Y-53857187D01*
X99167685Y-53857187D01*
X99167685Y-55107206D01*
X100417662Y-55107206D01*
X100417662Y-56357194D01*
X101667692Y-56357194D01*
X101667692Y-57607183D01*
X102917669Y-57607183D01*
X102917669Y-60107190D01*
X100417662Y-60107190D01*
X100417662Y-61357209D01*
X99167692Y-61357209D01*
X99167692Y-62607198D01*
X96667692Y-62607198D01*
X96667692Y-61357209D01*
X99167685Y-61357209D01*
X99167685Y-60107190D01*
X96667677Y-60107190D01*
X96667677Y-61357209D01*
X95417692Y-61357209D01*
X95417692Y-60107190D01*
X92917692Y-60107190D01*
X92917692Y-58857198D01*
X92917692Y-57607183D01*
G37*
X92917692Y-57607183D02*
X94167677Y-57607183D01*
X94167677Y-57607179D01*
X95417692Y-57607179D01*
X95417692Y-58857198D01*
X96667677Y-58857198D01*
X96667677Y-57607179D01*
X99167692Y-57607179D01*
X99167692Y-58857198D01*
X100417669Y-58857198D01*
X100417669Y-57607179D01*
X99167692Y-57607179D01*
X96667677Y-57607179D01*
X95417692Y-57607179D01*
X94167677Y-57607179D01*
X94167677Y-56357194D01*
X95417692Y-56357194D01*
X95417692Y-55107206D01*
X96667677Y-55107206D01*
X96667677Y-53857187D01*
X99167685Y-53857187D01*
X99167685Y-55107206D01*
X100417662Y-55107206D01*
X100417662Y-56357194D01*
X101667692Y-56357194D01*
X101667692Y-57607183D01*
X102917669Y-57607183D01*
X102917669Y-60107190D01*
X100417662Y-60107190D01*
X100417662Y-61357209D01*
X99167692Y-61357209D01*
X99167692Y-62607198D01*
X96667692Y-62607198D01*
X96667692Y-61357209D01*
X99167685Y-61357209D01*
X99167685Y-60107190D01*
X96667677Y-60107190D01*
X96667677Y-61357209D01*
X95417692Y-61357209D01*
X95417692Y-60107190D01*
X92917692Y-60107190D01*
X92917692Y-58857198D01*
X92917692Y-57607183D01*
G36*
X156317682Y-62607198D02*
G01*
X153817675Y-62607198D01*
X153817675Y-61357209D01*
X156317682Y-61357209D01*
X156317682Y-62607198D01*
G37*
X156317682Y-62607198D02*
X153817675Y-62607198D01*
X153817675Y-61357209D01*
X156317682Y-61357209D01*
X156317682Y-62607198D01*
G36*
X59193392Y-82907155D02*
G01*
X56695833Y-82907155D01*
X56695833Y-81657167D01*
X59193392Y-81657167D01*
X59193392Y-82907155D01*
G37*
X59193392Y-82907155D02*
X56695833Y-82907155D01*
X56695833Y-81657167D01*
X59193392Y-81657167D01*
X59193392Y-82907155D01*
G36*
X119467669Y-63857187D02*
G01*
X118217676Y-63857187D01*
X118217676Y-62607198D01*
X119467669Y-62607198D01*
X119467669Y-63857187D01*
G37*
X119467669Y-63857187D02*
X118217676Y-63857187D01*
X118217676Y-62607198D01*
X119467669Y-62607198D01*
X119467669Y-63857187D01*
G36*
X166617685Y-94457567D02*
G01*
X167867670Y-94457567D01*
X167867670Y-93207544D01*
X171617670Y-93207544D01*
X171617670Y-91957551D01*
X176617685Y-91957551D01*
X176617685Y-93207544D01*
X180367662Y-93207544D01*
X180367662Y-94457559D01*
X181617663Y-94457559D01*
X181617663Y-98207544D01*
X180367662Y-98207544D01*
X180367662Y-98207170D01*
X179117685Y-98207170D01*
X179117685Y-99456804D01*
X180367662Y-99456804D01*
X180367662Y-100706827D01*
X179117685Y-100706827D01*
X179117685Y-101956819D01*
X176617685Y-101956819D01*
X176617685Y-100706827D01*
X177867670Y-100706827D01*
X177867670Y-99457193D01*
X175367693Y-99457193D01*
X175367693Y-100706827D01*
X172867685Y-100706827D01*
X172867685Y-99457193D01*
X170367678Y-99457193D01*
X170367678Y-100706827D01*
X171617670Y-100706827D01*
X171617670Y-101956834D01*
X169117685Y-101956834D01*
X169117685Y-100706842D01*
X167867670Y-100706842D01*
X167867670Y-99456819D01*
X169117685Y-99456819D01*
X169117685Y-99456811D01*
X169117685Y-98207185D01*
X166617685Y-98207185D01*
X166617685Y-98207177D01*
X172867685Y-98207177D01*
X172867685Y-99456811D01*
X175367693Y-99456811D01*
X175367693Y-98207177D01*
X172867685Y-98207177D01*
X166617685Y-98207177D01*
X166617685Y-96957185D01*
X166617685Y-95707551D01*
X170367678Y-95707551D01*
X170367678Y-96957185D01*
X172867685Y-96957185D01*
X172867685Y-95707551D01*
X175367701Y-95707551D01*
X175367701Y-96957185D01*
X177867670Y-96957185D01*
X177867670Y-95707551D01*
X175367701Y-95707551D01*
X172867685Y-95707551D01*
X170367678Y-95707551D01*
X166617685Y-95707551D01*
X166617685Y-94457567D01*
G37*
X166617685Y-94457567D02*
X167867670Y-94457567D01*
X167867670Y-93207544D01*
X171617670Y-93207544D01*
X171617670Y-91957551D01*
X176617685Y-91957551D01*
X176617685Y-93207544D01*
X180367662Y-93207544D01*
X180367662Y-94457559D01*
X181617663Y-94457559D01*
X181617663Y-98207544D01*
X180367662Y-98207544D01*
X180367662Y-98207170D01*
X179117685Y-98207170D01*
X179117685Y-99456804D01*
X180367662Y-99456804D01*
X180367662Y-100706827D01*
X179117685Y-100706827D01*
X179117685Y-101956819D01*
X176617685Y-101956819D01*
X176617685Y-100706827D01*
X177867670Y-100706827D01*
X177867670Y-99457193D01*
X175367693Y-99457193D01*
X175367693Y-100706827D01*
X172867685Y-100706827D01*
X172867685Y-99457193D01*
X170367678Y-99457193D01*
X170367678Y-100706827D01*
X171617670Y-100706827D01*
X171617670Y-101956834D01*
X169117685Y-101956834D01*
X169117685Y-100706842D01*
X167867670Y-100706842D01*
X167867670Y-99456819D01*
X169117685Y-99456819D01*
X169117685Y-99456811D01*
X169117685Y-98207185D01*
X166617685Y-98207185D01*
X166617685Y-98207177D01*
X172867685Y-98207177D01*
X172867685Y-99456811D01*
X175367693Y-99456811D01*
X175367693Y-98207177D01*
X172867685Y-98207177D01*
X166617685Y-98207177D01*
X166617685Y-96957185D01*
X166617685Y-95707551D01*
X170367678Y-95707551D01*
X170367678Y-96957185D01*
X172867685Y-96957185D01*
X172867685Y-95707551D01*
X175367701Y-95707551D01*
X175367701Y-96957185D01*
X177867670Y-96957185D01*
X177867670Y-95707551D01*
X175367701Y-95707551D01*
X172867685Y-95707551D01*
X170367678Y-95707551D01*
X166617685Y-95707551D01*
X166617685Y-94457567D01*
G36*
X132267649Y-63857187D02*
G01*
X131017672Y-63857187D01*
X131017672Y-62607198D01*
X132267649Y-62607198D01*
X132267649Y-63857187D01*
G37*
X132267649Y-63857187D02*
X131017672Y-63857187D01*
X131017672Y-62607198D01*
X132267649Y-62607198D01*
X132267649Y-63857187D01*
G36*
X153817675Y-63857187D02*
G01*
X152567690Y-63857187D01*
X152567690Y-62607198D01*
X153817675Y-62607198D01*
X153817675Y-63857187D01*
G37*
X153817675Y-63857187D02*
X152567690Y-63857187D01*
X152567690Y-62607198D01*
X153817675Y-62607198D01*
X153817675Y-63857187D01*
G36*
X175367678Y-62607198D02*
G01*
X172867670Y-62607198D01*
X172867670Y-61357209D01*
X175367678Y-61357209D01*
X175367678Y-62607198D01*
G37*
X175367678Y-62607198D02*
X172867670Y-62607198D01*
X172867670Y-61357209D01*
X175367678Y-61357209D01*
X175367678Y-62607198D01*
G36*
X97293364Y-82907155D02*
G01*
X94795805Y-82907155D01*
X94795805Y-81657167D01*
X97293364Y-81657167D01*
X97293364Y-82907155D01*
G37*
X97293364Y-82907155D02*
X94795805Y-82907155D01*
X94795805Y-81657167D01*
X97293364Y-81657167D01*
X97293364Y-82907155D01*
G36*
X58567690Y-63857187D02*
G01*
X57317705Y-63857187D01*
X57317705Y-62607198D01*
X58567690Y-62607198D01*
X58567690Y-63857187D01*
G37*
X58567690Y-63857187D02*
X57317705Y-63857187D01*
X57317705Y-62607198D01*
X58567690Y-62607198D01*
X58567690Y-63857187D01*
G36*
X113845373Y-74157197D02*
G01*
X112595381Y-74157197D01*
X112595381Y-72907209D01*
X113845373Y-72907209D01*
X113845373Y-74157197D01*
G37*
X113845373Y-74157197D02*
X112595381Y-74157197D01*
X112595381Y-72907209D01*
X113845373Y-72907209D01*
X113845373Y-74157197D01*
G36*
X196917681Y-62607198D02*
G01*
X195667650Y-62607198D01*
X195667650Y-61357209D01*
X196917681Y-61357209D01*
X196917681Y-62607198D01*
G37*
X196917681Y-62607198D02*
X195667650Y-62607198D01*
X195667650Y-61357209D01*
X196917681Y-61357209D01*
X196917681Y-62607198D01*
G36*
X176617670Y-63857187D02*
G01*
X175367678Y-63857187D01*
X175367678Y-62607198D01*
X176617670Y-62607198D01*
X176617670Y-63857187D01*
G37*
X176617670Y-63857187D02*
X175367678Y-63857187D01*
X175367678Y-62607198D01*
X176617670Y-62607198D01*
X176617670Y-63857187D01*
G36*
X85223891Y-115172090D02*
G01*
X86161406Y-115172090D01*
X86161406Y-116109605D01*
X87098906Y-116109605D01*
X87098906Y-117047097D01*
X88036421Y-117047097D01*
X88036421Y-117984590D01*
X88036390Y-117984590D01*
X88036390Y-118922113D01*
X88036421Y-118922113D01*
X88036421Y-123609620D01*
X84286408Y-123609620D01*
X84286408Y-122672097D01*
X83348908Y-122672097D01*
X83348908Y-121734620D01*
X82411392Y-121734620D01*
X82411392Y-120797128D01*
X75848908Y-120797128D01*
X75848908Y-121734620D01*
X74911392Y-121734620D01*
X74911392Y-122672097D01*
X73973908Y-122672097D01*
X73973908Y-123609620D01*
X70223923Y-123609620D01*
X70223923Y-117047097D01*
X71161408Y-117047097D01*
X71161408Y-116109605D01*
X72098892Y-116109605D01*
X72098892Y-115172090D01*
X73036408Y-115172090D01*
X73036408Y-114234597D01*
X85223891Y-114234597D01*
X85223891Y-115172090D01*
G37*
X85223891Y-115172090D02*
X86161406Y-115172090D01*
X86161406Y-116109605D01*
X87098906Y-116109605D01*
X87098906Y-117047097D01*
X88036421Y-117047097D01*
X88036421Y-117984590D01*
X88036390Y-117984590D01*
X88036390Y-118922113D01*
X88036421Y-118922113D01*
X88036421Y-123609620D01*
X84286408Y-123609620D01*
X84286408Y-122672097D01*
X83348908Y-122672097D01*
X83348908Y-121734620D01*
X82411392Y-121734620D01*
X82411392Y-120797128D01*
X75848908Y-120797128D01*
X75848908Y-121734620D01*
X74911392Y-121734620D01*
X74911392Y-122672097D01*
X73973908Y-122672097D01*
X73973908Y-123609620D01*
X70223923Y-123609620D01*
X70223923Y-117047097D01*
X71161408Y-117047097D01*
X71161408Y-116109605D01*
X72098892Y-116109605D01*
X72098892Y-115172090D01*
X73036408Y-115172090D01*
X73036408Y-114234597D01*
X85223891Y-114234597D01*
X85223891Y-115172090D01*
G36*
X189417650Y-63857187D02*
G01*
X188167666Y-63857187D01*
X188167666Y-62607198D01*
X189417650Y-62607198D01*
X189417650Y-63857187D01*
G37*
X189417650Y-63857187D02*
X188167666Y-63857187D01*
X188167666Y-62607198D01*
X189417650Y-62607198D01*
X189417650Y-63857187D01*
G36*
X214717653Y-63857187D02*
G01*
X213467669Y-63857187D01*
X213467669Y-62607198D01*
X214717653Y-62607198D01*
X214717653Y-63857187D01*
G37*
X214717653Y-63857187D02*
X213467669Y-63857187D01*
X213467669Y-62607198D01*
X214717653Y-62607198D01*
X214717653Y-63857187D01*
G36*
X170995363Y-74157197D02*
G01*
X169745371Y-74157197D01*
X169745371Y-72907209D01*
X170995363Y-72907209D01*
X170995363Y-74157197D01*
G37*
X170995363Y-74157197D02*
X169745371Y-74157197D01*
X169745371Y-72907209D01*
X170995363Y-72907209D01*
X170995363Y-74157197D01*
G36*
X216590426Y-74157197D02*
G01*
X215340441Y-74157197D01*
X215340441Y-72907209D01*
X216590426Y-72907209D01*
X216590426Y-74157197D01*
G37*
X216590426Y-74157197D02*
X215340441Y-74157197D01*
X215340441Y-72907209D01*
X216590426Y-72907209D01*
X216590426Y-74157197D01*
G36*
X236468554Y-47740743D02*
G01*
X236981173Y-47740743D01*
X236981173Y-49280010D01*
X236468554Y-49280010D01*
X236468554Y-49792640D01*
X233902636Y-49792640D01*
X233902636Y-49280010D01*
X233390017Y-49280010D01*
X233390017Y-48767379D01*
X234415270Y-48767379D01*
X234415270Y-49280010D01*
X235954546Y-49280010D01*
X235954546Y-47740743D01*
X234415270Y-47740743D01*
X234415270Y-48253373D01*
X233390017Y-48253373D01*
X233390017Y-47740743D01*
X233902636Y-47740743D01*
X233902636Y-47228112D01*
X236468554Y-47228112D01*
X236468554Y-47740743D01*
G37*
X236468554Y-47740743D02*
X236981173Y-47740743D01*
X236981173Y-49280010D01*
X236468554Y-49280010D01*
X236468554Y-49792640D01*
X233902636Y-49792640D01*
X233902636Y-49280010D01*
X233390017Y-49280010D01*
X233390017Y-48767379D01*
X234415270Y-48767379D01*
X234415270Y-49280010D01*
X235954546Y-49280010D01*
X235954546Y-47740743D01*
X234415270Y-47740743D01*
X234415270Y-48253373D01*
X233390017Y-48253373D01*
X233390017Y-47740743D01*
X233902636Y-47740743D01*
X233902636Y-47228112D01*
X236468554Y-47228112D01*
X236468554Y-47740743D01*
G36*
X64817689Y-63857187D02*
G01*
X63567704Y-63857187D01*
X63567704Y-62607198D01*
X64817689Y-62607198D01*
X64817689Y-63857187D01*
G37*
X64817689Y-63857187D02*
X63567704Y-63857187D01*
X63567704Y-62607198D01*
X64817689Y-62607198D01*
X64817689Y-63857187D01*
G36*
X209717669Y-62607198D02*
G01*
X208467653Y-62607198D01*
X208467653Y-61357209D01*
X209717669Y-61357209D01*
X209717669Y-62607198D01*
G37*
X209717669Y-62607198D02*
X208467653Y-62607198D01*
X208467653Y-61357209D01*
X209717669Y-61357209D01*
X209717669Y-62607198D01*
G36*
X56695375Y-74157197D02*
G01*
X55445391Y-74157197D01*
X55445391Y-72907209D01*
X56695375Y-72907209D01*
X56695375Y-74157197D01*
G37*
X56695375Y-74157197D02*
X55445391Y-74157197D01*
X55445391Y-72907209D01*
X56695375Y-72907209D01*
X56695375Y-74157197D01*
G36*
X73867706Y-57607183D02*
G01*
X75117691Y-57607183D01*
X75117691Y-57607179D01*
X76367691Y-57607179D01*
X76367691Y-58857198D01*
X77617676Y-58857198D01*
X77617676Y-57607179D01*
X80117691Y-57607179D01*
X80117691Y-58857198D01*
X81367676Y-58857198D01*
X81367676Y-57607179D01*
X80117691Y-57607179D01*
X77617676Y-57607179D01*
X76367691Y-57607179D01*
X75117691Y-57607179D01*
X75117691Y-56357194D01*
X76367706Y-56357194D01*
X76367706Y-55107206D01*
X77617691Y-55107206D01*
X77617691Y-53857187D01*
X80117691Y-53857187D01*
X80117691Y-55107206D01*
X81367676Y-55107206D01*
X81367676Y-56357194D01*
X82617691Y-56357194D01*
X82617691Y-57607183D01*
X83867676Y-57607183D01*
X83867676Y-60107190D01*
X81367676Y-60107190D01*
X81367676Y-61357209D01*
X80117691Y-61357209D01*
X80117691Y-60107190D01*
X77617691Y-60107190D01*
X77617691Y-61357209D01*
X76367706Y-61357209D01*
X76367706Y-60107190D01*
X73867706Y-60107190D01*
X73867706Y-58857198D01*
X73867706Y-57607183D01*
G37*
X73867706Y-57607183D02*
X75117691Y-57607183D01*
X75117691Y-57607179D01*
X76367691Y-57607179D01*
X76367691Y-58857198D01*
X77617676Y-58857198D01*
X77617676Y-57607179D01*
X80117691Y-57607179D01*
X80117691Y-58857198D01*
X81367676Y-58857198D01*
X81367676Y-57607179D01*
X80117691Y-57607179D01*
X77617676Y-57607179D01*
X76367691Y-57607179D01*
X75117691Y-57607179D01*
X75117691Y-56357194D01*
X76367706Y-56357194D01*
X76367706Y-55107206D01*
X77617691Y-55107206D01*
X77617691Y-53857187D01*
X80117691Y-53857187D01*
X80117691Y-55107206D01*
X81367676Y-55107206D01*
X81367676Y-56357194D01*
X82617691Y-56357194D01*
X82617691Y-57607183D01*
X83867676Y-57607183D01*
X83867676Y-60107190D01*
X81367676Y-60107190D01*
X81367676Y-61357209D01*
X80117691Y-61357209D01*
X80117691Y-60107190D01*
X77617691Y-60107190D01*
X77617691Y-61357209D01*
X76367706Y-61357209D01*
X76367706Y-60107190D01*
X73867706Y-60107190D01*
X73867706Y-58857198D01*
X73867706Y-57607183D01*
G36*
X210967669Y-63857187D02*
G01*
X209717669Y-63857187D01*
X209717669Y-62607198D01*
X210967669Y-62607198D01*
X210967669Y-63857187D01*
G37*
X210967669Y-63857187D02*
X209717669Y-63857187D01*
X209717669Y-62607198D01*
X210967669Y-62607198D01*
X210967669Y-63857187D01*
G36*
X235017672Y-62607198D02*
G01*
X233767656Y-62607198D01*
X233767656Y-61357209D01*
X235017672Y-61357209D01*
X235017672Y-62607198D01*
G37*
X235017672Y-62607198D02*
X233767656Y-62607198D01*
X233767656Y-61357209D01*
X235017672Y-61357209D01*
X235017672Y-62607198D01*
G36*
X187545351Y-77907186D02*
G01*
X187545351Y-76657197D01*
X188795366Y-76657197D01*
X190045794Y-76657197D01*
X190045794Y-77907186D01*
X191293322Y-77907186D01*
X191293322Y-76657197D01*
X195043322Y-76657197D01*
X195043322Y-77907186D01*
X196290880Y-77907186D01*
X196290880Y-76657197D01*
X195043322Y-76657197D01*
X191293322Y-76657197D01*
X190045794Y-76657197D01*
X188795366Y-76657197D01*
X188795366Y-75407178D01*
X190045351Y-75407178D01*
X190045351Y-74157197D01*
X191294878Y-74157197D01*
X191294878Y-75407178D01*
X195039965Y-75407178D01*
X195039965Y-74157197D01*
X196289980Y-74157197D01*
X196289980Y-75407178D01*
X197539965Y-75407178D01*
X197539965Y-76657197D01*
X198789980Y-76657197D01*
X198789980Y-77907186D01*
X200039965Y-77907186D01*
X200039965Y-81657167D01*
X198789995Y-81657167D01*
X198789995Y-79157167D01*
X197539965Y-79157167D01*
X197539965Y-80407186D01*
X197537966Y-80407186D01*
X197537966Y-81657167D01*
X196288439Y-81657167D01*
X196288439Y-82907155D01*
X193790880Y-82907155D01*
X193790880Y-81657167D01*
X196287981Y-81657167D01*
X196287981Y-80407186D01*
X190045351Y-80407186D01*
X190045351Y-81657167D01*
X188795366Y-81657167D01*
X188795366Y-79157167D01*
X187545351Y-79157167D01*
X187545351Y-81657167D01*
X186295366Y-81657167D01*
X186295366Y-77907186D01*
X187545351Y-77907186D01*
G37*
X187545351Y-77907186D02*
X187545351Y-76657197D01*
X188795366Y-76657197D01*
X190045794Y-76657197D01*
X190045794Y-77907186D01*
X191293322Y-77907186D01*
X191293322Y-76657197D01*
X195043322Y-76657197D01*
X195043322Y-77907186D01*
X196290880Y-77907186D01*
X196290880Y-76657197D01*
X195043322Y-76657197D01*
X191293322Y-76657197D01*
X190045794Y-76657197D01*
X188795366Y-76657197D01*
X188795366Y-75407178D01*
X190045351Y-75407178D01*
X190045351Y-74157197D01*
X191294878Y-74157197D01*
X191294878Y-75407178D01*
X195039965Y-75407178D01*
X195039965Y-74157197D01*
X196289980Y-74157197D01*
X196289980Y-75407178D01*
X197539965Y-75407178D01*
X197539965Y-76657197D01*
X198789980Y-76657197D01*
X198789980Y-77907186D01*
X200039965Y-77907186D01*
X200039965Y-81657167D01*
X198789995Y-81657167D01*
X198789995Y-79157167D01*
X197539965Y-79157167D01*
X197539965Y-80407186D01*
X197537966Y-80407186D01*
X197537966Y-81657167D01*
X196288439Y-81657167D01*
X196288439Y-82907155D01*
X193790880Y-82907155D01*
X193790880Y-81657167D01*
X196287981Y-81657167D01*
X196287981Y-80407186D01*
X190045351Y-80407186D01*
X190045351Y-81657167D01*
X188795366Y-81657167D01*
X188795366Y-79157167D01*
X187545351Y-79157167D01*
X187545351Y-81657167D01*
X186295366Y-81657167D01*
X186295366Y-77907186D01*
X187545351Y-77907186D01*
D11*
X203697380Y-52738095D02*
X204506904Y-52738095D01*
X204506904Y-52738095D02*
X204602142Y-52785714D01*
X204602142Y-52785714D02*
X204649761Y-52833333D01*
X204649761Y-52833333D02*
X204697380Y-52928571D01*
X204697380Y-52928571D02*
X204697380Y-53119047D01*
X204697380Y-53119047D02*
X204649761Y-53214285D01*
X204649761Y-53214285D02*
X204602142Y-53261904D01*
X204602142Y-53261904D02*
X204506904Y-53309523D01*
X204506904Y-53309523D02*
X203697380Y-53309523D01*
X203697380Y-53690476D02*
X203697380Y-54309523D01*
X203697380Y-54309523D02*
X204078333Y-53976190D01*
X204078333Y-53976190D02*
X204078333Y-54119047D01*
X204078333Y-54119047D02*
X204125952Y-54214285D01*
X204125952Y-54214285D02*
X204173571Y-54261904D01*
X204173571Y-54261904D02*
X204268809Y-54309523D01*
X204268809Y-54309523D02*
X204506904Y-54309523D01*
X204506904Y-54309523D02*
X204602142Y-54261904D01*
X204602142Y-54261904D02*
X204649761Y-54214285D01*
X204649761Y-54214285D02*
X204697380Y-54119047D01*
X204697380Y-54119047D02*
X204697380Y-53833333D01*
X204697380Y-53833333D02*
X204649761Y-53738095D01*
X204649761Y-53738095D02*
X204602142Y-53690476D01*
X86580952Y-55043571D02*
X86438095Y-55091190D01*
X86438095Y-55091190D02*
X86390476Y-55138809D01*
X86390476Y-55138809D02*
X86342857Y-55234047D01*
X86342857Y-55234047D02*
X86342857Y-55376904D01*
X86342857Y-55376904D02*
X86390476Y-55472142D01*
X86390476Y-55472142D02*
X86438095Y-55519761D01*
X86438095Y-55519761D02*
X86533333Y-55567380D01*
X86533333Y-55567380D02*
X86914285Y-55567380D01*
X86914285Y-55567380D02*
X86914285Y-54567380D01*
X86914285Y-54567380D02*
X86580952Y-54567380D01*
X86580952Y-54567380D02*
X86485714Y-54615000D01*
X86485714Y-54615000D02*
X86438095Y-54662619D01*
X86438095Y-54662619D02*
X86390476Y-54757857D01*
X86390476Y-54757857D02*
X86390476Y-54853095D01*
X86390476Y-54853095D02*
X86438095Y-54948333D01*
X86438095Y-54948333D02*
X86485714Y-54995952D01*
X86485714Y-54995952D02*
X86580952Y-55043571D01*
X86580952Y-55043571D02*
X86914285Y-55043571D01*
X86009523Y-54567380D02*
X85342857Y-54567380D01*
X85342857Y-54567380D02*
X86009523Y-55567380D01*
X86009523Y-55567380D02*
X85342857Y-55567380D01*
X84438095Y-55567380D02*
X85009523Y-55567380D01*
X84723809Y-55567380D02*
X84723809Y-54567380D01*
X84723809Y-54567380D02*
X84819047Y-54710238D01*
X84819047Y-54710238D02*
X84914285Y-54805476D01*
X84914285Y-54805476D02*
X85009523Y-54853095D01*
X124611260Y-52026475D02*
X124658879Y-52169332D01*
X124658879Y-52169332D02*
X124706498Y-52216951D01*
X124706498Y-52216951D02*
X124801736Y-52264570D01*
X124801736Y-52264570D02*
X124944593Y-52264570D01*
X124944593Y-52264570D02*
X125039831Y-52216951D01*
X125039831Y-52216951D02*
X125087450Y-52169332D01*
X125087450Y-52169332D02*
X125135069Y-52074094D01*
X125135069Y-52074094D02*
X125135069Y-51693142D01*
X125135069Y-51693142D02*
X124135069Y-51693142D01*
X124135069Y-51693142D02*
X124135069Y-52026475D01*
X124135069Y-52026475D02*
X124182689Y-52121713D01*
X124182689Y-52121713D02*
X124230308Y-52169332D01*
X124230308Y-52169332D02*
X124325546Y-52216951D01*
X124325546Y-52216951D02*
X124420784Y-52216951D01*
X124420784Y-52216951D02*
X124516022Y-52169332D01*
X124516022Y-52169332D02*
X124563641Y-52121713D01*
X124563641Y-52121713D02*
X124611260Y-52026475D01*
X124611260Y-52026475D02*
X124611260Y-51693142D01*
X124135069Y-52550285D02*
X124135069Y-53121713D01*
X125135069Y-52835999D02*
X124135069Y-52835999D01*
X125135069Y-53978856D02*
X125135069Y-53407428D01*
X125135069Y-53693142D02*
X124135069Y-53693142D01*
X124135069Y-53693142D02*
X124277927Y-53597904D01*
X124277927Y-53597904D02*
X124373165Y-53502666D01*
X124373165Y-53502666D02*
X124420784Y-53407428D01*
X142985069Y-72690523D02*
X142508879Y-72357190D01*
X142985069Y-72119095D02*
X141985069Y-72119095D01*
X141985069Y-72119095D02*
X141985069Y-72500047D01*
X141985069Y-72500047D02*
X142032689Y-72595285D01*
X142032689Y-72595285D02*
X142080308Y-72642904D01*
X142080308Y-72642904D02*
X142175546Y-72690523D01*
X142175546Y-72690523D02*
X142318403Y-72690523D01*
X142318403Y-72690523D02*
X142413641Y-72642904D01*
X142413641Y-72642904D02*
X142461260Y-72595285D01*
X142461260Y-72595285D02*
X142508879Y-72500047D01*
X142508879Y-72500047D02*
X142508879Y-72119095D01*
X142985069Y-73642904D02*
X142985069Y-73071476D01*
X142985069Y-73357190D02*
X141985069Y-73357190D01*
X141985069Y-73357190D02*
X142127927Y-73261952D01*
X142127927Y-73261952D02*
X142223165Y-73166714D01*
X142223165Y-73166714D02*
X142270784Y-73071476D01*
X145879593Y-83524570D02*
X145879593Y-84334094D01*
X145879593Y-84334094D02*
X145831974Y-84429332D01*
X145831974Y-84429332D02*
X145784355Y-84476951D01*
X145784355Y-84476951D02*
X145689117Y-84524570D01*
X145689117Y-84524570D02*
X145498641Y-84524570D01*
X145498641Y-84524570D02*
X145403403Y-84476951D01*
X145403403Y-84476951D02*
X145355784Y-84429332D01*
X145355784Y-84429332D02*
X145308165Y-84334094D01*
X145308165Y-84334094D02*
X145308165Y-83524570D01*
X144308165Y-84524570D02*
X144879593Y-84524570D01*
X144593879Y-84524570D02*
X144593879Y-83524570D01*
X144593879Y-83524570D02*
X144689117Y-83667428D01*
X144689117Y-83667428D02*
X144784355Y-83762666D01*
X144784355Y-83762666D02*
X144879593Y-83810285D01*
X150459831Y-81790523D02*
X150507450Y-81742904D01*
X150507450Y-81742904D02*
X150555069Y-81600047D01*
X150555069Y-81600047D02*
X150555069Y-81504809D01*
X150555069Y-81504809D02*
X150507450Y-81361952D01*
X150507450Y-81361952D02*
X150412212Y-81266714D01*
X150412212Y-81266714D02*
X150316974Y-81219095D01*
X150316974Y-81219095D02*
X150126498Y-81171476D01*
X150126498Y-81171476D02*
X149983641Y-81171476D01*
X149983641Y-81171476D02*
X149793165Y-81219095D01*
X149793165Y-81219095D02*
X149697927Y-81266714D01*
X149697927Y-81266714D02*
X149602689Y-81361952D01*
X149602689Y-81361952D02*
X149555069Y-81504809D01*
X149555069Y-81504809D02*
X149555069Y-81600047D01*
X149555069Y-81600047D02*
X149602689Y-81742904D01*
X149602689Y-81742904D02*
X149650308Y-81790523D01*
X150555069Y-82742904D02*
X150555069Y-82171476D01*
X150555069Y-82457190D02*
X149555069Y-82457190D01*
X149555069Y-82457190D02*
X149697927Y-82361952D01*
X149697927Y-82361952D02*
X149793165Y-82266714D01*
X149793165Y-82266714D02*
X149840784Y-82171476D01*
X47564285Y-51674570D02*
X47564285Y-50674570D01*
X47564285Y-50674570D02*
X47326190Y-50674570D01*
X47326190Y-50674570D02*
X47183333Y-50722190D01*
X47183333Y-50722190D02*
X47088095Y-50817428D01*
X47088095Y-50817428D02*
X47040476Y-50912666D01*
X47040476Y-50912666D02*
X46992857Y-51103142D01*
X46992857Y-51103142D02*
X46992857Y-51245999D01*
X46992857Y-51245999D02*
X47040476Y-51436475D01*
X47040476Y-51436475D02*
X47088095Y-51531713D01*
X47088095Y-51531713D02*
X47183333Y-51626951D01*
X47183333Y-51626951D02*
X47326190Y-51674570D01*
X47326190Y-51674570D02*
X47564285Y-51674570D01*
X46659523Y-50674570D02*
X46040476Y-50674570D01*
X46040476Y-50674570D02*
X46373809Y-51055523D01*
X46373809Y-51055523D02*
X46230952Y-51055523D01*
X46230952Y-51055523D02*
X46135714Y-51103142D01*
X46135714Y-51103142D02*
X46088095Y-51150761D01*
X46088095Y-51150761D02*
X46040476Y-51245999D01*
X46040476Y-51245999D02*
X46040476Y-51484094D01*
X46040476Y-51484094D02*
X46088095Y-51579332D01*
X46088095Y-51579332D02*
X46135714Y-51626951D01*
X46135714Y-51626951D02*
X46230952Y-51674570D01*
X46230952Y-51674570D02*
X46516666Y-51674570D01*
X46516666Y-51674570D02*
X46611904Y-51626951D01*
X46611904Y-51626951D02*
X46659523Y-51579332D01*
X45564285Y-51674570D02*
X45373809Y-51674570D01*
X45373809Y-51674570D02*
X45278571Y-51626951D01*
X45278571Y-51626951D02*
X45230952Y-51579332D01*
X45230952Y-51579332D02*
X45135714Y-51436475D01*
X45135714Y-51436475D02*
X45088095Y-51245999D01*
X45088095Y-51245999D02*
X45088095Y-50865047D01*
X45088095Y-50865047D02*
X45135714Y-50769809D01*
X45135714Y-50769809D02*
X45183333Y-50722190D01*
X45183333Y-50722190D02*
X45278571Y-50674570D01*
X45278571Y-50674570D02*
X45469047Y-50674570D01*
X45469047Y-50674570D02*
X45564285Y-50722190D01*
X45564285Y-50722190D02*
X45611904Y-50769809D01*
X45611904Y-50769809D02*
X45659523Y-50865047D01*
X45659523Y-50865047D02*
X45659523Y-51103142D01*
X45659523Y-51103142D02*
X45611904Y-51198380D01*
X45611904Y-51198380D02*
X45564285Y-51245999D01*
X45564285Y-51245999D02*
X45469047Y-51293618D01*
X45469047Y-51293618D02*
X45278571Y-51293618D01*
X45278571Y-51293618D02*
X45183333Y-51245999D01*
X45183333Y-51245999D02*
X45135714Y-51198380D01*
X45135714Y-51198380D02*
X45088095Y-51103142D01*
D12*
X44077689Y-52607190D02*
X44077689Y-40807190D01*
X31877689Y-52607190D02*
X31877689Y-50207190D01*
X35977689Y-52607190D02*
X31877689Y-52607190D01*
X39977689Y-52607190D02*
X44077689Y-52607190D01*
X31877689Y-43207190D02*
X31877689Y-40807190D01*
X38477689Y-46707190D02*
X37477689Y-46707190D01*
X31877689Y-48007190D02*
X31877689Y-45407190D01*
X37977689Y-47207190D02*
X37977689Y-46207190D01*
X31877689Y-40807190D02*
X35977689Y-40807190D01*
X39977689Y-40807190D02*
X44077689Y-40807190D01*
X40977689Y-46707190D02*
G75*
G03*
X40977689Y-46707190I-3000000J0D01*
G01*
X91300000Y-54300000D02*
X91300000Y-51050000D01*
X80100000Y-54300000D02*
X91300000Y-54300000D01*
X91300000Y-48350000D02*
X91300000Y-45100000D01*
X80100000Y-51050000D02*
X80100000Y-54300000D01*
X91300000Y-45100000D02*
X80100000Y-45100000D01*
X80100000Y-45100000D02*
X80100000Y-48350000D01*
D13*
X241683314Y-76432190D02*
X241683314Y-76032190D01*
X241683314Y-76032190D02*
X241133314Y-76032190D01*
X241683314Y-76032190D02*
X242233314Y-76032190D01*
X241683314Y-76032190D02*
X242083314Y-75432190D01*
X241283314Y-75432190D02*
X241683314Y-76032190D01*
X241683314Y-75432190D02*
X241683314Y-74932190D01*
X242083314Y-75432190D02*
X241283314Y-75432190D01*
X134527064Y-138344690D02*
X134527064Y-137944690D01*
X134527064Y-137944690D02*
X133977064Y-137944690D01*
X134527064Y-137944690D02*
X135077064Y-137944690D01*
X134527064Y-137944690D02*
X134927064Y-137344690D01*
X134127064Y-137344690D02*
X134527064Y-137944690D01*
X134527064Y-137344690D02*
X134527064Y-136844690D01*
X134927064Y-137344690D02*
X134127064Y-137344690D01*
X184533314Y-76432190D02*
X184533314Y-76032190D01*
X184533314Y-76032190D02*
X183983314Y-76032190D01*
X184533314Y-76032190D02*
X185083314Y-76032190D01*
X184533314Y-76032190D02*
X184933314Y-75432190D01*
X184133314Y-75432190D02*
X184533314Y-76032190D01*
X184533314Y-75432190D02*
X184533314Y-74932190D01*
X184933314Y-75432190D02*
X184133314Y-75432190D01*
D12*
X118257689Y-55042190D02*
X118257689Y-52807190D01*
X123977689Y-55042190D02*
X118257689Y-55042190D01*
X123677689Y-53972190D02*
X123977689Y-53972190D01*
X123977689Y-53972190D02*
X123977689Y-55042190D01*
X123967689Y-53682190D02*
X124267689Y-53682190D01*
X124267689Y-53682190D02*
X124267689Y-54182190D01*
X123677689Y-52807190D02*
X123677689Y-53972190D01*
X123677689Y-52807190D02*
X123677689Y-51642190D01*
X123677689Y-51642190D02*
X123977689Y-51642190D01*
X123977689Y-51642190D02*
X123977689Y-50572190D01*
X118257689Y-50572190D02*
X118257689Y-52807190D01*
X123977689Y-50572190D02*
X118257689Y-50572190D01*
D13*
X108333314Y-76432190D02*
X108333314Y-76032190D01*
X108333314Y-76032190D02*
X107783314Y-76032190D01*
X108333314Y-76032190D02*
X108883314Y-76032190D01*
X108333314Y-76032190D02*
X108733314Y-75432190D01*
X107933314Y-75432190D02*
X108333314Y-76032190D01*
X108333314Y-75432190D02*
X108333314Y-74932190D01*
X108733314Y-75432190D02*
X107933314Y-75432190D01*
D12*
X156882689Y-59784254D02*
X156882689Y-59330126D01*
X158352689Y-59784254D02*
X158352689Y-59330126D01*
D13*
X144052064Y-114532190D02*
X144052064Y-114132190D01*
X144052064Y-114132190D02*
X143502064Y-114132190D01*
X144052064Y-114132190D02*
X144602064Y-114132190D01*
X144052064Y-114132190D02*
X144452064Y-113532190D01*
X143652064Y-113532190D02*
X144052064Y-114132190D01*
X144052064Y-113532190D02*
X144052064Y-113032190D01*
X144452064Y-113532190D02*
X143652064Y-113532190D01*
X48802064Y-95482190D02*
X48802064Y-95082190D01*
X48802064Y-95082190D02*
X48252064Y-95082190D01*
X48802064Y-95082190D02*
X49352064Y-95082190D01*
X48802064Y-95082190D02*
X49202064Y-94482190D01*
X48402064Y-94482190D02*
X48802064Y-95082190D01*
X48802064Y-94482190D02*
X48802064Y-93982190D01*
X49202064Y-94482190D02*
X48402064Y-94482190D01*
X182152064Y-95482190D02*
X182152064Y-95082190D01*
X182152064Y-95082190D02*
X181602064Y-95082190D01*
X182152064Y-95082190D02*
X182702064Y-95082190D01*
X182152064Y-95082190D02*
X182552064Y-94482190D01*
X181752064Y-94482190D02*
X182152064Y-95082190D01*
X182152064Y-94482190D02*
X182152064Y-93982190D01*
X182552064Y-94482190D02*
X181752064Y-94482190D01*
X108333314Y-114532190D02*
X108333314Y-114132190D01*
X108333314Y-114132190D02*
X107783314Y-114132190D01*
X108333314Y-114132190D02*
X108883314Y-114132190D01*
X108333314Y-114132190D02*
X108733314Y-113532190D01*
X107933314Y-113532190D02*
X108333314Y-114132190D01*
X108333314Y-113532190D02*
X108333314Y-113032190D01*
X108733314Y-113532190D02*
X107933314Y-113532190D01*
X67852064Y-76432190D02*
X67852064Y-76032190D01*
X67852064Y-76032190D02*
X67302064Y-76032190D01*
X67852064Y-76032190D02*
X68402064Y-76032190D01*
X67852064Y-76032190D02*
X68252064Y-75432190D01*
X67452064Y-75432190D02*
X67852064Y-76032190D01*
X67852064Y-75432190D02*
X67852064Y-74932190D01*
X68252064Y-75432190D02*
X67452064Y-75432190D01*
X105952064Y-114532190D02*
X105952064Y-114132190D01*
X105952064Y-114132190D02*
X105402064Y-114132190D01*
X105952064Y-114132190D02*
X106502064Y-114132190D01*
X105952064Y-114132190D02*
X106352064Y-113532190D01*
X105552064Y-113532190D02*
X105952064Y-114132190D01*
X105952064Y-113532190D02*
X105952064Y-113032190D01*
X106352064Y-113532190D02*
X105552064Y-113532190D01*
D12*
X145002689Y-72630126D02*
X145002689Y-73084254D01*
X143532689Y-72630126D02*
X143532689Y-73084254D01*
D13*
X127383314Y-76432190D02*
X127383314Y-76032190D01*
X127383314Y-76032190D02*
X126833314Y-76032190D01*
X127383314Y-76032190D02*
X127933314Y-76032190D01*
X127383314Y-76032190D02*
X127783314Y-75432190D01*
X126983314Y-75432190D02*
X127383314Y-76032190D01*
X127383314Y-75432190D02*
X127383314Y-74932190D01*
X127783314Y-75432190D02*
X126983314Y-75432190D01*
X220252064Y-114532190D02*
X220252064Y-114132190D01*
X220252064Y-114132190D02*
X219702064Y-114132190D01*
X220252064Y-114132190D02*
X220802064Y-114132190D01*
X220252064Y-114132190D02*
X220652064Y-113532190D01*
X219852064Y-113532190D02*
X220252064Y-114132190D01*
X220252064Y-113532190D02*
X220252064Y-113032190D01*
X220652064Y-113532190D02*
X219852064Y-113532190D01*
D12*
X145117689Y-75272190D02*
X142917689Y-75272190D01*
X145117689Y-75272190D02*
X147317689Y-75272190D01*
X145117689Y-83342190D02*
X141517689Y-83342190D01*
X145117689Y-83342190D02*
X147317689Y-83342190D01*
D13*
X136908314Y-138344690D02*
X136908314Y-137944690D01*
X136908314Y-137944690D02*
X136358314Y-137944690D01*
X136908314Y-137944690D02*
X137458314Y-137944690D01*
X136908314Y-137944690D02*
X137308314Y-137344690D01*
X136508314Y-137344690D02*
X136908314Y-137944690D01*
X136908314Y-137344690D02*
X136908314Y-136844690D01*
X137308314Y-137344690D02*
X136508314Y-137344690D01*
X48802064Y-133582190D02*
X48802064Y-133182190D01*
X48802064Y-133182190D02*
X48252064Y-133182190D01*
X48802064Y-133182190D02*
X49352064Y-133182190D01*
X48802064Y-133182190D02*
X49202064Y-132582190D01*
X48402064Y-132582190D02*
X48802064Y-133182190D01*
X48802064Y-132582190D02*
X48802064Y-132082190D01*
X49202064Y-132582190D02*
X48402064Y-132582190D01*
D12*
X158352689Y-55080126D02*
X158352689Y-55534254D01*
X156882689Y-55080126D02*
X156882689Y-55534254D01*
D13*
X222633314Y-95482190D02*
X222633314Y-95082190D01*
X222633314Y-95082190D02*
X222083314Y-95082190D01*
X222633314Y-95082190D02*
X223183314Y-95082190D01*
X222633314Y-95082190D02*
X223033314Y-94482190D01*
X222233314Y-94482190D02*
X222633314Y-95082190D01*
X222633314Y-94482190D02*
X222633314Y-93982190D01*
X223033314Y-94482190D02*
X222233314Y-94482190D01*
X184533314Y-114532190D02*
X184533314Y-114132190D01*
X184533314Y-114132190D02*
X183983314Y-114132190D01*
X184533314Y-114132190D02*
X185083314Y-114132190D01*
X184533314Y-114132190D02*
X184933314Y-113532190D01*
X184133314Y-113532190D02*
X184533314Y-114132190D01*
X184533314Y-113532190D02*
X184533314Y-113032190D01*
X184933314Y-113532190D02*
X184133314Y-113532190D01*
X184533314Y-95482190D02*
X184533314Y-95082190D01*
X184533314Y-95082190D02*
X183983314Y-95082190D01*
X184533314Y-95082190D02*
X185083314Y-95082190D01*
X184533314Y-95082190D02*
X184933314Y-94482190D01*
X184133314Y-94482190D02*
X184533314Y-95082190D01*
X184533314Y-94482190D02*
X184533314Y-93982190D01*
X184933314Y-94482190D02*
X184133314Y-94482190D01*
X70233314Y-76432190D02*
X70233314Y-76032190D01*
X70233314Y-76032190D02*
X69683314Y-76032190D01*
X70233314Y-76032190D02*
X70783314Y-76032190D01*
X70233314Y-76032190D02*
X70633314Y-75432190D01*
X69833314Y-75432190D02*
X70233314Y-76032190D01*
X70233314Y-75432190D02*
X70233314Y-74932190D01*
X70633314Y-75432190D02*
X69833314Y-75432190D01*
X182152064Y-76432190D02*
X182152064Y-76032190D01*
X182152064Y-76032190D02*
X181602064Y-76032190D01*
X182152064Y-76032190D02*
X182702064Y-76032190D01*
X182152064Y-76032190D02*
X182552064Y-75432190D01*
X181752064Y-75432190D02*
X182152064Y-76032190D01*
X182152064Y-75432190D02*
X182152064Y-74932190D01*
X182552064Y-75432190D02*
X181752064Y-75432190D01*
X222633314Y-114532190D02*
X222633314Y-114132190D01*
X222633314Y-114132190D02*
X222083314Y-114132190D01*
X222633314Y-114132190D02*
X223183314Y-114132190D01*
X222633314Y-114132190D02*
X223033314Y-113532190D01*
X222233314Y-113532190D02*
X222633314Y-114132190D01*
X222633314Y-113532190D02*
X222633314Y-113032190D01*
X223033314Y-113532190D02*
X222233314Y-113532190D01*
X108333314Y-95482190D02*
X108333314Y-95082190D01*
X108333314Y-95082190D02*
X107783314Y-95082190D01*
X108333314Y-95082190D02*
X108883314Y-95082190D01*
X108333314Y-95082190D02*
X108733314Y-94482190D01*
X107933314Y-94482190D02*
X108333314Y-95082190D01*
X108333314Y-94482190D02*
X108333314Y-93982190D01*
X108733314Y-94482190D02*
X107933314Y-94482190D01*
X67852064Y-114532190D02*
X67852064Y-114132190D01*
X67852064Y-114132190D02*
X67302064Y-114132190D01*
X67852064Y-114132190D02*
X68402064Y-114132190D01*
X67852064Y-114132190D02*
X68252064Y-113532190D01*
X67452064Y-113532190D02*
X67852064Y-114132190D01*
X67852064Y-113532190D02*
X67852064Y-113032190D01*
X68252064Y-113532190D02*
X67452064Y-113532190D01*
X211917689Y-133582190D02*
X211917689Y-133182190D01*
X211917689Y-133182190D02*
X211367689Y-133182190D01*
X211917689Y-133182190D02*
X212467689Y-133182190D01*
X211917689Y-133182190D02*
X212317689Y-132582190D01*
X211517689Y-132582190D02*
X211917689Y-133182190D01*
X211917689Y-132582190D02*
X211917689Y-132082190D01*
X212317689Y-132582190D02*
X211517689Y-132582190D01*
X70233314Y-114532190D02*
X70233314Y-114132190D01*
X70233314Y-114132190D02*
X69683314Y-114132190D01*
X70233314Y-114132190D02*
X70783314Y-114132190D01*
X70233314Y-114132190D02*
X70633314Y-113532190D01*
X69833314Y-113532190D02*
X70233314Y-114132190D01*
X70233314Y-113532190D02*
X70233314Y-113032190D01*
X70633314Y-113532190D02*
X69833314Y-113532190D01*
D12*
X152602689Y-81695938D02*
X152602689Y-82218442D01*
X151132689Y-81695938D02*
X151132689Y-82218442D01*
D13*
X250017689Y-133582190D02*
X250017689Y-133182190D01*
X250017689Y-133182190D02*
X249467689Y-133182190D01*
X250017689Y-133182190D02*
X250567689Y-133182190D01*
X250017689Y-133182190D02*
X250417689Y-132582190D01*
X249617689Y-132582190D02*
X250017689Y-133182190D01*
X250017689Y-132582190D02*
X250017689Y-132082190D01*
X250417689Y-132582190D02*
X249617689Y-132582190D01*
D12*
X48710000Y-54307190D02*
X44700000Y-54307190D01*
X48710000Y-52307190D02*
X48710000Y-54307190D01*
X48710000Y-52307190D02*
X44700000Y-52307190D01*
D13*
X220252064Y-76432190D02*
X220252064Y-76032190D01*
X220252064Y-76032190D02*
X219702064Y-76032190D01*
X220252064Y-76032190D02*
X220802064Y-76032190D01*
X220252064Y-76032190D02*
X220652064Y-75432190D01*
X219852064Y-75432190D02*
X220252064Y-76032190D01*
X220252064Y-75432190D02*
X220252064Y-74932190D01*
X220652064Y-75432190D02*
X219852064Y-75432190D01*
X105952064Y-95482190D02*
X105952064Y-95082190D01*
X105952064Y-95082190D02*
X105402064Y-95082190D01*
X105952064Y-95082190D02*
X106502064Y-95082190D01*
X105952064Y-95082190D02*
X106352064Y-94482190D01*
X105552064Y-94482190D02*
X105952064Y-95082190D01*
X105952064Y-94482190D02*
X105952064Y-93982190D01*
X106352064Y-94482190D02*
X105552064Y-94482190D01*
X67852064Y-95482190D02*
X67852064Y-95082190D01*
X67852064Y-95082190D02*
X67302064Y-95082190D01*
X67852064Y-95082190D02*
X68402064Y-95082190D01*
X67852064Y-95082190D02*
X68252064Y-94482190D01*
X67452064Y-94482190D02*
X67852064Y-95082190D01*
X67852064Y-94482190D02*
X67852064Y-93982190D01*
X68252064Y-94482190D02*
X67452064Y-94482190D01*
X70233314Y-95482190D02*
X70233314Y-95082190D01*
X70233314Y-95082190D02*
X69683314Y-95082190D01*
X70233314Y-95082190D02*
X70783314Y-95082190D01*
X70233314Y-95082190D02*
X70633314Y-94482190D01*
X69833314Y-94482190D02*
X70233314Y-95082190D01*
X70233314Y-94482190D02*
X70233314Y-93982190D01*
X70633314Y-94482190D02*
X69833314Y-94482190D01*
X241683314Y-114532190D02*
X241683314Y-114132190D01*
X241683314Y-114132190D02*
X241133314Y-114132190D01*
X241683314Y-114132190D02*
X242233314Y-114132190D01*
X241683314Y-114132190D02*
X242083314Y-113532190D01*
X241283314Y-113532190D02*
X241683314Y-114132190D01*
X241683314Y-113532190D02*
X241683314Y-113032190D01*
X242083314Y-113532190D02*
X241283314Y-113532190D01*
X153577064Y-138344690D02*
X153577064Y-137944690D01*
X153577064Y-137944690D02*
X153027064Y-137944690D01*
X153577064Y-137944690D02*
X154127064Y-137944690D01*
X153577064Y-137944690D02*
X153977064Y-137344690D01*
X153177064Y-137344690D02*
X153577064Y-137944690D01*
X153577064Y-137344690D02*
X153577064Y-136844690D01*
X153977064Y-137344690D02*
X153177064Y-137344690D01*
X48802064Y-76432190D02*
X48802064Y-76032190D01*
X48802064Y-76032190D02*
X48252064Y-76032190D01*
X48802064Y-76032190D02*
X49352064Y-76032190D01*
X48802064Y-76032190D02*
X49202064Y-75432190D01*
X48402064Y-75432190D02*
X48802064Y-76032190D01*
X48802064Y-75432190D02*
X48802064Y-74932190D01*
X49202064Y-75432190D02*
X48402064Y-75432190D01*
X78567689Y-133582190D02*
X78567689Y-133182190D01*
X78567689Y-133182190D02*
X78017689Y-133182190D01*
X78567689Y-133182190D02*
X79117689Y-133182190D01*
X78567689Y-133182190D02*
X78967689Y-132582190D01*
X78167689Y-132582190D02*
X78567689Y-133182190D01*
X78567689Y-132582190D02*
X78567689Y-132082190D01*
X78967689Y-132582190D02*
X78167689Y-132582190D01*
X144052064Y-95482190D02*
X144052064Y-95082190D01*
X144052064Y-95082190D02*
X143502064Y-95082190D01*
X144052064Y-95082190D02*
X144602064Y-95082190D01*
X144052064Y-95082190D02*
X144452064Y-94482190D01*
X143652064Y-94482190D02*
X144052064Y-95082190D01*
X144052064Y-94482190D02*
X144052064Y-93982190D01*
X144452064Y-94482190D02*
X143652064Y-94482190D01*
X220252064Y-95482190D02*
X220252064Y-95082190D01*
X220252064Y-95082190D02*
X219702064Y-95082190D01*
X220252064Y-95082190D02*
X220802064Y-95082190D01*
X220252064Y-95082190D02*
X220652064Y-94482190D01*
X219852064Y-94482190D02*
X220252064Y-95082190D01*
X220252064Y-94482190D02*
X220252064Y-93982190D01*
X220652064Y-94482190D02*
X219852064Y-94482190D01*
X182152064Y-114532190D02*
X182152064Y-114132190D01*
X182152064Y-114132190D02*
X181602064Y-114132190D01*
X182152064Y-114132190D02*
X182702064Y-114132190D01*
X182152064Y-114132190D02*
X182552064Y-113532190D01*
X181752064Y-113532190D02*
X182152064Y-114132190D01*
X182152064Y-113532190D02*
X182152064Y-113032190D01*
X182552064Y-113532190D02*
X181752064Y-113532190D01*
X59517689Y-133582190D02*
X59517689Y-133182190D01*
X59517689Y-133182190D02*
X58967689Y-133182190D01*
X59517689Y-133182190D02*
X60067689Y-133182190D01*
X59517689Y-133182190D02*
X59917689Y-132582190D01*
X59117689Y-132582190D02*
X59517689Y-133182190D01*
X59517689Y-132582190D02*
X59517689Y-132082190D01*
X59917689Y-132582190D02*
X59117689Y-132582190D01*
X222633314Y-76432190D02*
X222633314Y-76032190D01*
X222633314Y-76032190D02*
X222083314Y-76032190D01*
X222633314Y-76032190D02*
X223183314Y-76032190D01*
X222633314Y-76032190D02*
X223033314Y-75432190D01*
X222233314Y-75432190D02*
X222633314Y-76032190D01*
X222633314Y-75432190D02*
X222633314Y-74932190D01*
X223033314Y-75432190D02*
X222233314Y-75432190D01*
X48802064Y-114532190D02*
X48802064Y-114132190D01*
X48802064Y-114132190D02*
X48252064Y-114132190D01*
X48802064Y-114132190D02*
X49352064Y-114132190D01*
X48802064Y-114132190D02*
X49202064Y-113532190D01*
X48402064Y-113532190D02*
X48802064Y-114132190D01*
X48802064Y-113532190D02*
X48802064Y-113032190D01*
X49202064Y-113532190D02*
X48402064Y-113532190D01*
X155958314Y-138344690D02*
X155958314Y-137944690D01*
X155958314Y-137944690D02*
X155408314Y-137944690D01*
X155958314Y-137944690D02*
X156508314Y-137944690D01*
X155958314Y-137944690D02*
X156358314Y-137344690D01*
X155558314Y-137344690D02*
X155958314Y-137944690D01*
X155958314Y-137344690D02*
X155958314Y-136844690D01*
X156358314Y-137344690D02*
X155558314Y-137344690D01*
X241683314Y-95482190D02*
X241683314Y-95082190D01*
X241683314Y-95082190D02*
X241133314Y-95082190D01*
X241683314Y-95082190D02*
X242233314Y-95082190D01*
X241683314Y-95082190D02*
X242083314Y-94482190D01*
X241283314Y-94482190D02*
X241683314Y-95082190D01*
X241683314Y-94482190D02*
X241683314Y-93982190D01*
X242083314Y-94482190D02*
X241283314Y-94482190D01*
X105952064Y-76432190D02*
X105952064Y-76032190D01*
X105952064Y-76032190D02*
X105402064Y-76032190D01*
X105952064Y-76032190D02*
X106502064Y-76032190D01*
X105952064Y-76032190D02*
X106352064Y-75432190D01*
X105552064Y-75432190D02*
X105952064Y-76032190D01*
X105952064Y-75432190D02*
X105952064Y-74932190D01*
X106352064Y-75432190D02*
X105552064Y-75432190D01*
X146433314Y-114532190D02*
X146433314Y-114132190D01*
X146433314Y-114132190D02*
X145883314Y-114132190D01*
X146433314Y-114132190D02*
X146983314Y-114132190D01*
X146433314Y-114132190D02*
X146833314Y-113532190D01*
X146033314Y-113532190D02*
X146433314Y-114132190D01*
X146433314Y-113532190D02*
X146433314Y-113032190D01*
X146833314Y-113532190D02*
X146033314Y-113532190D01*
X163102064Y-76432190D02*
X163102064Y-76032190D01*
X163102064Y-76032190D02*
X162552064Y-76032190D01*
X163102064Y-76032190D02*
X163652064Y-76032190D01*
X163102064Y-76032190D02*
X163502064Y-75432190D01*
X162702064Y-75432190D02*
X163102064Y-76032190D01*
X163102064Y-75432190D02*
X163102064Y-74932190D01*
X163502064Y-75432190D02*
X162702064Y-75432190D01*
X230967689Y-133582190D02*
X230967689Y-133182190D01*
X230967689Y-133182190D02*
X230417689Y-133182190D01*
X230967689Y-133182190D02*
X231517689Y-133182190D01*
X230967689Y-133182190D02*
X231367689Y-132582190D01*
X230567689Y-132582190D02*
X230967689Y-133182190D01*
X230967689Y-132582190D02*
X230967689Y-132082190D01*
X231367689Y-132582190D02*
X230567689Y-132582190D01*
X146433314Y-95482190D02*
X146433314Y-95082190D01*
X146433314Y-95082190D02*
X145883314Y-95082190D01*
X146433314Y-95082190D02*
X146983314Y-95082190D01*
X146433314Y-95082190D02*
X146833314Y-94482190D01*
X146033314Y-94482190D02*
X146433314Y-95082190D01*
X146433314Y-94482190D02*
X146433314Y-93982190D01*
X146833314Y-94482190D02*
X146033314Y-94482190D01*
%LPC*%
D14*
X45477689Y-49207190D03*
X45477689Y-44207190D03*
X45477689Y-46707190D03*
D15*
X37977688Y-41107189D03*
X37977688Y-52307189D03*
D14*
X30977689Y-44207190D03*
X30977689Y-49207190D03*
D16*
X191599999Y-48419999D03*
X191599999Y-50959999D03*
X191599999Y-53499999D03*
X191599999Y-56039999D03*
D17*
X191600000Y-58580000D03*
D18*
X92299999Y-49699999D03*
X79099999Y-49699999D03*
D19*
X255097689Y-85207190D03*
D20*
X253827689Y-87747190D03*
D21*
X250017689Y-85207190D03*
D20*
X247477689Y-90287190D03*
D19*
X244937689Y-85207190D03*
D22*
X257102688Y-87747189D03*
X244175688Y-90287189D03*
D19*
X123493939Y-128069690D03*
D20*
X124763939Y-125529690D03*
D21*
X128573939Y-128069690D03*
D20*
X131113939Y-122989690D03*
D19*
X133653939Y-128069690D03*
D22*
X121488938Y-125529689D03*
X134415938Y-122989689D03*
D19*
X64597689Y-66157190D03*
D20*
X63327689Y-68697190D03*
D21*
X59517689Y-66157190D03*
D20*
X56977689Y-71237190D03*
D19*
X54437689Y-66157190D03*
D22*
X66602688Y-68697189D03*
X53675688Y-71237189D03*
D19*
X159847689Y-66157190D03*
D20*
X158577689Y-68697190D03*
D21*
X154767689Y-66157190D03*
D20*
X152227689Y-71237190D03*
D19*
X149687689Y-66157190D03*
D22*
X161852688Y-68697189D03*
X148925688Y-71237189D03*
D19*
X64597689Y-104257190D03*
D20*
X63327689Y-106797190D03*
D21*
X59517689Y-104257190D03*
D20*
X56977689Y-109337190D03*
D19*
X54437689Y-104257190D03*
D22*
X66602688Y-106797189D03*
X53675688Y-109337189D03*
D19*
X159847689Y-104257190D03*
D20*
X158577689Y-106797190D03*
D21*
X154767689Y-104257190D03*
D20*
X152227689Y-109337190D03*
D19*
X149687689Y-104257190D03*
D22*
X161852688Y-106797189D03*
X148925688Y-109337189D03*
D19*
X178897689Y-85207190D03*
D20*
X177627689Y-87747190D03*
D21*
X173817689Y-85207190D03*
D20*
X171277689Y-90287190D03*
D19*
X168737689Y-85207190D03*
D22*
X180902688Y-87747189D03*
X167975688Y-90287189D03*
D19*
X102697689Y-66157190D03*
D20*
X101427689Y-68697190D03*
D21*
X97617689Y-66157190D03*
D20*
X95077689Y-71237190D03*
D19*
X92537689Y-66157190D03*
D22*
X104702688Y-68697189D03*
X91775688Y-71237189D03*
D19*
X45547689Y-85207190D03*
D20*
X44277689Y-87747190D03*
D21*
X40467689Y-85207190D03*
D20*
X37927689Y-90287190D03*
D19*
X35387689Y-85207190D03*
D22*
X47552688Y-87747189D03*
X34625688Y-90287189D03*
D19*
X216997689Y-66157190D03*
D20*
X215727689Y-68697190D03*
D21*
X211917689Y-66157190D03*
D20*
X209377689Y-71237190D03*
D19*
X206837689Y-66157190D03*
D22*
X219002688Y-68697189D03*
X206075688Y-71237189D03*
D23*
X264067688Y-51067189D03*
X264067688Y-48527189D03*
X264067688Y-45987189D03*
X264067688Y-43447189D03*
D19*
X45547689Y-66157190D03*
D20*
X44277689Y-68697190D03*
D21*
X40467689Y-66157190D03*
D20*
X37927689Y-71237190D03*
D19*
X35387689Y-66157190D03*
D22*
X47552688Y-68697189D03*
X34625688Y-71237189D03*
D19*
X255097689Y-66157190D03*
D20*
X253827689Y-68697190D03*
D21*
X250017689Y-66157190D03*
D20*
X247477689Y-71237190D03*
D19*
X244937689Y-66157190D03*
D22*
X257102688Y-68697189D03*
X244175688Y-71237189D03*
D19*
X83647689Y-66157190D03*
D20*
X82377689Y-68697190D03*
D21*
X78567689Y-66157190D03*
D20*
X76027689Y-71237190D03*
D19*
X73487689Y-66157190D03*
D22*
X85652688Y-68697189D03*
X72725688Y-71237189D03*
D19*
X102697689Y-104257190D03*
D20*
X101427689Y-106797190D03*
D21*
X97617689Y-104257190D03*
D20*
X95077689Y-109337190D03*
D19*
X92537689Y-104257190D03*
D22*
X104702688Y-106797189D03*
X91775688Y-109337189D03*
D24*
X126192689Y-119814690D03*
D25*
X126192689Y-135054690D03*
D19*
X140162689Y-128069690D03*
D20*
X141432689Y-125529690D03*
D21*
X145242689Y-128069690D03*
D20*
X147782689Y-122989690D03*
D19*
X150322689Y-128069690D03*
D24*
X164292689Y-119814690D03*
D25*
X164292689Y-135054690D03*
D22*
X138157688Y-125529689D03*
X151084688Y-122989689D03*
D19*
X64597689Y-123307190D03*
D20*
X63327689Y-125847190D03*
D21*
X59517689Y-123307190D03*
D20*
X56977689Y-128387190D03*
D19*
X54437689Y-123307190D03*
D22*
X66602688Y-125847189D03*
X53675688Y-128387189D03*
D19*
X236047689Y-123307190D03*
D20*
X234777689Y-125847190D03*
D21*
X230967689Y-123307190D03*
D20*
X228427689Y-128387190D03*
D19*
X225887689Y-123307190D03*
D22*
X238052688Y-125847189D03*
X225125688Y-128387189D03*
D19*
X121747689Y-85207190D03*
D20*
X120477689Y-87747190D03*
D21*
X116667689Y-85207190D03*
D20*
X114127689Y-90287190D03*
D19*
X111587689Y-85207190D03*
D22*
X123752688Y-87747189D03*
X110825688Y-90287189D03*
D19*
X140797689Y-104257190D03*
D20*
X139527689Y-106797190D03*
D21*
X135717689Y-104257190D03*
D20*
X133177689Y-109337190D03*
D19*
X130637689Y-104257190D03*
D22*
X142802688Y-106797189D03*
X129875688Y-109337189D03*
D19*
X121747689Y-104257190D03*
D20*
X120477689Y-106797190D03*
D21*
X116667689Y-104257190D03*
D20*
X114127689Y-109337190D03*
D19*
X111587689Y-104257190D03*
D22*
X123752688Y-106797189D03*
X110825688Y-109337189D03*
D19*
X216997689Y-85207190D03*
D20*
X215727689Y-87747190D03*
D21*
X211917689Y-85207190D03*
D20*
X209377689Y-90287190D03*
D19*
X206837689Y-85207190D03*
D22*
X219002688Y-87747189D03*
X206075688Y-90287189D03*
D19*
X197947689Y-66157190D03*
D20*
X196677689Y-68697190D03*
D21*
X192867689Y-66157190D03*
D20*
X190327689Y-71237190D03*
D19*
X187787689Y-66157190D03*
D22*
X199952688Y-68697189D03*
X187025688Y-71237189D03*
D24*
X164260939Y-119814690D03*
D25*
X164260939Y-135054690D03*
D19*
X171118939Y-128069690D03*
D20*
X172388939Y-125529690D03*
D21*
X176198939Y-128069690D03*
D20*
X178738939Y-122989690D03*
D19*
X181278939Y-128069690D03*
D24*
X188136939Y-119814690D03*
D25*
X188136939Y-135054690D03*
D22*
X169113938Y-125529689D03*
X182040938Y-122989689D03*
D19*
X180643939Y-128069690D03*
D20*
X181913939Y-125529690D03*
D21*
X185723939Y-128069690D03*
D20*
X188263939Y-122989690D03*
D19*
X190803939Y-128069690D03*
D22*
X178638938Y-125529689D03*
X191565938Y-122989689D03*
D19*
X45547689Y-123307190D03*
D20*
X44277689Y-125847190D03*
D21*
X40467689Y-123307190D03*
D20*
X37927689Y-128387190D03*
D19*
X35387689Y-123307190D03*
D22*
X47552688Y-125847189D03*
X34625688Y-128387189D03*
D24*
X102348439Y-119814690D03*
D25*
X102348439Y-135054690D03*
D19*
X109206439Y-128069690D03*
D20*
X110476439Y-125529690D03*
D21*
X114286439Y-128069690D03*
D20*
X116826439Y-122989690D03*
D19*
X119366439Y-128069690D03*
D24*
X126224439Y-119814690D03*
D25*
X126224439Y-135054690D03*
D22*
X107201438Y-125529689D03*
X120128438Y-122989689D03*
D19*
X197947689Y-104257190D03*
D20*
X196677689Y-106797190D03*
D21*
X192867689Y-104257190D03*
D20*
X190327689Y-109337190D03*
D19*
X187787689Y-104257190D03*
D22*
X199952688Y-106797189D03*
X187025688Y-109337189D03*
D19*
X216997689Y-104257190D03*
D20*
X215727689Y-106797190D03*
D21*
X211917689Y-104257190D03*
D20*
X209377689Y-109337190D03*
D19*
X206837689Y-104257190D03*
D22*
X219002688Y-106797189D03*
X206075688Y-109337189D03*
D19*
X236047689Y-66157190D03*
D20*
X234777689Y-68697190D03*
D21*
X230967689Y-66157190D03*
D20*
X228427689Y-71237190D03*
D19*
X225887689Y-66157190D03*
D22*
X238052688Y-68697189D03*
X225125688Y-71237189D03*
D19*
X178897689Y-104257190D03*
D20*
X177627689Y-106797190D03*
D21*
X173817689Y-104257190D03*
D20*
X171277689Y-109337190D03*
D19*
X168737689Y-104257190D03*
D22*
X180902688Y-106797189D03*
X167975688Y-109337189D03*
D19*
X236047689Y-85207190D03*
D20*
X234777689Y-87747190D03*
D21*
X230967689Y-85207190D03*
D20*
X228427689Y-90287190D03*
D19*
X225887689Y-85207190D03*
D22*
X238052688Y-87747189D03*
X225125688Y-90287189D03*
D19*
X193185189Y-128069690D03*
D20*
X191915189Y-130609690D03*
D21*
X188105189Y-128069690D03*
D20*
X185565189Y-133149690D03*
D19*
X183025189Y-128069690D03*
D22*
X195190188Y-130609689D03*
X182263188Y-133149689D03*
D19*
X236047689Y-104257190D03*
D20*
X234777689Y-106797190D03*
D21*
X230967689Y-104257190D03*
D20*
X228427689Y-109337190D03*
D19*
X225887689Y-104257190D03*
D22*
X238052688Y-106797189D03*
X225125688Y-109337189D03*
D19*
X121747689Y-66157190D03*
D20*
X120477689Y-68697190D03*
D21*
X116667689Y-66157190D03*
D20*
X114127689Y-71237190D03*
D19*
X111587689Y-66157190D03*
D22*
X123752688Y-68697189D03*
X110825688Y-71237189D03*
D19*
X156831439Y-128069690D03*
D20*
X158101439Y-125529690D03*
D21*
X161911439Y-128069690D03*
D20*
X164451439Y-122989690D03*
D19*
X166991439Y-128069690D03*
D22*
X154826438Y-125529689D03*
X167753438Y-122989689D03*
D19*
X64597689Y-85207190D03*
D20*
X63327689Y-87747190D03*
D21*
X59517689Y-85207190D03*
D20*
X56977689Y-90287190D03*
D19*
X54437689Y-85207190D03*
D22*
X66602688Y-87747189D03*
X53675688Y-90287189D03*
D19*
X216997689Y-123307190D03*
D20*
X215727689Y-125847190D03*
D21*
X211917689Y-123307190D03*
D20*
X209377689Y-128387190D03*
D19*
X206837689Y-123307190D03*
D22*
X219002688Y-125847189D03*
X206075688Y-128387189D03*
D19*
X83647689Y-104257190D03*
D20*
X82377689Y-106797190D03*
D21*
X78567689Y-104257190D03*
D20*
X76027689Y-109337190D03*
D19*
X73487689Y-104257190D03*
D22*
X85652688Y-106797189D03*
X72725688Y-109337189D03*
D19*
X97300189Y-128069690D03*
D20*
X98570189Y-125529690D03*
D21*
X102380189Y-128069690D03*
D20*
X104920189Y-122989690D03*
D19*
X107460189Y-128069690D03*
D22*
X95295188Y-125529689D03*
X108222188Y-122989689D03*
D19*
X197947689Y-85207190D03*
D20*
X196677689Y-87747190D03*
D21*
X192867689Y-85207190D03*
D20*
X190327689Y-90287190D03*
D19*
X187787689Y-85207190D03*
D22*
X199952688Y-87747189D03*
X187025688Y-90287189D03*
D19*
X159847689Y-85207190D03*
D20*
X158577689Y-87747190D03*
D21*
X154767689Y-85207190D03*
D20*
X152227689Y-90287190D03*
D19*
X149687689Y-85207190D03*
D22*
X161852688Y-87747189D03*
X148925688Y-90287189D03*
D19*
X140797689Y-66157190D03*
D20*
X139527689Y-68697190D03*
D21*
X135717689Y-66157190D03*
D20*
X133177689Y-71237190D03*
D19*
X130637689Y-66157190D03*
D22*
X142802688Y-68697189D03*
X129875688Y-71237189D03*
D19*
X178897689Y-66157190D03*
D20*
X177627689Y-68697190D03*
D21*
X173817689Y-66157190D03*
D20*
X171277689Y-71237190D03*
D19*
X168737689Y-66157190D03*
D22*
X180902688Y-68697189D03*
X167975688Y-71237189D03*
D26*
X167067688Y-54807189D03*
D16*
X169607688Y-54807189D03*
X172147688Y-54807189D03*
X174687688Y-54807189D03*
D19*
X83647689Y-123307190D03*
D20*
X82377689Y-125847190D03*
D21*
X78567689Y-123307190D03*
D20*
X76027689Y-128387190D03*
D19*
X73487689Y-123307190D03*
D22*
X85652688Y-125847189D03*
X72725688Y-128387189D03*
D19*
X102697689Y-85207190D03*
D20*
X101427689Y-87747190D03*
D21*
X97617689Y-85207190D03*
D20*
X95077689Y-90287190D03*
D19*
X92537689Y-85207190D03*
D22*
X104702688Y-87747189D03*
X91775688Y-90287189D03*
D19*
X109841439Y-128069690D03*
D20*
X108571439Y-130609690D03*
D21*
X104761439Y-128069690D03*
D20*
X102221439Y-133149690D03*
D19*
X99681439Y-128069690D03*
D22*
X111846438Y-130609689D03*
X98919438Y-133149689D03*
D19*
X140797689Y-85207190D03*
D20*
X139527689Y-87747190D03*
D21*
X135717689Y-85207190D03*
D20*
X133177689Y-90287190D03*
D19*
X130637689Y-85207190D03*
D22*
X142802688Y-87747189D03*
X129875688Y-90287189D03*
D19*
X255097689Y-123307190D03*
D20*
X253827689Y-125847190D03*
D21*
X250017689Y-123307190D03*
D20*
X247477689Y-128387190D03*
D19*
X244937689Y-123307190D03*
D22*
X257102688Y-125847189D03*
X244175688Y-128387189D03*
D19*
X255097689Y-104257190D03*
D20*
X253827689Y-106797190D03*
D21*
X250017689Y-104257190D03*
D20*
X247477689Y-109337190D03*
D19*
X244937689Y-104257190D03*
D22*
X257102688Y-106797189D03*
X244175688Y-109337189D03*
D19*
X45547689Y-104257190D03*
D20*
X44277689Y-106797190D03*
D21*
X40467689Y-104257190D03*
D20*
X37927689Y-109337190D03*
D19*
X35387689Y-104257190D03*
D22*
X47552688Y-106797189D03*
X34625688Y-109337189D03*
D19*
X83647689Y-85207190D03*
D20*
X82377689Y-87747190D03*
D21*
X78567689Y-85207190D03*
D20*
X76027689Y-90287190D03*
D19*
X73487689Y-85207190D03*
D22*
X85652688Y-87747189D03*
X72725688Y-90287189D03*
D27*
X241683313Y-77332189D03*
X241683313Y-74032189D03*
X134527063Y-139244689D03*
X134527063Y-135944689D03*
X184533313Y-77332189D03*
X184533313Y-74032189D03*
D28*
X122817689Y-53432190D03*
D29*
X122817688Y-52182189D03*
D27*
X108333313Y-77332189D03*
X108333313Y-74032189D03*
D30*
X157617689Y-60469690D03*
X157617689Y-58644690D03*
D27*
X144052063Y-115432189D03*
X144052063Y-112132189D03*
X48802063Y-96382189D03*
X48802063Y-93082189D03*
X182152063Y-96382189D03*
X182152063Y-93082189D03*
X108333313Y-115432189D03*
X108333313Y-112132189D03*
X67852063Y-77332189D03*
X67852063Y-74032189D03*
X105952063Y-115432189D03*
X105952063Y-112132189D03*
D31*
X144267689Y-71944690D03*
X144267689Y-73769690D03*
D27*
X127383313Y-77332189D03*
X127383313Y-74032189D03*
X220252063Y-115432189D03*
X220252063Y-112132189D03*
D32*
X142255189Y-82882190D03*
X142255189Y-82232190D03*
X142255189Y-81582190D03*
X142255189Y-80932190D03*
X142255189Y-80282190D03*
X142255189Y-79632190D03*
X142255189Y-78982190D03*
X142255189Y-78332190D03*
X142255189Y-77682190D03*
X142255189Y-77032190D03*
X142255189Y-76382190D03*
X142255189Y-75732190D03*
X147980189Y-75732190D03*
X147980189Y-76382190D03*
X147980189Y-77032190D03*
X147980189Y-77682190D03*
X147980189Y-78332190D03*
X147980189Y-78982190D03*
X147980189Y-79632190D03*
X147980189Y-80282190D03*
X147980189Y-80932190D03*
X147980189Y-81582190D03*
X147980189Y-82232190D03*
X147980189Y-82882190D03*
D27*
X136908313Y-139244689D03*
X136908313Y-135944689D03*
X48802063Y-134482189D03*
X48802063Y-131182189D03*
D31*
X157617689Y-54394690D03*
X157617689Y-56219690D03*
D27*
X222633313Y-96382189D03*
X222633313Y-93082189D03*
X184533313Y-115432189D03*
X184533313Y-112132189D03*
X184533313Y-96382189D03*
X184533313Y-93082189D03*
X70233313Y-77332189D03*
X70233313Y-74032189D03*
X182152063Y-77332189D03*
X182152063Y-74032189D03*
X222633313Y-115432189D03*
X222633313Y-112132189D03*
X108333313Y-96382189D03*
X108333313Y-93082189D03*
X67852063Y-115432189D03*
X67852063Y-112132189D03*
X211917688Y-134482189D03*
X211917688Y-131182189D03*
X70233313Y-115432189D03*
X70233313Y-112132189D03*
D33*
X151867689Y-81007190D03*
X151867689Y-82907190D03*
D27*
X250017688Y-134482189D03*
X250017688Y-131182189D03*
D34*
X48000000Y-53307190D03*
X44700000Y-53307190D03*
D27*
X220252063Y-77332189D03*
X220252063Y-74032189D03*
D35*
X128567688Y-44801689D03*
D36*
X121367688Y-44801689D03*
D37*
X126467689Y-45944690D03*
X123467689Y-45944690D03*
D36*
X128567688Y-47087689D03*
D35*
X121367688Y-47087689D03*
D38*
X122767688Y-47794689D03*
X125667688Y-47794689D03*
X127167688Y-47794689D03*
D27*
X105952063Y-96382189D03*
X105952063Y-93082189D03*
X67852063Y-96382189D03*
X67852063Y-93082189D03*
X70233313Y-96382189D03*
X70233313Y-93082189D03*
X241683313Y-115432189D03*
X241683313Y-112132189D03*
X153577063Y-139244689D03*
X153577063Y-135944689D03*
X48802063Y-77332189D03*
X48802063Y-74032189D03*
X78567688Y-134482189D03*
X78567688Y-131182189D03*
X144052063Y-96382189D03*
X144052063Y-93082189D03*
X220252063Y-96382189D03*
X220252063Y-93082189D03*
X182152063Y-115432189D03*
X182152063Y-112132189D03*
X59517688Y-134482189D03*
X59517688Y-131182189D03*
X222633313Y-77332189D03*
X222633313Y-74032189D03*
X48802063Y-115432189D03*
X48802063Y-112132189D03*
X155958313Y-139244689D03*
X155958313Y-135944689D03*
X241683313Y-96382189D03*
X241683313Y-93082189D03*
X105952063Y-77332189D03*
X105952063Y-74032189D03*
X146433313Y-115432189D03*
X146433313Y-112132189D03*
D39*
X153312648Y-45862189D03*
X153312648Y-48402189D03*
X153312648Y-50942189D03*
X153312648Y-53482189D03*
X153312648Y-56022189D03*
X153312648Y-58562189D03*
X153312648Y-61102189D03*
X137122728Y-61102189D03*
X137122728Y-58562189D03*
X137122728Y-56022189D03*
X137122728Y-53482189D03*
X137122728Y-50942189D03*
X137122728Y-48402189D03*
X137122728Y-45862189D03*
D40*
X146487689Y-44910190D03*
X143947689Y-44910190D03*
X146487689Y-47450190D03*
X143947689Y-47450190D03*
X149662689Y-53165190D03*
X149662689Y-51260190D03*
X141407689Y-62690190D03*
X139502689Y-62690190D03*
D27*
X163102063Y-77332189D03*
X163102063Y-74032189D03*
X230967688Y-134482189D03*
X230967688Y-131182189D03*
X146433313Y-96382189D03*
X146433313Y-93082189D03*
M02*
