M48
; DRILL file {KiCad (7.0.0-0)} date Thursday, March 16, 2023 at 02:49:15 AM
; FORMAT={-:-/ absolute / inch / decimal}
; #@! TF.CreationDate,2023-03-16T02:49:15-07:00
; #@! TF.GenerationSoftware,Kicad,Pcbnew,(7.0.0-0)
; #@! TF.FileFunction,Plated,1,2,PTH
FMAT,2
INCH
; #@! TA.AperFunction,Plated,PTH,ViaDrill
T1C0.0157
; #@! TA.AperFunction,Plated,PTH,ComponentDrill
T2C0.0197
; #@! TA.AperFunction,Plated,PTH,ComponentDrill
T3C0.0320
; #@! TA.AperFunction,Plated,PTH,ComponentDrill
T4C0.0394
; #@! TA.AperFunction,Plated,PTH,ComponentDrill
T5C0.0400
; #@! TA.AperFunction,Plated,PTH,ComponentDrill
T6C0.0591
%
G90
G05
T1
X1.6142Y-2.0079
X1.8707Y-2.7985
X1.8707Y-3.1883
X1.8707Y-3.1883
X1.8707Y-3.5387
X1.8707Y-4.2946
X1.8707Y-5.0505
X2.6208Y-2.7975
X2.6208Y-3.1873
X2.6208Y-3.5377
X2.6208Y-4.2936
X2.6208Y-5.0495
X2.6515Y-3.8436
X2.6855Y-3.889
X3.3753Y-2.7979
X3.3753Y-3.1578
X3.3753Y-3.5381
X3.3753Y-4.294
X3.3753Y-5.0499
X3.6365Y-4.6164
X3.6365Y-5.2385
X3.857Y-4.8369
X3.92Y-4.5879
X4.1233Y-2.7999
X4.1233Y-3.1322
X4.1233Y-3.54
X4.1233Y-4.296
X4.2586Y-4.6361
X4.2586Y-4.7739
X4.4099Y-2.2109
X4.6129Y-4.9629
X4.6129Y-5.2227
X4.8176Y-4.5731
X4.8334Y-1.9471
X4.8714Y-2.7999
X4.8714Y-3.1066
X4.8714Y-3.54
X4.8714Y-4.296
X4.9938Y-2.1824
X4.9948Y-2.1125
X5.0223Y-2.2109
X5.0223Y-4.5456
X5.0509Y-3.7946
X5.0538Y-2.3133
X5.0787Y-2.2638
X5.0844Y-3.0446
X5.0844Y-3.831
X5.0853Y-2.4117
X5.1483Y-1.9904
X5.1483Y-2.2582
X5.2362Y-2.1654
X5.2512Y-5.4821
X5.2979Y-1.9117
X5.3924Y-4.8448
X5.3924Y-5.2975
X5.4724Y-2.0113
X5.4831Y-3.2148
X5.4884Y-3.081
X5.5118Y-1.8504
X5.5342Y-3.2148
X5.5342Y-3.2503
X5.5512Y-2.3228
X5.6129Y-1.7857
X5.6168Y-1.9589
X5.6194Y-3.54
X5.6194Y-4.296
X5.6208Y-4.77
X5.6444Y-2.5023
X5.6562Y-3.2621
X5.6759Y-2.9589
X5.6847Y-3.081
X5.6916Y-2.9979
X5.698Y-3.0431
X5.7182Y-3.7582
X5.7349Y-2.833
X5.7349Y-2.9471
X5.748Y-2.7559
X5.748Y-2.9921
X5.7559Y-3.9409
X5.7598Y-3.4528
X5.7651Y-3.7296
X5.7728Y-3.1575
X5.8088Y-3.6986
X5.8235Y-1.8034
X5.8235Y-1.9402
X5.8649Y-2.2582
X5.9055Y-3.0709
X5.92Y-3.2621
X5.9449Y-2.4606
X5.9987Y-2.9471
X6.0499Y-3.1873
X6.063Y-3.0709
X6.063Y-4.6063
X6.1365Y-2.14
X6.1365Y-2.3802
X6.1365Y-2.5023
X6.1811Y-3.189
X6.2598Y-5.315
X6.3137Y-4.8684
X6.3386Y-1.8504
X6.3386Y-2.0407
X6.3753Y-2.7999
X6.3753Y-3.54
X6.3753Y-3.7582
X6.3753Y-4.296
X6.3924Y-1.9117
X6.4055Y-3.8933
X6.4257Y-3.8595
X6.4567Y-2.0407
X6.4645Y-3.1359
X6.4764Y-2.2638
X6.5154Y-3.0966
X6.5157Y-2.4016
X6.5342Y-4.9314
X6.5578Y-5.4117
X6.562Y-3.0446
X6.562Y-3.831
X6.6174Y-1.9948
X6.811Y-4.8031
X6.8504Y-1.9685
X7.0472Y-1.9685
X7.1233Y-2.796
X7.1233Y-3.5361
X7.1233Y-3.7292
X7.1233Y-4.292
X7.1247Y-4.6086
X7.6838Y-4.6086
X7.6838Y-5.0574
X7.8714Y-2.796
X7.8714Y-3.5361
X7.8714Y-3.6965
X7.8714Y-4.292
X8.6181Y-3.9409
X8.6194Y-2.796
X8.6194Y-3.5361
X8.6194Y-4.292
X8.6194Y-5.0479
X9.3753Y-2.796
X9.3753Y-3.546
X9.3753Y-4.296
X9.3753Y-5.046
X9.4094Y-3.0731
X9.6476Y-1.811
X9.7264Y-1.8898
X9.7643Y-2.4021
X9.8228Y-2.4016
X9.9626Y-1.811
X10.0413Y-1.8898
X10.1181Y-2.7953
X10.1181Y-3.1102
X10.1181Y-3.5453
X10.1181Y-4.2953
X10.1181Y-5.0453
T2
X3.1142Y-1.9567
X3.6339Y-1.9567
X4.8353Y-2.0544
X4.8353Y-2.1036
T3
X10.3964Y-1.7105
X10.3964Y-1.8105
X10.3964Y-1.9105
X10.3964Y-2.0105
T4
X1.2196Y-1.7404
X1.2196Y-1.9373
X1.7905Y-1.7404
X1.7905Y-1.8389
X1.7905Y-1.9373
X6.5775Y-2.1578
X6.6775Y-2.1578
X6.7775Y-2.1578
X6.8775Y-2.1578
X7.5433Y-1.9063
X7.5433Y-2.0063
X7.5433Y-2.1063
X7.5433Y-2.2063
X7.5433Y-2.3063
T5
X5.4922Y-2.4681
X5.5672Y-2.4681
X5.6672Y-1.7681
X5.6672Y-1.8681
X5.7672Y-1.7681
X5.7672Y-1.8681
X5.8922Y-2.0181
X5.8922Y-2.0931
T6
G00X1.5208Y-1.6184
M15
G01X1.4696Y-1.6184
M16
G05
G00X1.5208Y-2.0593
M15
G01X1.4696Y-2.0593
M16
G05
T0
M30
