%TF.GenerationSoftware,KiCad,Pcbnew,(7.0.0-0)*%
%TF.CreationDate,2023-03-16T02:49:19-07:00*%
%TF.ProjectId,spc_evdr,7370635f-6576-4647-922e-6b696361645f,rev?*%
%TF.SameCoordinates,Original*%
%TF.FileFunction,Profile,NP*%
%FSLAX46Y46*%
G04 Gerber Fmt 4.6, Leading zero omitted, Abs format (unit mm)*
G04 Created by KiCad (PCBNEW (7.0.0-0)) date 2023-03-16 02:49:19*
%MOMM*%
%LPD*%
G01*
G04 APERTURE LIST*
%TA.AperFunction,Profile*%
%ADD10C,0.100000*%
%TD*%
%TA.AperFunction,Profile*%
%ADD11C,0.120000*%
%TD*%
G04 APERTURE END LIST*
D10*
X39500069Y-46702707D02*
G75*
G03*
X39500069Y-46702707I-1529028J0D01*
G01*
X197000000Y-61000000D02*
X197000000Y-46000000D01*
X208500000Y-61000000D02*
X197000000Y-61000000D01*
X208500000Y-46000000D02*
X208500000Y-61000000D01*
X197000000Y-46000000D02*
X208500000Y-46000000D01*
X147967689Y-140557190D02*
X196567689Y-140557190D01*
X27817689Y-56557190D02*
X27817689Y-40057190D01*
X74367689Y-43057190D02*
X104542689Y-43057190D01*
X215867689Y-42057190D02*
X215867689Y-43057190D01*
X30317689Y-56557190D02*
X27817689Y-56557190D01*
X202267688Y-140557190D02*
G75*
G03*
X196567690Y-140557190I-2849999J-1008252D01*
G01*
X93967689Y-140557190D02*
X142567689Y-140557190D01*
X265417689Y-56807190D02*
X265417689Y-42057190D01*
X259917689Y-56807190D02*
X259917689Y-140557190D01*
X74367689Y-43057190D02*
X74367689Y-40057190D01*
X109142689Y-52632190D02*
G75*
G03*
X109142689Y-52632190I-2000000J0D01*
G01*
X185967689Y-43057190D02*
X215867689Y-43057190D01*
X93967688Y-140557190D02*
G75*
G03*
X88267690Y-140557190I-2849999J-1008252D01*
G01*
X104542689Y-43057190D02*
G75*
G03*
X109742689Y-43057190I2600000J1465025D01*
G01*
X202267689Y-140557190D02*
X259917689Y-140557190D01*
X185342689Y-52632190D02*
G75*
G03*
X185342689Y-52632190I-2000000J0D01*
G01*
X109742689Y-43057190D02*
X180767689Y-43057190D01*
X147967689Y-140557190D02*
G75*
G03*
X142567689Y-140557190I-2700000J-1418474D01*
G01*
X180767689Y-43057190D02*
G75*
G03*
X185967689Y-43057190I2600000J1463641D01*
G01*
X88267689Y-140557190D02*
X30317689Y-140557190D01*
X30317689Y-140557190D02*
X30317689Y-56557190D01*
X259917689Y-56807190D02*
X265417689Y-56807190D01*
X265417689Y-42057190D02*
X215867689Y-42057190D01*
X27817689Y-40057190D02*
X74367689Y-40057190D01*
D11*
X149916689Y-52733390D02*
X149916689Y-51691990D01*
X149230889Y-51006190D02*
X147630689Y-51006190D01*
X147630689Y-53419190D02*
X149230889Y-53419190D01*
X147249689Y-51387190D02*
X147249689Y-53038190D01*
X146741689Y-47018390D02*
X146741689Y-45341990D01*
X146055889Y-47704190D02*
X144379489Y-47704190D01*
X146055889Y-44656190D02*
X144379489Y-44656190D01*
X143693689Y-47018390D02*
X143693689Y-45341990D01*
X141661689Y-62258390D02*
X141661189Y-60658190D01*
X141280189Y-60277190D02*
X139629189Y-60277190D01*
X139934489Y-62944190D02*
X140975889Y-62944190D01*
X139248189Y-60658190D02*
X139248689Y-62258390D01*
X149230889Y-51006190D02*
G75*
G03*
X149916689Y-51691990I438047J-247753D01*
G01*
X149916689Y-52733390D02*
G75*
G03*
X149230889Y-53419190I-247753J-438047D01*
G01*
X147249689Y-53038190D02*
G75*
G03*
X147630689Y-53419190I380999J-1D01*
G01*
X147630689Y-51006190D02*
G75*
G03*
X147249689Y-51387190I-1J-380999D01*
G01*
X146055889Y-44656190D02*
G75*
G03*
X146741689Y-45341990I438047J-247753D01*
G01*
X146741689Y-47018390D02*
G75*
G03*
X146055889Y-47704190I-247753J-438047D01*
G01*
X143693689Y-45341990D02*
G75*
G03*
X144379489Y-44656190I247750J438050D01*
G01*
X144379489Y-47704190D02*
G75*
G03*
X143693689Y-47018390I-438050J247750D01*
G01*
X141661189Y-60658190D02*
G75*
G03*
X141280189Y-60277190I-381000J0D01*
G01*
X141661689Y-62258390D02*
G75*
G03*
X140975889Y-62944190I-247750J-438050D01*
G01*
X139934489Y-62944190D02*
G75*
G03*
X139248689Y-62258390I-438000J247800D01*
G01*
X139629189Y-60277190D02*
G75*
G03*
X139248189Y-60658190I0J-381000D01*
G01*
M02*
