%TF.GenerationSoftware,KiCad,Pcbnew,(7.0.0-0)*%
%TF.CreationDate,2023-03-16T02:49:19-07:00*%
%TF.ProjectId,spc_evdr,7370635f-6576-4647-922e-6b696361645f,rev?*%
%TF.SameCoordinates,Original*%
%TF.FileFunction,Soldermask,Bot*%
%TF.FilePolarity,Negative*%
%FSLAX46Y46*%
G04 Gerber Fmt 4.6, Leading zero omitted, Abs format (unit mm)*
G04 Created by KiCad (PCBNEW (7.0.0-0)) date 2023-03-16 02:49:19*
%MOMM*%
%LPD*%
G01*
G04 APERTURE LIST*
G04 Aperture macros list*
%AMRoundRect*
0 Rectangle with rounded corners*
0 $1 Rounding radius*
0 $2 $3 $4 $5 $6 $7 $8 $9 X,Y pos of 4 corners*
0 Add a 4 corners polygon primitive as box body*
4,1,4,$2,$3,$4,$5,$6,$7,$8,$9,$2,$3,0*
0 Add four circle primitives for the rounded corners*
1,1,$1+$1,$2,$3*
1,1,$1+$1,$4,$5*
1,1,$1+$1,$6,$7*
1,1,$1+$1,$8,$9*
0 Add four rect primitives between the rounded corners*
20,1,$1+$1,$2,$3,$4,$5,0*
20,1,$1+$1,$4,$5,$6,$7,0*
20,1,$1+$1,$6,$7,$8,$9,0*
20,1,$1+$1,$8,$9,$2,$3,0*%
G04 Aperture macros list end*
%ADD10C,2.000000*%
%ADD11R,3.200000X2.000000*%
%ADD12O,1.700000X1.700000*%
%ADD13C,1.700000*%
%ADD14R,2.200000X2.200000*%
%ADD15C,1.900000*%
%ADD16C,3.000000*%
%ADD17C,4.100000*%
%ADD18R,2.550000X2.500000*%
%ADD19O,1.778000X1.397000*%
%ADD20C,3.987800*%
%ADD21C,3.048000*%
%ADD22R,1.700000X1.700000*%
%ADD23R,1.200000X0.900000*%
%ADD24RoundRect,0.200000X0.450000X-0.200000X0.450000X0.200000X-0.450000X0.200000X-0.450000X-0.200000X0*%
%ADD25O,1.300000X0.800000*%
%ADD26RoundRect,0.250000X0.450000X-0.262500X0.450000X0.262500X-0.450000X0.262500X-0.450000X-0.262500X0*%
%ADD27RoundRect,0.250000X-0.450000X0.262500X-0.450000X-0.262500X0.450000X-0.262500X0.450000X0.262500X0*%
%ADD28RoundRect,0.100000X-0.637500X-0.100000X0.637500X-0.100000X0.637500X0.100000X-0.637500X0.100000X0*%
%ADD29RoundRect,0.250000X-0.475000X0.250000X-0.475000X-0.250000X0.475000X-0.250000X0.475000X0.250000X0*%
%ADD30RoundRect,0.225000X0.225000X0.375000X-0.225000X0.375000X-0.225000X-0.375000X0.225000X-0.375000X0*%
%ADD31R,1.100000X0.600000*%
%ADD32R,1.000000X0.600000*%
%ADD33C,0.850000*%
%ADD34R,0.600000X1.000000*%
%ADD35O,2.750000X1.800000*%
%ADD36C,1.397000*%
G04 APERTURE END LIST*
D10*
X45477689Y-49207190D03*
X45477689Y-44207190D03*
X45477689Y-46707190D03*
D11*
X37977688Y-41107189D03*
X37977688Y-52307189D03*
D10*
X30977689Y-44207190D03*
X30977689Y-49207190D03*
D12*
X191599999Y-48419999D03*
X191599999Y-50959999D03*
X191599999Y-53499999D03*
X191599999Y-56039999D03*
D13*
X191600000Y-58580000D03*
D14*
X92299999Y-49699999D03*
X79099999Y-49699999D03*
D15*
X255097689Y-85207190D03*
D16*
X253827689Y-87747190D03*
D17*
X250017689Y-85207190D03*
D16*
X247477689Y-90287190D03*
D15*
X244937689Y-85207190D03*
D18*
X257102688Y-87747189D03*
X244175688Y-90287189D03*
D15*
X123493939Y-128069690D03*
D16*
X124763939Y-125529690D03*
D17*
X128573939Y-128069690D03*
D16*
X131113939Y-122989690D03*
D15*
X133653939Y-128069690D03*
D18*
X121488938Y-125529689D03*
X134415938Y-122989689D03*
D15*
X64597689Y-66157190D03*
D16*
X63327689Y-68697190D03*
D17*
X59517689Y-66157190D03*
D16*
X56977689Y-71237190D03*
D15*
X54437689Y-66157190D03*
D18*
X66602688Y-68697189D03*
X53675688Y-71237189D03*
D15*
X159847689Y-66157190D03*
D16*
X158577689Y-68697190D03*
D17*
X154767689Y-66157190D03*
D16*
X152227689Y-71237190D03*
D15*
X149687689Y-66157190D03*
D18*
X161852688Y-68697189D03*
X148925688Y-71237189D03*
D15*
X64597689Y-104257190D03*
D16*
X63327689Y-106797190D03*
D17*
X59517689Y-104257190D03*
D16*
X56977689Y-109337190D03*
D15*
X54437689Y-104257190D03*
D18*
X66602688Y-106797189D03*
X53675688Y-109337189D03*
D15*
X159847689Y-104257190D03*
D16*
X158577689Y-106797190D03*
D17*
X154767689Y-104257190D03*
D16*
X152227689Y-109337190D03*
D15*
X149687689Y-104257190D03*
D18*
X161852688Y-106797189D03*
X148925688Y-109337189D03*
D15*
X178897689Y-85207190D03*
D16*
X177627689Y-87747190D03*
D17*
X173817689Y-85207190D03*
D16*
X171277689Y-90287190D03*
D15*
X168737689Y-85207190D03*
D18*
X180902688Y-87747189D03*
X167975688Y-90287189D03*
D15*
X102697689Y-66157190D03*
D16*
X101427689Y-68697190D03*
D17*
X97617689Y-66157190D03*
D16*
X95077689Y-71237190D03*
D15*
X92537689Y-66157190D03*
D18*
X104702688Y-68697189D03*
X91775688Y-71237189D03*
D15*
X45547689Y-85207190D03*
D16*
X44277689Y-87747190D03*
D17*
X40467689Y-85207190D03*
D16*
X37927689Y-90287190D03*
D15*
X35387689Y-85207190D03*
D18*
X47552688Y-87747189D03*
X34625688Y-90287189D03*
D15*
X216997689Y-66157190D03*
D16*
X215727689Y-68697190D03*
D17*
X211917689Y-66157190D03*
D16*
X209377689Y-71237190D03*
D15*
X206837689Y-66157190D03*
D18*
X219002688Y-68697189D03*
X206075688Y-71237189D03*
D19*
X264067688Y-51067189D03*
X264067688Y-48527189D03*
X264067688Y-45987189D03*
X264067688Y-43447189D03*
D15*
X45547689Y-66157190D03*
D16*
X44277689Y-68697190D03*
D17*
X40467689Y-66157190D03*
D16*
X37927689Y-71237190D03*
D15*
X35387689Y-66157190D03*
D18*
X47552688Y-68697189D03*
X34625688Y-71237189D03*
D15*
X255097689Y-66157190D03*
D16*
X253827689Y-68697190D03*
D17*
X250017689Y-66157190D03*
D16*
X247477689Y-71237190D03*
D15*
X244937689Y-66157190D03*
D18*
X257102688Y-68697189D03*
X244175688Y-71237189D03*
D15*
X83647689Y-66157190D03*
D16*
X82377689Y-68697190D03*
D17*
X78567689Y-66157190D03*
D16*
X76027689Y-71237190D03*
D15*
X73487689Y-66157190D03*
D18*
X85652688Y-68697189D03*
X72725688Y-71237189D03*
D15*
X102697689Y-104257190D03*
D16*
X101427689Y-106797190D03*
D17*
X97617689Y-104257190D03*
D16*
X95077689Y-109337190D03*
D15*
X92537689Y-104257190D03*
D18*
X104702688Y-106797189D03*
X91775688Y-109337189D03*
D20*
X126192689Y-119814690D03*
D21*
X126192689Y-135054690D03*
D15*
X140162689Y-128069690D03*
D16*
X141432689Y-125529690D03*
D17*
X145242689Y-128069690D03*
D16*
X147782689Y-122989690D03*
D15*
X150322689Y-128069690D03*
D20*
X164292689Y-119814690D03*
D21*
X164292689Y-135054690D03*
D18*
X138157688Y-125529689D03*
X151084688Y-122989689D03*
D15*
X64597689Y-123307190D03*
D16*
X63327689Y-125847190D03*
D17*
X59517689Y-123307190D03*
D16*
X56977689Y-128387190D03*
D15*
X54437689Y-123307190D03*
D18*
X66602688Y-125847189D03*
X53675688Y-128387189D03*
D15*
X236047689Y-123307190D03*
D16*
X234777689Y-125847190D03*
D17*
X230967689Y-123307190D03*
D16*
X228427689Y-128387190D03*
D15*
X225887689Y-123307190D03*
D18*
X238052688Y-125847189D03*
X225125688Y-128387189D03*
D15*
X121747689Y-85207190D03*
D16*
X120477689Y-87747190D03*
D17*
X116667689Y-85207190D03*
D16*
X114127689Y-90287190D03*
D15*
X111587689Y-85207190D03*
D18*
X123752688Y-87747189D03*
X110825688Y-90287189D03*
D15*
X140797689Y-104257190D03*
D16*
X139527689Y-106797190D03*
D17*
X135717689Y-104257190D03*
D16*
X133177689Y-109337190D03*
D15*
X130637689Y-104257190D03*
D18*
X142802688Y-106797189D03*
X129875688Y-109337189D03*
D15*
X121747689Y-104257190D03*
D16*
X120477689Y-106797190D03*
D17*
X116667689Y-104257190D03*
D16*
X114127689Y-109337190D03*
D15*
X111587689Y-104257190D03*
D18*
X123752688Y-106797189D03*
X110825688Y-109337189D03*
D15*
X216997689Y-85207190D03*
D16*
X215727689Y-87747190D03*
D17*
X211917689Y-85207190D03*
D16*
X209377689Y-90287190D03*
D15*
X206837689Y-85207190D03*
D18*
X219002688Y-87747189D03*
X206075688Y-90287189D03*
D15*
X197947689Y-66157190D03*
D16*
X196677689Y-68697190D03*
D17*
X192867689Y-66157190D03*
D16*
X190327689Y-71237190D03*
D15*
X187787689Y-66157190D03*
D18*
X199952688Y-68697189D03*
X187025688Y-71237189D03*
D20*
X164260939Y-119814690D03*
D21*
X164260939Y-135054690D03*
D15*
X171118939Y-128069690D03*
D16*
X172388939Y-125529690D03*
D17*
X176198939Y-128069690D03*
D16*
X178738939Y-122989690D03*
D15*
X181278939Y-128069690D03*
D20*
X188136939Y-119814690D03*
D21*
X188136939Y-135054690D03*
D18*
X169113938Y-125529689D03*
X182040938Y-122989689D03*
D15*
X180643939Y-128069690D03*
D16*
X181913939Y-125529690D03*
D17*
X185723939Y-128069690D03*
D16*
X188263939Y-122989690D03*
D15*
X190803939Y-128069690D03*
D18*
X178638938Y-125529689D03*
X191565938Y-122989689D03*
D15*
X45547689Y-123307190D03*
D16*
X44277689Y-125847190D03*
D17*
X40467689Y-123307190D03*
D16*
X37927689Y-128387190D03*
D15*
X35387689Y-123307190D03*
D18*
X47552688Y-125847189D03*
X34625688Y-128387189D03*
D20*
X102348439Y-119814690D03*
D21*
X102348439Y-135054690D03*
D15*
X109206439Y-128069690D03*
D16*
X110476439Y-125529690D03*
D17*
X114286439Y-128069690D03*
D16*
X116826439Y-122989690D03*
D15*
X119366439Y-128069690D03*
D20*
X126224439Y-119814690D03*
D21*
X126224439Y-135054690D03*
D18*
X107201438Y-125529689D03*
X120128438Y-122989689D03*
D15*
X197947689Y-104257190D03*
D16*
X196677689Y-106797190D03*
D17*
X192867689Y-104257190D03*
D16*
X190327689Y-109337190D03*
D15*
X187787689Y-104257190D03*
D18*
X199952688Y-106797189D03*
X187025688Y-109337189D03*
D15*
X216997689Y-104257190D03*
D16*
X215727689Y-106797190D03*
D17*
X211917689Y-104257190D03*
D16*
X209377689Y-109337190D03*
D15*
X206837689Y-104257190D03*
D18*
X219002688Y-106797189D03*
X206075688Y-109337189D03*
D15*
X236047689Y-66157190D03*
D16*
X234777689Y-68697190D03*
D17*
X230967689Y-66157190D03*
D16*
X228427689Y-71237190D03*
D15*
X225887689Y-66157190D03*
D18*
X238052688Y-68697189D03*
X225125688Y-71237189D03*
D15*
X178897689Y-104257190D03*
D16*
X177627689Y-106797190D03*
D17*
X173817689Y-104257190D03*
D16*
X171277689Y-109337190D03*
D15*
X168737689Y-104257190D03*
D18*
X180902688Y-106797189D03*
X167975688Y-109337189D03*
D15*
X236047689Y-85207190D03*
D16*
X234777689Y-87747190D03*
D17*
X230967689Y-85207190D03*
D16*
X228427689Y-90287190D03*
D15*
X225887689Y-85207190D03*
D18*
X238052688Y-87747189D03*
X225125688Y-90287189D03*
D15*
X193185189Y-128069690D03*
D16*
X191915189Y-130609690D03*
D17*
X188105189Y-128069690D03*
D16*
X185565189Y-133149690D03*
D15*
X183025189Y-128069690D03*
D18*
X195190188Y-130609689D03*
X182263188Y-133149689D03*
D15*
X236047689Y-104257190D03*
D16*
X234777689Y-106797190D03*
D17*
X230967689Y-104257190D03*
D16*
X228427689Y-109337190D03*
D15*
X225887689Y-104257190D03*
D18*
X238052688Y-106797189D03*
X225125688Y-109337189D03*
D15*
X121747689Y-66157190D03*
D16*
X120477689Y-68697190D03*
D17*
X116667689Y-66157190D03*
D16*
X114127689Y-71237190D03*
D15*
X111587689Y-66157190D03*
D18*
X123752688Y-68697189D03*
X110825688Y-71237189D03*
D15*
X156831439Y-128069690D03*
D16*
X158101439Y-125529690D03*
D17*
X161911439Y-128069690D03*
D16*
X164451439Y-122989690D03*
D15*
X166991439Y-128069690D03*
D18*
X154826438Y-125529689D03*
X167753438Y-122989689D03*
D15*
X64597689Y-85207190D03*
D16*
X63327689Y-87747190D03*
D17*
X59517689Y-85207190D03*
D16*
X56977689Y-90287190D03*
D15*
X54437689Y-85207190D03*
D18*
X66602688Y-87747189D03*
X53675688Y-90287189D03*
D15*
X216997689Y-123307190D03*
D16*
X215727689Y-125847190D03*
D17*
X211917689Y-123307190D03*
D16*
X209377689Y-128387190D03*
D15*
X206837689Y-123307190D03*
D18*
X219002688Y-125847189D03*
X206075688Y-128387189D03*
D15*
X83647689Y-104257190D03*
D16*
X82377689Y-106797190D03*
D17*
X78567689Y-104257190D03*
D16*
X76027689Y-109337190D03*
D15*
X73487689Y-104257190D03*
D18*
X85652688Y-106797189D03*
X72725688Y-109337189D03*
D15*
X97300189Y-128069690D03*
D16*
X98570189Y-125529690D03*
D17*
X102380189Y-128069690D03*
D16*
X104920189Y-122989690D03*
D15*
X107460189Y-128069690D03*
D18*
X95295188Y-125529689D03*
X108222188Y-122989689D03*
D15*
X197947689Y-85207190D03*
D16*
X196677689Y-87747190D03*
D17*
X192867689Y-85207190D03*
D16*
X190327689Y-90287190D03*
D15*
X187787689Y-85207190D03*
D18*
X199952688Y-87747189D03*
X187025688Y-90287189D03*
D15*
X159847689Y-85207190D03*
D16*
X158577689Y-87747190D03*
D17*
X154767689Y-85207190D03*
D16*
X152227689Y-90287190D03*
D15*
X149687689Y-85207190D03*
D18*
X161852688Y-87747189D03*
X148925688Y-90287189D03*
D15*
X140797689Y-66157190D03*
D16*
X139527689Y-68697190D03*
D17*
X135717689Y-66157190D03*
D16*
X133177689Y-71237190D03*
D15*
X130637689Y-66157190D03*
D18*
X142802688Y-68697189D03*
X129875688Y-71237189D03*
D15*
X178897689Y-66157190D03*
D16*
X177627689Y-68697190D03*
D17*
X173817689Y-66157190D03*
D16*
X171277689Y-71237190D03*
D15*
X168737689Y-66157190D03*
D18*
X180902688Y-68697189D03*
X167975688Y-71237189D03*
D22*
X167067688Y-54807189D03*
D12*
X169607688Y-54807189D03*
X172147688Y-54807189D03*
X174687688Y-54807189D03*
D15*
X83647689Y-123307190D03*
D16*
X82377689Y-125847190D03*
D17*
X78567689Y-123307190D03*
D16*
X76027689Y-128387190D03*
D15*
X73487689Y-123307190D03*
D18*
X85652688Y-125847189D03*
X72725688Y-128387189D03*
D15*
X102697689Y-85207190D03*
D16*
X101427689Y-87747190D03*
D17*
X97617689Y-85207190D03*
D16*
X95077689Y-90287190D03*
D15*
X92537689Y-85207190D03*
D18*
X104702688Y-87747189D03*
X91775688Y-90287189D03*
D15*
X109841439Y-128069690D03*
D16*
X108571439Y-130609690D03*
D17*
X104761439Y-128069690D03*
D16*
X102221439Y-133149690D03*
D15*
X99681439Y-128069690D03*
D18*
X111846438Y-130609689D03*
X98919438Y-133149689D03*
D15*
X140797689Y-85207190D03*
D16*
X139527689Y-87747190D03*
D17*
X135717689Y-85207190D03*
D16*
X133177689Y-90287190D03*
D15*
X130637689Y-85207190D03*
D18*
X142802688Y-87747189D03*
X129875688Y-90287189D03*
D15*
X255097689Y-123307190D03*
D16*
X253827689Y-125847190D03*
D17*
X250017689Y-123307190D03*
D16*
X247477689Y-128387190D03*
D15*
X244937689Y-123307190D03*
D18*
X257102688Y-125847189D03*
X244175688Y-128387189D03*
D15*
X255097689Y-104257190D03*
D16*
X253827689Y-106797190D03*
D17*
X250017689Y-104257190D03*
D16*
X247477689Y-109337190D03*
D15*
X244937689Y-104257190D03*
D18*
X257102688Y-106797189D03*
X244175688Y-109337189D03*
D15*
X45547689Y-104257190D03*
D16*
X44277689Y-106797190D03*
D17*
X40467689Y-104257190D03*
D16*
X37927689Y-109337190D03*
D15*
X35387689Y-104257190D03*
D18*
X47552688Y-106797189D03*
X34625688Y-109337189D03*
D15*
X83647689Y-85207190D03*
D16*
X82377689Y-87747190D03*
D17*
X78567689Y-85207190D03*
D16*
X76027689Y-90287190D03*
D15*
X73487689Y-85207190D03*
D18*
X85652688Y-87747189D03*
X72725688Y-90287189D03*
D23*
X241683313Y-77332189D03*
X241683313Y-74032189D03*
X134527063Y-139244689D03*
X134527063Y-135944689D03*
X184533313Y-77332189D03*
X184533313Y-74032189D03*
D24*
X122817689Y-53432190D03*
D25*
X122817688Y-52182189D03*
D23*
X108333313Y-77332189D03*
X108333313Y-74032189D03*
D26*
X157617689Y-60469690D03*
X157617689Y-58644690D03*
D23*
X144052063Y-115432189D03*
X144052063Y-112132189D03*
X48802063Y-96382189D03*
X48802063Y-93082189D03*
X182152063Y-96382189D03*
X182152063Y-93082189D03*
X108333313Y-115432189D03*
X108333313Y-112132189D03*
X67852063Y-77332189D03*
X67852063Y-74032189D03*
X105952063Y-115432189D03*
X105952063Y-112132189D03*
D27*
X144267689Y-71944690D03*
X144267689Y-73769690D03*
D23*
X127383313Y-77332189D03*
X127383313Y-74032189D03*
X220252063Y-115432189D03*
X220252063Y-112132189D03*
D28*
X142255189Y-82882190D03*
X142255189Y-82232190D03*
X142255189Y-81582190D03*
X142255189Y-80932190D03*
X142255189Y-80282190D03*
X142255189Y-79632190D03*
X142255189Y-78982190D03*
X142255189Y-78332190D03*
X142255189Y-77682190D03*
X142255189Y-77032190D03*
X142255189Y-76382190D03*
X142255189Y-75732190D03*
X147980189Y-75732190D03*
X147980189Y-76382190D03*
X147980189Y-77032190D03*
X147980189Y-77682190D03*
X147980189Y-78332190D03*
X147980189Y-78982190D03*
X147980189Y-79632190D03*
X147980189Y-80282190D03*
X147980189Y-80932190D03*
X147980189Y-81582190D03*
X147980189Y-82232190D03*
X147980189Y-82882190D03*
D23*
X136908313Y-139244689D03*
X136908313Y-135944689D03*
X48802063Y-134482189D03*
X48802063Y-131182189D03*
D27*
X157617689Y-54394690D03*
X157617689Y-56219690D03*
D23*
X222633313Y-96382189D03*
X222633313Y-93082189D03*
X184533313Y-115432189D03*
X184533313Y-112132189D03*
X184533313Y-96382189D03*
X184533313Y-93082189D03*
X70233313Y-77332189D03*
X70233313Y-74032189D03*
X182152063Y-77332189D03*
X182152063Y-74032189D03*
X222633313Y-115432189D03*
X222633313Y-112132189D03*
X108333313Y-96382189D03*
X108333313Y-93082189D03*
X67852063Y-115432189D03*
X67852063Y-112132189D03*
X211917688Y-134482189D03*
X211917688Y-131182189D03*
X70233313Y-115432189D03*
X70233313Y-112132189D03*
D29*
X151867689Y-81007190D03*
X151867689Y-82907190D03*
D23*
X250017688Y-134482189D03*
X250017688Y-131182189D03*
D30*
X48000000Y-53307190D03*
X44700000Y-53307190D03*
D23*
X220252063Y-77332189D03*
X220252063Y-74032189D03*
D31*
X128567688Y-44801689D03*
D32*
X121367688Y-44801689D03*
D33*
X126467689Y-45944690D03*
X123467689Y-45944690D03*
D32*
X128567688Y-47087689D03*
D31*
X121367688Y-47087689D03*
D34*
X122767688Y-47794689D03*
X125667688Y-47794689D03*
X127167688Y-47794689D03*
D23*
X105952063Y-96382189D03*
X105952063Y-93082189D03*
X67852063Y-96382189D03*
X67852063Y-93082189D03*
X70233313Y-96382189D03*
X70233313Y-93082189D03*
X241683313Y-115432189D03*
X241683313Y-112132189D03*
X153577063Y-139244689D03*
X153577063Y-135944689D03*
X48802063Y-77332189D03*
X48802063Y-74032189D03*
X78567688Y-134482189D03*
X78567688Y-131182189D03*
X144052063Y-96382189D03*
X144052063Y-93082189D03*
X220252063Y-96382189D03*
X220252063Y-93082189D03*
X182152063Y-115432189D03*
X182152063Y-112132189D03*
X59517688Y-134482189D03*
X59517688Y-131182189D03*
X222633313Y-77332189D03*
X222633313Y-74032189D03*
X48802063Y-115432189D03*
X48802063Y-112132189D03*
X155958313Y-139244689D03*
X155958313Y-135944689D03*
X241683313Y-96382189D03*
X241683313Y-93082189D03*
X105952063Y-77332189D03*
X105952063Y-74032189D03*
X146433313Y-115432189D03*
X146433313Y-112132189D03*
D35*
X153312648Y-45862189D03*
X153312648Y-48402189D03*
X153312648Y-50942189D03*
X153312648Y-53482189D03*
X153312648Y-56022189D03*
X153312648Y-58562189D03*
X153312648Y-61102189D03*
X137122728Y-61102189D03*
X137122728Y-58562189D03*
X137122728Y-56022189D03*
X137122728Y-53482189D03*
X137122728Y-50942189D03*
X137122728Y-48402189D03*
X137122728Y-45862189D03*
D36*
X146487689Y-44910190D03*
X143947689Y-44910190D03*
X146487689Y-47450190D03*
X143947689Y-47450190D03*
X149662689Y-53165190D03*
X149662689Y-51260190D03*
X141407689Y-62690190D03*
X139502689Y-62690190D03*
D23*
X163102063Y-77332189D03*
X163102063Y-74032189D03*
X230967688Y-134482189D03*
X230967688Y-131182189D03*
X146433313Y-96382189D03*
X146433313Y-93082189D03*
M02*
