%TF.GenerationSoftware,KiCad,Pcbnew,(7.0.0-0)*%
%TF.CreationDate,2023-03-16T02:49:19-07:00*%
%TF.ProjectId,spc_evdr,7370635f-6576-4647-922e-6b696361645f,rev?*%
%TF.SameCoordinates,Original*%
%TF.FileFunction,Paste,Bot*%
%TF.FilePolarity,Positive*%
%FSLAX46Y46*%
G04 Gerber Fmt 4.6, Leading zero omitted, Abs format (unit mm)*
G04 Created by KiCad (PCBNEW (7.0.0-0)) date 2023-03-16 02:49:19*
%MOMM*%
%LPD*%
G01*
G04 APERTURE LIST*
G04 Aperture macros list*
%AMRoundRect*
0 Rectangle with rounded corners*
0 $1 Rounding radius*
0 $2 $3 $4 $5 $6 $7 $8 $9 X,Y pos of 4 corners*
0 Add a 4 corners polygon primitive as box body*
4,1,4,$2,$3,$4,$5,$6,$7,$8,$9,$2,$3,0*
0 Add four circle primitives for the rounded corners*
1,1,$1+$1,$2,$3*
1,1,$1+$1,$4,$5*
1,1,$1+$1,$6,$7*
1,1,$1+$1,$8,$9*
0 Add four rect primitives between the rounded corners*
20,1,$1+$1,$2,$3,$4,$5,0*
20,1,$1+$1,$4,$5,$6,$7,0*
20,1,$1+$1,$6,$7,$8,$9,0*
20,1,$1+$1,$8,$9,$2,$3,0*%
G04 Aperture macros list end*
%ADD10R,2.550000X2.500000*%
%ADD11R,1.200000X0.900000*%
%ADD12RoundRect,0.250000X0.450000X-0.262500X0.450000X0.262500X-0.450000X0.262500X-0.450000X-0.262500X0*%
%ADD13RoundRect,0.250000X-0.450000X0.262500X-0.450000X-0.262500X0.450000X-0.262500X0.450000X0.262500X0*%
%ADD14RoundRect,0.100000X-0.637500X-0.100000X0.637500X-0.100000X0.637500X0.100000X-0.637500X0.100000X0*%
%ADD15RoundRect,0.250000X-0.475000X0.250000X-0.475000X-0.250000X0.475000X-0.250000X0.475000X0.250000X0*%
%ADD16RoundRect,0.225000X0.225000X0.375000X-0.225000X0.375000X-0.225000X-0.375000X0.225000X-0.375000X0*%
%ADD17R,1.100000X0.600000*%
%ADD18R,1.000000X0.600000*%
%ADD19R,0.600000X1.000000*%
%ADD20O,2.750000X1.800000*%
G04 APERTURE END LIST*
D10*
X257102688Y-87747189D03*
X244175688Y-90287189D03*
X121488938Y-125529689D03*
X134415938Y-122989689D03*
X66602688Y-68697189D03*
X53675688Y-71237189D03*
X161852688Y-68697189D03*
X148925688Y-71237189D03*
X66602688Y-106797189D03*
X53675688Y-109337189D03*
X161852688Y-106797189D03*
X148925688Y-109337189D03*
X180902688Y-87747189D03*
X167975688Y-90287189D03*
X104702688Y-68697189D03*
X91775688Y-71237189D03*
X47552688Y-87747189D03*
X34625688Y-90287189D03*
X219002688Y-68697189D03*
X206075688Y-71237189D03*
X47552688Y-68697189D03*
X34625688Y-71237189D03*
X257102688Y-68697189D03*
X244175688Y-71237189D03*
X85652688Y-68697189D03*
X72725688Y-71237189D03*
X104702688Y-106797189D03*
X91775688Y-109337189D03*
X138157688Y-125529689D03*
X151084688Y-122989689D03*
X66602688Y-125847189D03*
X53675688Y-128387189D03*
X238052688Y-125847189D03*
X225125688Y-128387189D03*
X123752688Y-87747189D03*
X110825688Y-90287189D03*
X142802688Y-106797189D03*
X129875688Y-109337189D03*
X123752688Y-106797189D03*
X110825688Y-109337189D03*
X219002688Y-87747189D03*
X206075688Y-90287189D03*
X199952688Y-68697189D03*
X187025688Y-71237189D03*
X169113938Y-125529689D03*
X182040938Y-122989689D03*
X178638938Y-125529689D03*
X191565938Y-122989689D03*
X47552688Y-125847189D03*
X34625688Y-128387189D03*
X107201438Y-125529689D03*
X120128438Y-122989689D03*
X199952688Y-106797189D03*
X187025688Y-109337189D03*
X219002688Y-106797189D03*
X206075688Y-109337189D03*
X238052688Y-68697189D03*
X225125688Y-71237189D03*
X180902688Y-106797189D03*
X167975688Y-109337189D03*
X238052688Y-87747189D03*
X225125688Y-90287189D03*
X195190188Y-130609689D03*
X182263188Y-133149689D03*
X238052688Y-106797189D03*
X225125688Y-109337189D03*
X123752688Y-68697189D03*
X110825688Y-71237189D03*
X154826438Y-125529689D03*
X167753438Y-122989689D03*
X66602688Y-87747189D03*
X53675688Y-90287189D03*
X219002688Y-125847189D03*
X206075688Y-128387189D03*
X85652688Y-106797189D03*
X72725688Y-109337189D03*
X95295188Y-125529689D03*
X108222188Y-122989689D03*
X199952688Y-87747189D03*
X187025688Y-90287189D03*
X161852688Y-87747189D03*
X148925688Y-90287189D03*
X142802688Y-68697189D03*
X129875688Y-71237189D03*
X180902688Y-68697189D03*
X167975688Y-71237189D03*
X85652688Y-125847189D03*
X72725688Y-128387189D03*
X104702688Y-87747189D03*
X91775688Y-90287189D03*
X111846438Y-130609689D03*
X98919438Y-133149689D03*
X142802688Y-87747189D03*
X129875688Y-90287189D03*
X257102688Y-125847189D03*
X244175688Y-128387189D03*
X257102688Y-106797189D03*
X244175688Y-109337189D03*
X47552688Y-106797189D03*
X34625688Y-109337189D03*
X85652688Y-87747189D03*
X72725688Y-90287189D03*
D11*
X241683313Y-77332189D03*
X241683313Y-74032189D03*
X134527063Y-139244689D03*
X134527063Y-135944689D03*
X184533313Y-77332189D03*
X184533313Y-74032189D03*
X108333313Y-77332189D03*
X108333313Y-74032189D03*
D12*
X157617689Y-60469690D03*
X157617689Y-58644690D03*
D11*
X144052063Y-115432189D03*
X144052063Y-112132189D03*
X48802063Y-96382189D03*
X48802063Y-93082189D03*
X182152063Y-96382189D03*
X182152063Y-93082189D03*
X108333313Y-115432189D03*
X108333313Y-112132189D03*
X67852063Y-77332189D03*
X67852063Y-74032189D03*
X105952063Y-115432189D03*
X105952063Y-112132189D03*
D13*
X144267689Y-71944690D03*
X144267689Y-73769690D03*
D11*
X127383313Y-77332189D03*
X127383313Y-74032189D03*
X220252063Y-115432189D03*
X220252063Y-112132189D03*
D14*
X142255189Y-82882190D03*
X142255189Y-82232190D03*
X142255189Y-81582190D03*
X142255189Y-80932190D03*
X142255189Y-80282190D03*
X142255189Y-79632190D03*
X142255189Y-78982190D03*
X142255189Y-78332190D03*
X142255189Y-77682190D03*
X142255189Y-77032190D03*
X142255189Y-76382190D03*
X142255189Y-75732190D03*
X147980189Y-75732190D03*
X147980189Y-76382190D03*
X147980189Y-77032190D03*
X147980189Y-77682190D03*
X147980189Y-78332190D03*
X147980189Y-78982190D03*
X147980189Y-79632190D03*
X147980189Y-80282190D03*
X147980189Y-80932190D03*
X147980189Y-81582190D03*
X147980189Y-82232190D03*
X147980189Y-82882190D03*
D11*
X136908313Y-139244689D03*
X136908313Y-135944689D03*
X48802063Y-134482189D03*
X48802063Y-131182189D03*
D13*
X157617689Y-54394690D03*
X157617689Y-56219690D03*
D11*
X222633313Y-96382189D03*
X222633313Y-93082189D03*
X184533313Y-115432189D03*
X184533313Y-112132189D03*
X184533313Y-96382189D03*
X184533313Y-93082189D03*
X70233313Y-77332189D03*
X70233313Y-74032189D03*
X182152063Y-77332189D03*
X182152063Y-74032189D03*
X222633313Y-115432189D03*
X222633313Y-112132189D03*
X108333313Y-96382189D03*
X108333313Y-93082189D03*
X67852063Y-115432189D03*
X67852063Y-112132189D03*
X211917688Y-134482189D03*
X211917688Y-131182189D03*
X70233313Y-115432189D03*
X70233313Y-112132189D03*
D15*
X151867689Y-81007190D03*
X151867689Y-82907190D03*
D11*
X250017688Y-134482189D03*
X250017688Y-131182189D03*
D16*
X48000000Y-53307190D03*
X44700000Y-53307190D03*
D11*
X220252063Y-77332189D03*
X220252063Y-74032189D03*
D17*
X128567688Y-44801689D03*
D18*
X121367688Y-44801689D03*
X128567688Y-47087689D03*
D17*
X121367688Y-47087689D03*
D19*
X122767688Y-47794689D03*
X125667688Y-47794689D03*
X127167688Y-47794689D03*
D11*
X105952063Y-96382189D03*
X105952063Y-93082189D03*
X67852063Y-96382189D03*
X67852063Y-93082189D03*
X70233313Y-96382189D03*
X70233313Y-93082189D03*
X241683313Y-115432189D03*
X241683313Y-112132189D03*
X153577063Y-139244689D03*
X153577063Y-135944689D03*
X48802063Y-77332189D03*
X48802063Y-74032189D03*
X78567688Y-134482189D03*
X78567688Y-131182189D03*
X144052063Y-96382189D03*
X144052063Y-93082189D03*
X220252063Y-96382189D03*
X220252063Y-93082189D03*
X182152063Y-115432189D03*
X182152063Y-112132189D03*
X59517688Y-134482189D03*
X59517688Y-131182189D03*
X222633313Y-77332189D03*
X222633313Y-74032189D03*
X48802063Y-115432189D03*
X48802063Y-112132189D03*
X155958313Y-139244689D03*
X155958313Y-135944689D03*
X241683313Y-96382189D03*
X241683313Y-93082189D03*
X105952063Y-77332189D03*
X105952063Y-74032189D03*
X146433313Y-115432189D03*
X146433313Y-112132189D03*
D20*
X153312648Y-45862189D03*
X153312648Y-48402189D03*
X153312648Y-50942189D03*
X153312648Y-53482189D03*
X153312648Y-56022189D03*
X153312648Y-58562189D03*
X153312648Y-61102189D03*
X137122728Y-61102189D03*
X137122728Y-58562189D03*
X137122728Y-56022189D03*
X137122728Y-53482189D03*
X137122728Y-50942189D03*
X137122728Y-48402189D03*
X137122728Y-45862189D03*
D11*
X163102063Y-77332189D03*
X163102063Y-74032189D03*
X230967688Y-134482189D03*
X230967688Y-131182189D03*
X146433313Y-96382189D03*
X146433313Y-93082189D03*
M02*
