M48
; DRILL file {KiCad (7.0.0-0)} date Thursday, March 16, 2023 at 02:49:15 AM
; FORMAT={-:-/ absolute / inch / decimal}
; #@! TF.CreationDate,2023-03-16T02:49:15-07:00
; #@! TF.GenerationSoftware,Kicad,Pcbnew,(7.0.0-0)
; #@! TF.FileFunction,NonPlated,1,2,NPTH
FMAT,2
INCH
; #@! TA.AperFunction,NonPlated,NPTH,ComponentDrill
T1C0.0335
; #@! TA.AperFunction,NonPlated,NPTH,ComponentDrill
T2C0.0748
; #@! TA.AperFunction,NonPlated,NPTH,ComponentDrill
T3C0.1181
; #@! TA.AperFunction,NonPlated,NPTH,ComponentDrill
T4C0.1200
; #@! TA.AperFunction,NonPlated,NPTH,ComponentDrill
T5C0.1570
; #@! TA.AperFunction,NonPlated,NPTH,ComponentDrill
T6C0.1614
%
G90
G05
T1
X4.8609Y-1.8088
X4.979Y-1.8088
T2
X1.3932Y-2.6046
X1.3932Y-3.3546
X1.3932Y-4.1046
X1.3932Y-4.8546
X1.7932Y-2.6046
X1.7932Y-3.3546
X1.7932Y-4.1046
X1.7932Y-4.8546
X2.1432Y-2.6046
X2.1432Y-3.3546
X2.1432Y-4.1046
X2.1432Y-4.8546
X2.5432Y-2.6046
X2.5432Y-3.3546
X2.5432Y-4.1046
X2.5432Y-4.8546
X2.8932Y-2.6046
X2.8932Y-3.3546
X2.8932Y-4.1046
X2.8932Y-4.8546
X3.2932Y-2.6046
X3.2932Y-3.3546
X3.2932Y-4.1046
X3.2932Y-4.8546
X3.6432Y-2.6046
X3.6432Y-3.3546
X3.6432Y-4.1046
X3.8307Y-5.0421
X3.9245Y-5.0421
X4.0432Y-2.6046
X4.0432Y-3.3546
X4.0432Y-4.1046
X4.2307Y-5.0421
X4.2995Y-5.0421
X4.3245Y-5.0421
X4.3932Y-2.6046
X4.3932Y-3.3546
X4.3932Y-4.1046
X4.6995Y-5.0421
X4.7932Y-2.6046
X4.7932Y-3.3546
X4.7932Y-4.1046
X4.862Y-5.0421
X5.1432Y-2.6046
X5.1432Y-3.3546
X5.1432Y-4.1046
X5.262Y-5.0421
X5.5182Y-5.0421
X5.5432Y-2.6046
X5.5432Y-3.3546
X5.5432Y-4.1046
X5.8932Y-2.6046
X5.8932Y-3.3546
X5.8932Y-4.1046
X5.9182Y-5.0421
X6.1745Y-5.0421
X6.2932Y-2.6046
X6.2932Y-3.3546
X6.2932Y-4.1046
X6.5745Y-5.0421
X6.6432Y-2.6046
X6.6432Y-3.3546
X6.6432Y-4.1046
X6.737Y-5.0421
X7.0432Y-2.6046
X7.0432Y-3.3546
X7.0432Y-4.1046
X7.112Y-5.0421
X7.137Y-5.0421
X7.2057Y-5.0421
X7.3932Y-2.6046
X7.3932Y-3.3546
X7.3932Y-4.1046
X7.512Y-5.0421
X7.6057Y-5.0421
X7.7932Y-2.6046
X7.7932Y-3.3546
X7.7932Y-4.1046
X8.1432Y-2.6046
X8.1432Y-3.3546
X8.1432Y-4.1046
X8.1432Y-4.8546
X8.5432Y-2.6046
X8.5432Y-3.3546
X8.5432Y-4.1046
X8.5432Y-4.8546
X8.8932Y-2.6046
X8.8932Y-3.3546
X8.8932Y-4.1046
X8.8932Y-4.8546
X9.2932Y-2.6046
X9.2932Y-3.3546
X9.2932Y-4.1046
X9.2932Y-4.8546
X9.6432Y-2.6046
X9.6432Y-3.3546
X9.6432Y-4.1046
X9.6432Y-4.8546
X10.0432Y-2.6046
X10.0432Y-3.3546
X10.0432Y-4.1046
X10.0432Y-4.8546
T3
X1.4932Y-2.8046
X1.4932Y-3.5546
X1.4932Y-4.3046
X1.4932Y-5.0546
X1.7432Y-2.7046
X1.7432Y-3.4546
X1.7432Y-4.2046
X1.7432Y-4.9546
X2.2432Y-2.8046
X2.2432Y-3.5546
X2.2432Y-4.3046
X2.2432Y-5.0546
X2.4932Y-2.7046
X2.4932Y-3.4546
X2.4932Y-4.2046
X2.4932Y-4.9546
X2.9932Y-2.8046
X2.9932Y-3.5546
X2.9932Y-4.3046
X2.9932Y-5.0546
X3.2432Y-2.7046
X3.2432Y-3.4546
X3.2432Y-4.2046
X3.2432Y-4.9546
X3.7432Y-2.8046
X3.7432Y-3.5546
X3.7432Y-4.3046
X3.8807Y-4.9421
X3.9932Y-2.7046
X3.9932Y-3.4546
X3.9932Y-4.2046
X4.0245Y-5.2421
X4.1307Y-4.8421
X4.2745Y-5.1421
X4.3495Y-4.9421
X4.4932Y-2.8046
X4.4932Y-3.5546
X4.4932Y-4.3046
X4.5995Y-4.8421
X4.7432Y-2.7046
X4.7432Y-3.4546
X4.7432Y-4.2046
X4.912Y-4.9421
X5.162Y-4.8421
X5.2432Y-2.8046
X5.2432Y-3.5546
X5.2432Y-4.3046
X5.4932Y-2.7046
X5.4932Y-3.4546
X5.4932Y-4.2046
X5.5682Y-4.9421
X5.8182Y-4.8421
X5.9932Y-2.8046
X5.9932Y-3.5546
X5.9932Y-4.3046
X6.2245Y-4.9421
X6.2432Y-2.7046
X6.2432Y-3.4546
X6.2432Y-4.2046
X6.4745Y-4.8421
X6.7432Y-2.8046
X6.7432Y-3.5546
X6.7432Y-4.3046
X6.787Y-4.9421
X6.9932Y-2.7046
X6.9932Y-3.4546
X6.9932Y-4.2046
X7.037Y-4.8421
X7.162Y-4.9421
X7.3057Y-5.2421
X7.412Y-4.8421
X7.4932Y-2.8046
X7.4932Y-3.5546
X7.4932Y-4.3046
X7.5557Y-5.1421
X7.7432Y-2.7046
X7.7432Y-3.4546
X7.7432Y-4.2046
X8.2432Y-2.8046
X8.2432Y-3.5546
X8.2432Y-4.3046
X8.2432Y-5.0546
X8.4932Y-2.7046
X8.4932Y-3.4546
X8.4932Y-4.2046
X8.4932Y-4.9546
X8.9932Y-2.8046
X8.9932Y-3.5546
X8.9932Y-4.3046
X8.9932Y-5.0546
X9.2432Y-2.7046
X9.2432Y-3.4546
X9.2432Y-4.2046
X9.2432Y-4.9546
X9.7432Y-2.8046
X9.7432Y-3.5546
X9.7432Y-4.3046
X9.7432Y-5.0546
X9.9932Y-2.7046
X9.9932Y-3.4546
X9.9932Y-4.2046
X9.9932Y-4.9546
T4
X4.0295Y-5.3171
X4.9682Y-5.3171
X4.9695Y-5.3171
X6.467Y-5.3171
X6.4682Y-5.3171
X7.407Y-5.3171
T5
X4.0295Y-4.7171
X4.9682Y-4.7171
X4.9695Y-4.7171
X6.467Y-4.7171
X6.4682Y-4.7171
X7.407Y-4.7171
T6
X1.5932Y-2.6046
X1.5932Y-3.3546
X1.5932Y-4.1046
X1.5932Y-4.8546
X2.3432Y-2.6046
X2.3432Y-3.3546
X2.3432Y-4.1046
X2.3432Y-4.8546
X3.0932Y-2.6046
X3.0932Y-3.3546
X3.0932Y-4.1046
X3.0932Y-4.8546
X3.8432Y-2.6046
X3.8432Y-3.3546
X3.8432Y-4.1046
X4.0307Y-5.0421
X4.1245Y-5.0421
X4.4995Y-5.0421
X4.5932Y-2.6046
X4.5932Y-3.3546
X4.5932Y-4.1046
X5.062Y-5.0421
X5.3432Y-2.6046
X5.3432Y-3.3546
X5.3432Y-4.1046
X5.7182Y-5.0421
X6.0932Y-2.6046
X6.0932Y-3.3546
X6.0932Y-4.1046
X6.3745Y-5.0421
X6.8432Y-2.6046
X6.8432Y-3.3546
X6.8432Y-4.1046
X6.937Y-5.0421
X7.312Y-5.0421
X7.4057Y-5.0421
X7.5932Y-2.6046
X7.5932Y-3.3546
X7.5932Y-4.1046
X8.3432Y-2.6046
X8.3432Y-3.3546
X8.3432Y-4.1046
X8.3432Y-4.8546
X9.0932Y-2.6046
X9.0932Y-3.3546
X9.0932Y-4.1046
X9.0932Y-4.8546
X9.8432Y-2.6046
X9.8432Y-3.3546
X9.8432Y-4.1046
X9.8432Y-4.8546
T0
M30
